<svg version="1.2" xmlns="http://www.w3.org/2000/svg" viewBox="0 0 1280 1280" width="200" height="200">
	<title>airPollution</title>
	<style>
		.s0 { fill: none;stroke: #366088;stroke-linecap: round;stroke-linejoin: round;stroke-width: 12.7;stroke-dasharray: 64 } 
		.s1 { fill: #a4edf5 } 
		.s2 { fill: #ffffff;stroke: #366088;stroke-linecap: round;stroke-linejoin: round;stroke-width: 12.7 } 
		.s3 { fill: none;stroke: #366088;stroke-linecap: round;stroke-linejoin: round;stroke-width: 12.7 } 
		.s4 { fill: #d0fdff;stroke: #366088;stroke-linecap: round;stroke-linejoin: round;stroke-width: 12.7 } 
	</style>
	<g id="&lt;Group&gt;">
		<g id="&lt;Group&gt;">
			<g id="&lt;Group&gt;">
				<path id="&lt;Path&gt;" class="s0" d="m376.4 61.5c99.1-45 211.2-65.1 327.3-53.1 65.3 6.8 127.4 23.3 184.7 47.8"/>
				<path id="&lt;Path&gt;" class="s0" d="m672.9 1273.5c-32.8 1.7-66.2 0.9-99.9-2.6-246.6-25.5-445.5-188.9-528-405.8"/>
				<path id="&lt;Path&gt;" class="s0" d="m1262.9 526.1c10.4 57.7 13 117.7 6.7 178.9-6.6 64.1-22.6 125-46.4 181.5"/>
			</g>
			<g id="&lt;Group&gt;">
				<path id="&lt;Path&gt;" class="s1" d="m174.9 591.7c26.4-256 255.4-442 511.4-415.5 256 26.5 442 255.5 415.5 511.5-26.5 255.9-255.5 442-511.4 415.5-256-26.5-442-255.5-415.5-511.5z"/>
			</g>
		</g>
		<g id="&lt;Group&gt;">
			<path id="&lt;Path&gt;" class="s2" d="m1255.2 1005.6v4.9c0 84.8-69.4 154.2-154.2 154.2h-151.9v26.3c0 28-22.9 51-51 51h-189.7c-28.1 0-51-23-51-51 0-12.3 4.4-23.6 11.7-32.4-64.2-18.7-111.6-78.1-111.6-148.1v-4.9c0-84.8 69.4-154.2 154.2-154.2h23.3c14.3-81.8 85.6-143.9 171.4-143.9 85.8 0 157.1 62.1 171.4 143.9h23.2c84.8 0 154.2 69.4 154.2 154.2z"/>
			<rect id="&lt;Path&gt;" class="s2" x="884.3" y="904.9" width="120.4" height="182.5" rx="42.2"></rect>
			<rect id="&lt;Path&gt;" class="s2" x="726.7" y="904.9" width="120.4" height="182.5" rx="42.2"></rect>
			<g id="&lt;Group&gt;">
				<path id="&lt;Path&gt;" class="s2" d="m1054 980.2h74.9v60.3h-3.6-69.2-2.1v60.4h74.9"/>
			</g>
		</g>
		<g id="&lt;Group&gt;">
			<g id="&lt;Group&gt;">
				<circle id="&lt;Path&gt;" class="s2" cx="983.2" cy="370" r="290.9"/>
				<path id="&lt;Path&gt;" class="s3" d="m766.6 439h123.5c34 0 61.5 27.6 61.5 61.6 0 34-27.5 61.5-61.5 61.5-34 0-61.6-27.5-61.6-61.5"/>
				<path id="&lt;Path&gt;" class="s3" d="m1011.7 263.3c0-45.9 37.2-83.1 83.2-83.1 45.9 0 83.1 37.2 83.1 83.1 0 46-37.2 83.2-83.1 83.2h-166.8"/>
				<path id="&lt;Path&gt;" class="s3" d="m766.6 399.9h347.5c39.6 0 71.7 32.1 71.7 71.6 0 39.6-32.1 71.7-71.7 71.7-39.6 0-71.6-32.1-71.6-71.7"/>
			</g>
			<g id="&lt;Group&gt;">
				<g id="&lt;Group&gt;">
					<g id="&lt;Group&gt;">
						<g id="&lt;Group&gt;">
							<g id="&lt;Group&gt;">
								<g id="&lt;Group&gt;">
									<path id="&lt;Path&gt;" class="s4" d="m921.4 275.3c-4 4.7-22.9 13.6-22.9 19.8v12.3c0 33.2-37.1 41.8-83 41.8-45.8 0-83-6.2-83-41.8q0-12.3 0-12.4c0-6.1-16.5-16.1-20.4-20.8-17.3-20.5-13-43-12.7-71.9 0.6-63.8 53.4-113.6 117.3-113 63.6 0.6 115 50.4 115 114.2 0 28.4 6.6 51.6-10.3 71.8z"/>
									<path id="&lt;Path&gt;" class="s2" d="m823.3 290.4h-15.5c-5.2 0-9-4.3-7.5-8.7l7.4-31.7c1.1-3.2 2.8-5.4 6.6-5.4h2.4c3.9 0 5.6 2.2 6.7 5.4l7.4 31.7c1.5 4.4-2.3 8.7-7.5 8.7z"/>
									<path id="&lt;Path&gt;" class="s2" d="m795.9 231c-9.7 21-22.9 32.7-41.2 28.6-18.3-4-40.2-22-35.2-44.5 5-22.5 33.4-31.7 52.2-32.2 25.1-0.5 37 20.2 24.2 48.1z"/>
									<path id="&lt;Path&gt;" class="s2" d="m859.9 183.4c18.8 0.9 46.4 8.4 52 30.7 5.5 22.4-14.9 41-33.1 45.5-18.2 4.5-34-5.8-41.8-27.5-10-27.9 0-49.9 22.9-48.7z"/>
								</g>
							</g>
						</g>
					</g>
				</g>
			</g>
		</g>
		<path id="&lt;Path&gt;" class="s2" d="m321.3 840.3h-288.8c-14.7 0-26.6-11.9-26.6-26.6v-286.7c0-14.7 11.9-26.7 26.6-26.7h424.5c14.7 0 26.7 12 26.7 26.7"/>
		<path id="&lt;Path&gt;" class="s4" d="m417.3 618.1l23.7-40.9c19.2-33.4 67.4-33.4 86.7 0l76.8 133 21.7 37.6 10.1 17.4c19.2 33.4-4.9 75.1-43.4 75.1h-125.7-40.4-51c-38.6 0-62.7-41.7-43.4-75.1l61.6-106.7z"/>
		<path id="&lt;Path&gt;" class="s4" d="m277.8 840.3h-190.7v-165c0-12.2 10-22.2 22.3-22.2h146.2c12.3 0 22.2 10 22.2 22.2z"/>
		<path id="&lt;Path&gt;" class="s3" d="m223.4 558.5v32.2"/>
		<path id="&lt;Path&gt;" class="s3" d="m141.6 558.5v32.2"/>
		<path id="&lt;Path&gt;" class="s3" d="m59.7 558.5v32.2"/>
		<path id="&lt;Path&gt;" class="s3" d="m305.2 558.5v32.2"/>
		<path id="&lt;Path&gt;" class="s2" d="m170.3 216.8l25.1 283.5h-143.6l25-283.5c0.4-4.6 4.3-8.2 9-8.2h75.6c4.6 0 8.5 3.6 8.9 8.2z"/>
		<path id="&lt;Path&gt;" class="s3" d="m70.1 293.1h107"/>
		<path id="&lt;Path&gt;" class="s3" d="m65.9 340.6h115.4"/>
		<path id="&lt;Path&gt;" class="s4" d="m309.3 500.3h-55.9v-143.7c0-5 4-9 9-9h37.9c4.9 0 9 4 9 9z"/>
		<path id="&lt;Path&gt;" class="s4" d="m427.6 500.3h-55.9v-94.6c0-4.9 4-9 9-9h37.9c5 0 9 4.1 9 9z"/>
		<path id="&lt;Path&gt;" class="s4" d="m110.1 177v-58.9c0-13.4 10.9-24.4 24.4-24.4h166.4c13.4 0 24.4 11 24.4 24.4v18.6c0 13.5 10.9 24.4 24.3 24.4h152.3c13.5 0 24.4 10.9 24.4 24.3v17.4c0 13.4 10.9 24.3 24.3 24.3h67.8c13.4 0 24.3 10.9 24.3 24.4v25.7c0 13.4-10.9 24.3-24.3 24.3h-23.4c-13.5 0-24.4 10.9-24.4 24.4 0 13.5-10.9 24.4-24.4 24.4h-146.6c-13.5 0-24.4-10.9-24.4-24.4v-26c0-13.4-10.9-24.4-24.3-24.4h-90.1c-13.5 0-24.4-10.9-24.4-24.3v-62c0-13.4-10.9-24.3-24.3-24.3h-53.6"/>
		<path id="&lt;Path&gt;" class="s3" d="m483.7 617.1v140"/>
		<path id="&lt;Path&gt;" class="s3" d="m483.7 787.2v8.1"/>
	</g>
</svg>