<svg version="1.2" xmlns="http://www.w3.org/2000/svg" viewBox="0 0 1033 1085" width="200" height="210">
	<title>burning2-svg-svg</title>
	<style>
		.s0 { fill: none;stroke: #366088;stroke-linecap: round;stroke-linejoin: round;stroke-width: 10.7;stroke-dasharray: 54 } 
		.s1 { fill: #a4edf5 } 
		.s2 { fill: #d0fdff;stroke: #366088;stroke-linecap: round;stroke-linejoin: round;stroke-width: 10.7 } 
		.s3 { fill: none;stroke: #366088;stroke-linecap: round;stroke-linejoin: round;stroke-width: 10.7 } 
		.s4 { fill: #ffffff;stroke: #366088;stroke-linecap: round;stroke-linejoin: round;stroke-width: 10.7 } 
	</style>
	<g id="&lt;Group&gt;">
		<g id="&lt;Group&gt;">
			
			<g id="&lt;Group&gt;">
			<circle id="&lt;Path&gt;" class="s1" cx="516" cy="542" r="400"/>
			</g>
		</g>
		<g id="&lt;Group&gt;">
			<path id="&lt;Path&gt;" class="s2" d="m875.5 1034.6c1.6 4.1-1.4 8.6-5.8 8.6h-388c-6.7 0-11.2-6.9-8.5-13l46.6-81.6c1.1-2 3.2-3.2 5.4-3.2h20l24.7-40.8c1.6-2.7 5.1-3.8 8-2.4l33 15.6 27.1-37.6c1.3-1.8 3.4-2.8 5.6-2.6l50.9 3.9c1.6 0.1 3.1 0.8 4.1 2l51.1 54.1 14.8-16.5c1.9-2.1 5-2.7 7.5-1.3l72.9 37.9z"/>
			<path id="&lt;Path&gt;" class="s3" d="m549.3 801.4v7.4c0 14.8-13.1 26.8-29.2 26.8h-16.1c-16.1 0-29.1-12-29.1-26.8v-83.1c0-14.8 13-26.8 29.1-26.8h16.1c16.1 0 29.2 12 29.2 26.8v7.4"/>
			<path id="&lt;Path&gt;" class="s3" d="m588.6 698.9v136.7"/>
			<path id="&lt;Path&gt;" class="s3" d="m662.9 698.9v136.7"/>
			<path id="&lt;Path&gt;" class="s3" d="m588.6 767.2h74.3"/>
			<path id="&lt;Path&gt;" class="s3" d="m747 760v75.6"/>
			<path id="&lt;Path&gt;" class="s3" d="m747 792h-43.5c-3.9 0-6.7-3.5-5.4-7l15-41.5"/>
			<path id="&lt;Path&gt;" class="s3" d="m545.2 945.4l13 17.7"/>
			<path id="&lt;Path&gt;" class="s3" d="m598 984.1l20.5-24.1 48.2 28.6 29.8 54.6"/>
			<path id="&lt;Path&gt;" class="s3" d="m610.9 917.8l7.6 42.2"/>
			<path id="&lt;Path&gt;" class="s3" d="m657.6 940.4l39.4-58.7"/>
			<path id="&lt;Path&gt;" class="s3" d="m749.7 937.6l-14.3 15.9"/>
			<path id="&lt;Path&gt;" class="s3" d="m666.7 988.6l16.5-33.6 52.2-1.5 34.5 41.3"/>
			<path id="&lt;Path&gt;" class="s3" d="m548.3 1001.6v41.6"/>
			<rect id="&lt;Path&gt;" class="s2" x="783.5" y="592.4" width="83.8" height="98.8" rx="11"></rect>
			<path id="&lt;Path&gt;" class="s2" d="m805.2 691.2h40.3v302.4c0 11.1-9 20.1-20.1 20.1-11.1 0-20.2-9-20.2-20.1z"/>
			<path id="&lt;Path&gt;" class="s4" d="m630.5 644.3l7.9-7.1c18.9-16.8 43.3-26.1 68.5-26.1h76.6v46.2h-148.1c-6.8 0-10-8.4-4.9-13z"/>
			<path id="&lt;Path&gt;" class="s4" d="m1015.3 657.3h-148v-46.2h76.5c25.3 0 49.7 9.3 68.5 26.1l8 7.1c5.1 4.6 1.9 13-5 13z"/>
		</g>
		<g id="&lt;Group&gt;">
			<path id="&lt;Path&gt;" class="s3" d="m485.2 515.5c0-12.9 12.2-23.3 27.4-23.3 11.6 0 21.6 6.1 25.6 14.8l1.6 2.7c3 10 13.8 17.4 26.5 17.4 11.8 0 21.9-6.3 25.8-15.2l0.8-2.3c3-10 13.8-17.4 26.6-17.4 11.6 0 21.5 6.1 25.5 14.8l1.6 2.7c3.1 10 13.8 17.4 26.6 17.4 12.1 0 22.3-6.6 26-15.8 0.4-1.1 0.8-2.2 1.4-3.2l1.9-3.6c4.6-7.3 13.7-12.3 24.2-12.3 11.6 0 21.6 6.1 25.6 14.8l1.6 2.7c3 10 13.8 17.4 26.5 17.4 11.8 0 21.9-6.3 25.8-15.2l0.8-2.3c3-10 13.8-17.4 26.6-17.4 11.6 0 21.5 6.1 25.5 14.8l1.6 2.7"/>
			<path id="&lt;Path&gt;" class="s4" d="m569.7 473.1l51-244.8c0.1-0.2 0.4-0.4 0.7-0.4l58.3-0.2 68.1-0.2c0.3 0 0.5 0.2 0.6 0.5l53.5 246"/>
			<path id="&lt;Path&gt;" class="s3" d="m633.6 297.2l114.7-69.7"/>
			<path id="&lt;Path&gt;" class="s3" d="m767.3 312.9l-164.3 96.4"/>
			<path id="&lt;Path&gt;" class="s3" d="m789.4 417.4l-87.4 56.6"/>
			<path id="&lt;Path&gt;" class="s3" d="m580.3 417.4l86.7 56.6"/>
			<path id="&lt;Path&gt;" class="s3" d="m633.6 331.1l155.5 86.4"/>
			<path id="&lt;Path&gt;" class="s3" d="m640.7 241.6l126.7 71.3"/>
			<path id="&lt;Path&gt;" class="s4" d="m712.6 179.8v47.8l-53.9-0.1v-47.8z"/>
			<path id="&lt;Path&gt;" class="s2" d="m589.3 38.2l-36.7 103.1c-7.2 20.2-30.6 31.2-52 24.4-21.4-6.8-33.1-28.9-25.9-49.1l37.7-105.8c0.7-2.1 3.1-3.2 5.3-2.4l68.6 24c2.5 0.9 3.8 3.4 3 5.8z"/>
			<path id="&lt;Path&gt;" class="s2" d="m721.2 127.9l136.6 44.9c0.8 0.3 1.3 1.2 1 2l-15 40.5c-0.3 0.8-1.2 1.2-2.1 0.9l-124.3-40.8"/>
			<path id="&lt;Path&gt;" class="s2" d="m643.8 151.2l-84.8-27.9 15.5-43.6 97.6 32.1"/>
			<path id="&lt;Path&gt;" class="s3" d="m841.7 216.2v257.2"/>
			<path id="&lt;Path&gt;" class="s3" d="m500.6 168.2v304.8"/>
			<path id="&lt;Path&gt;" class="s2" d="m664.8 32.9c-0.2-15.4 11.9-27.8 26.2-27.6 14.2 0.1 25.6 12.8 25.5 28.2q-1.8 23.2-25.2 46.5c-0.7 0.7-1.8 0.6-2.4-0.1-4.8-5.7-23.8-29.1-24.1-47z"/>
			<path id="&lt;Path&gt;" class="s2" d="m715.1 84.8c-0.9-0.2-1.3-1-1-1.8q7.6-17.2 20.2-23.7c8.7-3.9 18.7-1.2 22.3 6 3.6 7.2-0.5 16.4-9.4 20.1-9.8 4.1-26.9 0.6-32.1-0.6z"/>
			<ellipse id="&lt;Path&gt;" class="s4" cx="685.8" cy="149.3" rx="42" ry="39.7"/>
		</g>
		<g id="&lt;Group&gt;">
			<g id="&lt;Group&gt;">
				<path id="&lt;Path&gt;" class="s2" d="m194.2 368.9c-1.8-5.6-2.8-12.1-2.5-19.5 0.6-13.7 7.8-26.3 18.7-36.1 14.4-12.8 33.7-44.3 15-116.2q51.3 47.1 60.7 143.8 2 22.9-17.8 42c-23.1 22.3-64.5 15-74.1-14z"/>
				<path id="&lt;Path&gt;" class="s4" d="m254.9 384.2c-6.7 17.6-37.4 14.7-39.7-3.7-0.9-6.6 1.9-15.2 12.1-26.1q24.4-23.3 20.2-50.7 19.5 33.8 8.3 77.6-0.4 1.6-0.9 2.9z"/>
				<g id="&lt;Group&gt;">
					<path id="&lt;Path&gt;" class="s4" d="m360.9 834.6h-244l46.2-297.9h151.6z"/>
					<path id="&lt;Path&gt;" class="s4" d="m344.9 536.7h-212.8v-57.1h212.8z"/>
					<path id="&lt;Path&gt;" class="s4" d="m269.3 478.3h-61.6v-52.7h61.6z"/>
					<path id="&lt;Path&gt;" class="s3" d="m360.9 834.6l-221.7-141.4 175.5-156.5"/>
					<path id="&lt;Path&gt;" class="s3" d="m163.1 536.7l175.5 156.5-221.7 141.4"/>
				</g>
				<path id="&lt;Path&gt;" class="s2" d="m55.9 964.4v-96h33.2v-35.5h299.6v35.5h33.2v96"/>
				<path id="&lt;Path&gt;" class="s3" d="m238.9 376.7v573.2"/>
				<path id="&lt;Path&gt;" class="s3" d="m356.5 905.7l-82.9 24.2v-20.4l-80.9 31.3-10.2-26.2-61.2 22.3"/>
			</g>
			<path id="&lt;Path&gt;" class="s4" d="m207 268.1v1.1c0 18.8-15.4 34.2-34.3 34.2h-33.7v5.9c0 6.2-5.1 11.3-11.3 11.3h-42.1c-6.2 0-11.3-5.1-11.3-11.3 0-2.8 1-5.3 2.6-7.2-14.3-4.2-24.8-17.3-24.8-32.9v-1.1c0-18.8 15.4-34.2 34.2-34.2h5.2c3.2-18.1 19-31.9 38-31.9 19.1 0 34.9 13.8 38.1 31.9h5.1c18.9 0 34.3 15.4 34.3 34.2z"/>
			<path id="&lt;Path&gt;" class="s4" d="m457.9 411.2v1.1c0 18.8-15.4 34.2-34.2 34.2h-33.8v5.9c0 6.2-5.1 11.3-11.3 11.3h-42.1c-6.2 0-11.3-5.1-11.3-11.3 0-2.8 1-5.3 2.6-7.2-14.3-4.2-24.8-17.3-24.8-32.9v-1.1c0-18.8 15.4-34.2 34.3-34.2h5.1c3.2-18.1 19-31.9 38.1-31.9 19 0 34.8 13.8 38 31.9h5.2c18.8 0 34.2 15.4 34.2 34.2z"/>
		</g>
	</g>
</svg>