<svg version="1.2" xmlns="http://www.w3.org/2000/svg" viewBox="0 0 1012 1160" width="200" height="229">
	<title>CAEN2-svg</title>
	<style>
		.s0 { fill: none;stroke: #366088;stroke-linecap: round;stroke-linejoin: round;stroke-width: 10.5;stroke-dasharray: 53 } 
		.s1 { fill: #a4edf5 } 
		.s2 { fill: #d0fdff;stroke: #366088;stroke-linecap: round;stroke-linejoin: round;stroke-width: 10.5 } 
		.s3 { fill: #ffffff;stroke: #366088;stroke-linecap: round;stroke-linejoin: round;stroke-width: 10.5 } 
		.s4 { fill: none;stroke: #366088;stroke-linecap: round;stroke-linejoin: round;stroke-width: 10.5 } 
	</style>
	<g id="&lt;Group&gt;">
		<g id="&lt;Group&gt;">
			<path id="&lt;Path&gt;" class="s0" d="m28.7 807.4c-15.8-48.8-24.4-100.9-24.4-155 0-172.9 87.6-325.3 220.8-415.2"/>
			<path id="&lt;Path&gt;" class="s0" d="m867.2 998.1c-91.2 95.5-219.7 155-362.2 155q-24.2 0-47.7-2.3"/>
			<path id="&lt;Path&gt;" class="s0" d="m819.4 262.6c106.2 85.8 176.7 214.2 185.4 359.3q0.9 15.1 0.9 30.5"/>
			<circle id="&lt;Path&gt;" class="s1" cx="505" cy="652.4" r="367.6"/>
		</g>
		<g id="&lt;Group&gt;">
			<g id="&lt;Group&gt;">
				<g id="&lt;Group&gt;">
					<g id="&lt;Group&gt;">
						<path id="&lt;Path&gt;" class="s2" d="m522.9 4.9c36.3 0 65.7 29.4 65.7 65.7h-131.3c0-36.3 29.4-65.7 65.6-65.7z"/>
						<path id="&lt;Path&gt;" class="s3" d="m457.3 379.4v-308.8h131.3v308.8"/>
					</g>
					<g id="&lt;Group&gt;">
						<path id="&lt;Path&gt;" class="s2" d="m503.1 254.9l16-72.5 122-70 122.1 70 15.9 72.5"/>
						<path id="&lt;Path&gt;" class="s3" d="m533.6 392.8v-171.4h215v171.4z"/>
						<path id="&lt;Path&gt;" class="s2" d="m602.4 392.8v-124.3h77.4v124.3z"/>
						<circle id="&lt;Path&gt;" class="s3" cx="641.1" cy="172.7" r="21.3"/>
					</g>
				</g>
			</g>
			<g id="&lt;Group&gt;">
				<path id="&lt;Path&gt;" class="s2" d="m570.7 444.9h-344.2v-118.2c0-9.6 7.8-17.3 17.3-17.3h246.1l7.1-92.7c0.7-9.1-6.5-16.8-15.6-16.8h-102.4l7.6-21.8c2.4-6.7 8.7-11.2 15.9-11.2h117.7c14.3 0 26.3 11 27.5 25.3z"/>
				<path id="&lt;Path&gt;" class="s3" d="m497 216.7l-7.1 92.7h-149.5l38.6-109.5h102.4c9.1 0 16.3 7.7 15.6 16.8z"/>
				<g id="&lt;Group&gt;">
					<path id="&lt;Path&gt;" class="s4" d="m431.9 292.2l-33.8-33.7"/>
					<path id="&lt;Path&gt;" class="s4" d="m380.9 309.4l34.1-34.1"/>
				</g>
				<path id="&lt;Path&gt;" class="s2" d="m307.9 241.8v67.6h-46.2v-67.6z"/>
				<path id="&lt;Path&gt;" class="s4" d="m261.6 195.9h2.4c11.5 0 20.8 9.3 20.8 20.8v25.1"/>
				<circle id="&lt;Path&gt;" class="s3" cx="511.1" cy="410.8" r="103.5"/>
				<circle id="&lt;Path&gt;" class="s2" cx="511.1" cy="410.8" r="60.2"/>
				<circle id="&lt;Path&gt;" class="s3" cx="248.8" cy="448.7" r="65.6"/>
				<circle id="&lt;Path&gt;" class="s2" cx="248.8" cy="448.7" r="22.3"/>
			</g>
		</g>
		<g id="&lt;Group&gt;">
			<g id="&lt;Group&gt;">
				<g id="&lt;Group&gt;">
					<path id="&lt;Path&gt;" class="s3" d="m341.3 852.8h19.9c10.1 0 18.2 8.1 18.2 18.1v193.4c0 10.8-8.8 19.6-19.7 19.6h-120.3-129.6-37.1c-10.1 0-18.2-8.1-18.2-18.1v-194.9c0-10 8.1-18.1 18.2-18.1h13 97.7 39.4 38 42.5z"/>
					<path id="&lt;Path&gt;" class="s2" d="m239.4 1083.9h-129.6v-109.6c0-9.7 7.9-17.7 17.7-17.7h94.2c9.8 0 17.7 8 17.7 17.7z"/>
					<path id="&lt;Path&gt;" class="s3" d="m98.2 711.8l4.6-51.8c0.3-3.2 2.9-5.6 6.1-5.6h51.4c3.1 0 5.8 2.4 6 5.6l4.6 51.8"/>
					<path id="&lt;Path&gt;" class="s3" d="m173.8 744.1l9.6 108.7h-97.7l9.6-108.7"/>
					<path id="&lt;Path&gt;" class="s3" d="m260.8 852.8h-38v-96.7c0-4 3.2-7.2 7.2-7.2h23.6c4 0 7.2 3.2 7.2 7.2z"/>
					<path id="&lt;Path&gt;" class="s2" d="m173.8 744.1h-78.5l2.9-32.3h72.7z"/>
					<path id="&lt;Path&gt;" class="s3" d="m125.4 632.9v-40c0-9.2 7.4-16.6 16.6-16.6h113.1c9.2 0 16.6 7.4 16.6 16.6v12.6c0 9.2 7.4 16.6 16.5 16.6h103.6c9.1 0 16.6 7.4 16.6 16.6v11.7c0 9.2 7.4 16.6 16.5 16.6h46.1c9.1 0 16.5 7.4 16.5 16.6v17.4c0 9.2-7.4 16.6-16.5 16.6h-16c-9.1 0-16.5 7.4-16.5 16.6 0 9.1-7.4 16.5-16.6 16.5h-99.7c-9.1 0-16.5-7.4-16.5-16.5v-17.7c0-9.2-7.5-16.6-16.6-16.6h-61.2c-9.2 0-16.6-7.4-16.6-16.5v-42.2c0-9.1-7.4-16.5-16.6-16.5h-36.4"/>
				</g>
			</g>
			<g id="&lt;Group&gt;">
				<ellipse id="&lt;Path&gt;" class="s3" cx="391.9" cy="732" rx="41.4" ry="41.6"/>
				<ellipse id="&lt;Path&gt;" class="s3" cx="391.9" cy="732" rx="41.4" ry="41.6"/>
				<path id="&lt;Path&gt;" class="s2" d="m475.7 963.2c0.1 10.3-8.8 18.7-19.9 18.7h-0.1c-5.9 0-11.2-2.4-14.9-6.2l0.1 150.1c0 13.4-12.5 22.6-26.8 20.8q-17.7-2.2-21.2-20.2-3.2 20.3-22.8 20.2c-14.5-0.1-23.6-10.8-23.6-24.1l-0.1-150.3c-3.5 5.3-9.7 8.9-16.9 8.9-10.9 0.1-20.1-8.1-20.2-18.4l-1.2-120.8c-0.2-27.2 23.2-49.9 52.3-50.6h0.6q0.2 0 0.4 0l59.2 0.2q0.4 0 0.7 0c18.1 0 52.7 11.5 53.6 45.9z"/>
				<path id="&lt;Path&gt;" class="s4" d="m346.5 851.6l-0.1 120.6"/>
				<path id="&lt;Path&gt;" class="s4" d="m440.8 851.5v124.2"/>
				<path id="&lt;Path&gt;" class="s4" d="m392.8 970.3l0.1 156.1"/>
				<path id="&lt;Path&gt;" class="s3" d="m405.5 898l-12.7 14.2-12.7-14.2v-105h25.4z"/>
			</g>
		</g>
		<g id="&lt;Group&gt;">
			<path id="&lt;Path&gt;" class="s2" d="m780.1 498.1l202.3 150.4c6.4 4.8 3 14.9-4.9 14.9h-397.5c-7.9 0-11.3-10-5.1-14.8l195.2-150.4c2.9-2.2 7-2.3 10-0.1z"/>
			<g id="&lt;Group&gt;">
				<g id="&lt;Group&gt;">
					<path id="&lt;Path&gt;" class="s3" d="m836.2 711.8c0 2-0.3 3.9-0.8 5.7-2.4 7.8-9.7 13.4-18.3 13.4-1.9 0-3.8-0.3-5.5-0.8v148.7h-65v-148.7c-1.7 0.5-3.6 0.8-5.6 0.8-8.5 0-15.8-5.6-18.2-13.4q-0.9-2.7-0.9-5.7c0-10.5 8.6-19.1 19.1-19.1h76.1c10.6 0 19.1 8.6 19.1 19.1z"/>
					<path id="&lt;Path&gt;" class="s4" d="m811.6 730.1c-6.1-1.9-10.8-6.6-12.7-12.6"/>
					<path id="&lt;Path&gt;" class="s4" d="m759.3 717.5c-1.9 6-6.6 10.7-12.7 12.6"/>
				</g>
				<g id="&lt;Group&gt;">
					<path id="&lt;Path&gt;" class="s3" d="m981.5 711.8c0 10.6-8.6 19.1-19.2 19.1-1.9 0-3.8-0.3-5.5-0.8v148.7h-65v-148.7c-1.7 0.5-3.6 0.8-5.6 0.8-8.5 0-15.8-5.6-18.2-13.4-0.6-1.8-0.8-3.7-0.8-5.7 0-10.5 8.5-19.1 19-19.1h76.1c10.6 0 19.2 8.6 19.2 19.1z"/>
					<path id="&lt;Path&gt;" class="s4" d="m956.8 730.1c-6.1-1.9-10.8-6.6-12.7-12.6"/>
					<path id="&lt;Path&gt;" class="s4" d="m904.5 717.5c-1.9 6-6.6 10.7-12.7 12.6"/>
				</g>
				<g id="&lt;Group&gt;">
					<path id="&lt;Path&gt;" class="s3" d="m691 711.8c0 10.6-8.6 19.1-19.1 19.1-1.9 0-3.8-0.3-5.5-0.8v148.7h-65v-148.7c-1.8 0.5-3.6 0.8-5.6 0.8-8.6 0-15.8-5.6-18.2-13.4q-0.9-2.7-0.9-5.7c0-10.5 8.6-19.1 19.1-19.1h76.1c10.5 0 19.1 8.6 19.1 19.1z"/>
					<path id="&lt;Path&gt;" class="s4" d="m666.3 730.1c-6-1.9-10.7-6.6-12.6-12.6"/>
					<path id="&lt;Path&gt;" class="s4" d="m601.4 730.1c6.1-1.9 10.8-6.6 12.6-12.6"/>
				</g>
			</g>
			<g id="&lt;Group&gt;">
				<path id="&lt;Path&gt;" class="s2" d="m992.5 917.7v39.5h-426.9v-39.5h22.9v-38.9h381.2v38.9z"/>
			</g>
		</g>
	</g>
</svg>