<svg version="1.2" xmlns="http://www.w3.org/2000/svg" viewBox="0 0 386 378" width="200" height="196">
	<title>educateEmployees</title>
	<style>
		.s0 { fill: none;stroke: #366088;stroke-linecap: round;stroke-linejoin: round;stroke-width: 4;stroke-dasharray: 20 } 
		.s1 { fill: #a4edf5 } 
		.s2 { fill: #d0fdff;stroke: #366088;stroke-linecap: round;stroke-linejoin: round;stroke-width: 4 } 
		.s3 { fill: #ffffff;stroke: #366088;stroke-linejoin: round;stroke-width: 4 } 
		.s4 { fill: #ffffff;stroke: #366088;stroke-linecap: round;stroke-linejoin: round;stroke-width: 4 } 
		.s5 { fill: none;stroke: #366088;stroke-linecap: round;stroke-linejoin: round;stroke-width: 4 } 
	</style>
	<g id="&lt;Group&gt;">
		<g id="&lt;Group&gt;">
			<path id="&lt;Path&gt;" class="s0" d="m44.1 307.5c-24.3-31.7-38.7-71.3-38.7-114.2"/>
			<path id="&lt;Path&gt;" class="s0" d="m377.5 159.8c2 10.9 3 22.1 3 33.5 0 56.1-24.6 106.4-63.6 140.8"/>
			<path id="&lt;Path&gt;" class="s0" d="m160.4 8.5c10.6-1.8 21.4-2.8 32.5-2.8 12.3 0 24.2 1.2 35.8 3.4"/>
			<circle id="&lt;Path&gt;" class="s1" cx="192.9" cy="193.3" r="137.7"/>
		</g>
		<g id="&lt;Group&gt;">
			<g id="&lt;Group&gt;">
				<path id="&lt;Path&gt;" class="s2" d="m357.1 161.3c-3.8 9.5-9.4 18-16.4 25.3l-8.2 7.4c-13.4 10.4-30.2 16.7-48.5 16.7-6.3 0-12.4-0.7-18.2-2.1l-39-22.5c-13.4-14.1-21.6-33.2-21.6-54.2q0-2 0.1-4l40.7-65c6.8-3.7 14.2-6.5 22.1-8.1l0.5-0.1 30.7-0.1 0.5 0.2c18.3 3.7 34.3 13.8 45.6 27.8z"/>
				<path id="&lt;Path&gt;" class="s3" d="m299.3 90.1v28.6c9.1 5.3 15.3 15.1 15.3 26.4 0 16.9-13.7 30.6-30.6 30.6-16.9 0-30.6-13.7-30.6-30.6 0-11.3 6.1-21.1 15.2-26.4v-71.9h-8.5c-4 0-5.8-4.9-2.9-7.5l23.9-21.2c1.6-1.4 4.1-1.4 5.7 0l23.9 21.2c2.9 2.6 1.1 7.5-2.9 7.5h-8.5v51"/>
				<circle id="&lt;Path&gt;" class="s2" cx="284.2" cy="146.2" r="13.4"/>
				<path id="&lt;Path&gt;" class="s4" d="m284.2 132.8v-87.4"/>
				<path id="&lt;Path&gt;" class="s2" d="m242.2 133.9c4 4.1 2.8 11.1-0.7 15.5-1.3 1.7-2.9 3.2-3.6 5.1-0.8 2-0.6 4.2-1.1 6.3-0.8 3.2-3.6 6.1-7.1 5.6-1.4-0.1-2.8-0.9-3.5-2.1-1.5-2.2-0.4-4.3 0.1-6.3 0.8-3.1 0.1-6.8-2.6-8.5-1.5-1-3.4-1.2-5.1-1.9-1.7-0.7-3.3-2.3-2.8-4.1 0.6-2.1 3.5-2.4 5.1-3.9 2.9-2.4 1.1-7.5-2.1-9.4-3.3-1.8-7.2-1.7-11-2.1-1-0.1-1.5 0-2.5-0.2 1.4-28 17.5-52.2 40.7-65v0.1q12.3 11.5-3.7 26.9c-3 2.3-3.4 6.4-2.7 10 0.5 2 1.3 4.1 0.9 6.2-0.6 3.9-4.8 6-8.4 7.7-3.7 1.6-7.8 4.2-7.7 8.2 0 3.8 3.9 6.4 7.5 7.5 3.6 1.2 7.6 1.8 10.3 4.4z"/>
				<path id="&lt;Path&gt;" class="s2" d="m340.7 186.6q-3.9 4-8.2 7.4h-0.1l-12.6-4.7c-3.4-1.3-5.3-5.1-4-8.6 1.2-3.4 5.1-5.3 8.5-4l12 4.3c2.4 0.9 4.1 3 4.4 5.4z"/>
				<path id="&lt;Path&gt;" class="s2" d="m362.7 131.9c0 10.4-2 20.3-5.6 29.4l-0.1-0.1c-8.7-2.2-18.8-6.1-25-12.5-6.2-6.5-9.1-16.9-4.6-24.6 1.4-2.4 3.4-4.4 5-6.6 1.6-2.3 2.8-5.1 2.2-7.8-1-4.7-6.6-7.1-8.2-11.7-1.5-4.2 1.1-8.9 4.8-11.3 3.7-2.5 9.8-3.4 14.1-4.1h0.1c10.8 13.5 17.3 30.7 17.3 49.3z"/>
				<path id="&lt;Path&gt;" class="s2" d="m287.3 200.3c-3.9 7.1-17.7 1.1-21.5 8.2v0.1c-15.1-3.6-28.6-11.5-39-22.5h0.1c1.4-1.7 2.4-4.7 3.8-6.6 2.9-4 9.6-4.3 12.8-0.6 1.4 1.5 2.1 3.6 3.6 5 2.5 2.6 6.4 3 9.9 3.2l16.2 1.1c3.8 0.2 7.7 0.5 10.8 2.5 3.2 2 5.2 6.4 3.3 9.6z"/>
				<path id="&lt;Path&gt;" class="s5" d="m228.1 26.7c-3.3 3.3-3.3 8.6 0 11.9l1.2 1.4c3.3 3.2 3.3 8.5 0 11.8"/>
				<path id="&lt;Path&gt;" class="s5" d="m244.7 26.7c-3.2 3.3-3.2 8.6 0 11.9l1.2 1.4c3.3 3.2 3.3 8.5 0 11.8"/>
			</g>
			<g id="&lt;Group&gt;">
				<path id="&lt;Path&gt;" class="s2" d="m218.8 304.7q-12.5-21-4.8-52 3.9-15.3 16-15.8 5.9-10.4 21.1-7.4c6.1 1.2 13.9 4.6 18.5 12.4 7.5 12.6 13.5 38.3 0.8 63"/>
				<path id="&lt;Path&gt;" class="s2" d="m64.6 368.5v-46.2c0-8.4 6-15.6 14.2-17.2l18.6-3.5h18l18.7 3.5c8.2 1.6 14.2 8.8 14.2 17.2v46"/>
				<path id="&lt;Path&gt;" class="s2" d="m202.3 368.4v-46.1c0-8.4 6-15.6 14.2-17.2l18.7-3.5h18l18.6 3.5c8.2 1.6 14.2 8.8 14.2 17.2v46.2"/>
				<path id="&lt;Path&gt;" class="s4" d="m133.5 372.5v-26.1c0-8.4 5.9-15.6 14.2-17.1l18.6-3.6h18l18.6 3.6c8.3 1.5 14.2 8.7 14.2 17.1v26.1"/>
				<path id="&lt;Path&gt;" class="s2" d="m155.9 299q-13.9-9.3-10.1-25 3.7-15.3 15.3-13 4.8-11.6 20-8.6c6.1 1.2 14.3 5.5 18.2 12.4 5.7 10.1 4.9 27.4-4.6 34.2"/>
				<g id="&lt;Group&gt;">
					<path id="&lt;Path&gt;" class="s4" d="m184.3 315.9v9.8q-9.7 9.8-18 0v-9.8"/>
				</g>
				<g id="&lt;Group&gt;">
					<path id="&lt;Path&gt;" class="s4" d="m253.2 291.8v9.8q-9.8 9.8-18 0v-9.8"/>
				</g>
				<g id="&lt;Group&gt;">
					<path id="&lt;Path&gt;" class="s4" d="m115.4 291.8v9.8q-8.2 9.8-18 0v-9.8"/>
				</g>
				<path id="&lt;Path&gt;" class="s2" d="m87.7 280.8q-12.7-7-10.8-26.6c2.4-23.3 32.4-28.2 38.5-17 10.4-4.8 20.1 7.2 20.6 20.2 0.3 7.6-1.9 20-10.8 23.4"/>
				<path id="&lt;Path&gt;" class="s4" d="m194.7 284.1v16.2c0 9.4-7.6 16.9-16.9 16.9h-5c-9.3 0-16.9-7.5-16.9-16.9v-16.2q8.4-1.6 10.6-10.3c5.2 8.4 18.7 8.1 22.5 4.9q1.3 4.9 5.7 5.4z"/>
				<path id="&lt;Path&gt;" class="s4" d="m263.6 260v16.2c0 9.3-7.6 16.9-16.9 16.9h-5c-9.4 0-16.9-7.6-16.9-16.9v-16.2q8.4-1.7 10.5-10.3c5.7 9.2 17.2 13.3 28.3 10.3z"/>
				<path id="&lt;Path&gt;" class="s4" d="m115.3 249.7q2.1 8.6 10.5 10.3v16.2c0 9.3-7.5 16.9-16.8 16.9h-5.1c-9.3 0-16.8-7.6-16.8-16.9v-16.2c11 3 22.5-1.1 28.2-10.3z"/>
			</g>
			<g id="&lt;Group&gt;">
				<circle id="&lt;Path&gt;" class="s4" cx="108.6" cy="27.7" r="16.7"/>
				<path id="&lt;Path&gt;" class="s2" d="m85.6 111.4v15.1h-29.1v75.9h-18.5v-75.9h-12.9v-15.1z"/>
				<path id="&lt;Path&gt;" class="s4" d="m63 60.2h-40.8c-5.2 0-9.4-4.3-9.4-9.5v-12.7c0-5.2 4.2-9.4 9.4-9.4h60.2l-10 9.3v12.8c0 5.2-4.2 9.5-9.4 9.5z"/>
				<path id="&lt;Path&gt;" class="s5" d="m101.7 58.9l-2.4 25"/>
				<path id="&lt;Path&gt;" class="s2" d="m100.1 82.9l-10.9 14.9c-0.5 0.9-1.3 1.7-2.2 2.2l-19.2 11.4q-11.3 0-22.5 0c0-6.4 5.2-12 11.6-12q1.8 0 8.2 0l14.1-9.4 20.6-28.5 1.9-2.6z"/>
				<g id="&lt;Group&gt;">
					<path id="&lt;Path&gt;" class="s2" d="m131 190.7c6.6 0 11.9 5.3 11.9 11.9h-29.2l-1.7-53.7v-0.1 0.1q0 0 0 0-5 26.8-10.1 53.7h-28.8c0-6.6 6.9-11.9 13.5-11.9l13.5-75.7v-41.9c0-0.2 0-7.5 0-7.7 0.2-6.1 3.9-11.9 9.5-14.5 6.6-3 12.1-0.2 16.6 5q8.2 10.4 16.6 26.5 9.8-3.6 17.4-6.4l21.9-0.1c0 6.4-5.2 11.6-11.6 11.6-1.3 0-2.7-0.2-3.9-0.7q-0.5 0.4-24.3 9.3-1.1 0.3-2.2 0.3c-2.1 0-4.2-1.1-5.3-3l-3.8-6.2z"/>
				</g>
			</g>
		</g>
	</g>
</svg>