<svg version="1.2" xmlns="http://www.w3.org/2000/svg" viewBox="0 0 1203 1154" width="200" height="192">
	<title>electricity2-svg</title>
	<style>
		.s0 { fill: none;stroke: #366088;stroke-linecap: round;stroke-linejoin: round;stroke-width: 12.5;stroke-dasharray: 75 } 
		.s1 { fill: none;stroke: #366088;stroke-linecap: round;stroke-linejoin: round;stroke-width: 12.5;stroke-dasharray: 63 } 
		.s2 { fill: #a4edf5 } 
		.s3 { fill: #ffffff;stroke: #366088;stroke-linecap: round;stroke-linejoin: round;stroke-width: 12.5 } 
		.s4 { fill: #d0fdff;stroke: #366088;stroke-linecap: round;stroke-linejoin: round;stroke-width: 12.5 } 
		.s5 { fill: none;stroke: #366088;stroke-linecap: round;stroke-linejoin: round;stroke-width: 12.5 } 
	</style>
	<g id="&lt;Group&gt;">
		<g id="&lt;Group&gt;">
			<path id="&lt;Path&gt;" class="s0" d="m327.2 1125.5c-192-99.1-323.3-299.5-323.3-530.5"/>
			<path id="&lt;Path&gt;" class="s0" d="m1196 628.2c-12.5 228.6-153.8 423-352.6 511.7"/>
			<path id="&lt;Path&gt;" class="s1" d="m676.9 3.3c159 20.4 298.5 103.4 392.9 223.5"/>
			<circle id="&lt;Path&gt;" class="s2" cx="600.4" cy="595" r="438"/>
		</g>
		<g id="&lt;Group&gt;">
			<g id="&lt;Group&gt;">
				<path id="&lt;Path&gt;" class="s3" d="m439.3 596.7l9.6-381 35.5-8.4 8.2 371 0.5 18.4"/>
				<path id="&lt;Path&gt;" class="s4" d="m468 174.6l105.8-157.4 0.1-0.2c5.5-8.3 16.5-10.8 24.4-5.7 7.9 5.2 9.8 16.3 4.2 24.5l-69.4 136.8c-10.2 15.3-26.5 24.2-43.1 25.5"/>
				<path id="&lt;Path&gt;" class="s4" d="m449.1 207.8l-173-12.8h-0.2c-9.6-0.7-16.4-9.2-15.2-19 1.3-9.7 10.1-17.1 19.7-16.4l148.3-8.6c16.9 1.2 31 10.4 39.3 23.6"/>
				<path id="&lt;Path&gt;" class="s4" d="m485.5 208.3l74.3 164.7 0.1 0.2c4 8.6 0 19.4-8.8 23.9-8.8 4.5-19.3 1-23.2-7.7l-77.3-123.7c-7.6-16.8-5.6-36.1 3.6-51.6"/>
				<path id="&lt;Path&gt;" class="s3" d="m479.5 222c-14.1 7.4-30.8 2-37.3-12-6.4-14-0.2-31.3 14-38.6 14.2-7.3 30.9-2 37.3 12 6.5 14 0.2 31.3-14 38.6z"/>
			</g>
			<g id="&lt;Group&gt;">
				<path id="&lt;Path&gt;" class="s4" d="m37.2 396.2l43.1-67.3 139.1-102.8 139.2 102.8 43.1 67.3"/>
				<path id="&lt;Path&gt;" class="s4" d="m375 392v208.9 0.6h-311.1v-209.5"/>
				<path id="&lt;Path&gt;" class="s3" d="m274.1 601.5h-109.6v-164.2h109.6z"/>
				<path id="&lt;Path&gt;" class="s3" d="m274.1 353.3h-109.6v-42.8h109.6z"/>
			</g>
		</g>
		<g id="&lt;Group&gt;">
			<g id="&lt;Group&gt;">
				<path id="&lt;Path&gt;" class="s4" d="m775.9 835.8v310.9h-275.1-107.9v-310.9"/>
				<path id="&lt;Path&gt;" class="s3" d="m775.9 805.8h13.7c3.6 0 6.6 3 6.6 6.6v16.8c0 3.6-3 6.6-6.6 6.6h-13.7-383-13.7c-3.7 0-6.6-3-6.6-6.6v-16.8c0-3.6 2.9-6.6 6.6-6.6h13.7v0.1-23.7c0-3.7 3.1-6.7 6.8-6.7h26.2v-24.6c0-7.5 6.1-13.6 13.6-13.6h22.3c7.5 0 13.6 6.1 13.6 13.6v24.6h25.4v-51.8c0-15 12.2-27.2 27.2-27.2h112.8c15 0 27.2 12.2 27.2 27.2v51.8h25.4v-24.6c0-7.5 6-13.6 13.5-13.6h22.4c7.5 0 13.6 6.1 13.6 13.6v24.6h26.2c3.8 0 6.8 3 6.8 6.7v23.7z"/>
				<path id="&lt;Path&gt;" class="s5" d="m632.6 741.8h-96.4"/>
				<g id="&lt;Group&gt;">
					<path id="&lt;Path&gt;" class="s3" d="m763.4 1076.1c-8 0-15.9-3-21.9-9l-55.6-55.6c-12-12.1-12-31.6 0-43.7 12.1-12 31.6-12 43.7 0l33.8 33.8 89.9-90c12-12 31.6-12 43.7 0 12 12.1 12 31.7 0 43.7l-111.8 111.8c-6 6-13.9 9-21.8 9z"/>
				</g>
			</g>
			<path id="&lt;Path&gt;" class="s3" d="m549.7 1092.9l18.5-88.2h-34l84.8-115.2-18.5 88.6h34.1z"/>
		</g>
		<g id="&lt;Group&gt;">
			<g id="&lt;Group&gt;">
				<circle id="&lt;Path&gt;" class="s3" cx="948.6" cy="479.6" r="228"/>
				<path id="&lt;Path&gt;" class="s5" d="m793.1 533.7h82.5c26.6 0 48.2 21.6 48.2 48.2 0 26.6-21.6 48.2-48.2 48.2-26.6 0-48.3-21.6-48.3-48.2"/>
				<path id="&lt;Path&gt;" class="s5" d="m933 377c0-36 29.1-65.2 65.1-65.2 36 0 65.2 29.2 65.2 65.2 0 36-29.2 65.2-65.2 65.2h-205"/>
				<path id="&lt;Path&gt;" class="s5" d="m793.1 488.8h258.1c31 0 56.1 25.1 56.1 56.1 0 31-25.1 56.2-56.1 56.2-31 0-56.2-25.2-56.2-56.2"/>
			</g>
			<g id="&lt;Group&gt;">
				<path id="&lt;Path&gt;" class="s4" d="m794.8 173.9l98.3 53.5c1.1 0.7 1.9 1.9 1.9 3.2v106.7c0 1.3-0.8 2.5-1.9 3.2l-98.3 53.5c-1.1 0.6-2.3 0.6-3.4 0l-98.3-53.5c-1.2-0.7-1.9-1.9-1.9-3.2v-106.7c0-1.3 0.7-2.5 1.9-3.2l98.3-53.5c1.1-0.6 2.3-0.6 3.4 0z"/>
				<path id="&lt;Path&gt;" class="s3" d="m743.5 292.7l67.9-81.5c0.5-0.5 1.4-0.1 1.2 0.6l-15.3 61.5c-0.1 0.4 0.2 0.9 0.7 0.9l44.1 0.1c0.6 0 0.9 0.6 0.6 1.1l-67.9 81.3c-0.4 0.5-1.4 0.1-1.2-0.6l16.6-61.4c0.2-0.4-0.2-0.8-0.6-0.8l-45.5-0.2c-0.6 0-1-0.6-0.6-1z"/>
			</g>
		</g>
	</g>
</svg>