<svg version="1.2" xmlns="http://www.w3.org/2000/svg" viewBox="0 0 1045 1047" width="200" height="200">
	<title>employeeTransportation</title>
	<style>
		.s0 { fill: none;stroke: #366088;stroke-linecap: round;stroke-linejoin: round;stroke-width: 10.7;stroke-dasharray: 54 } 
		.s1 { fill: #a4edf5 } 
		.s2 { fill: #d0fdff;stroke: #366088;stroke-linecap: round;stroke-linejoin: round;stroke-width: 10.7 } 
		.s3 { fill: #ffffff;stroke: #366088;stroke-linecap: round;stroke-linejoin: round;stroke-width: 10.7 } 
		.s4 { fill: none;stroke: #366088;stroke-linecap: round;stroke-linejoin: round;stroke-width: 10.7 } 
	</style>
	<g id="&lt;Group&gt;">
		<path id="&lt;Path&gt;" class="s0" d="m391.7 20.3c40.3-10.2 82-15.4 124.2-15.4 17.7 0 35.6 0.9 53.2 2.7 87.4 9.1 167.5 39.8 235.4 86.3"/>
		<path id="&lt;Path&gt;" class="s0" d="m324.9 990.7c-205.8-83.3-341.2-295.3-317.2-527q1.6-15.5 4.1-30.8"/>
		<path id="&lt;Path&gt;" class="s0" d="m1010.9 385.4c15.5 58.3 20.8 120.2 14.3 183.6-13.1 126.7-72.5 243.2-167.3 328.1"/>
		<path id="&lt;Path&gt;" class="s1" d="m142.9 477.7c21.4-206.3 205.9-356.2 412.2-334.9 206.3 21.4 356.2 205.9 334.9 412.2-21.4 206.3-205.9 356.2-412.2 334.9-206.3-21.4-356.2-205.9-334.9-412.2z"/>
		<g id="&lt;Group&gt;">
			<g id="&lt;Group&gt;">
				<path id="&lt;Path&gt;" class="s2" d="m934.2 474.5v21.1c0 13.8-10.4 24.9-23.2 24.9h-29.3c-12.8 0-23.2-11.1-23.2-24.9v-21.1"/>
				<path id="&lt;Path&gt;" class="s2" d="m714.7 474.5v21.1c0 13.8-10.4 24.9-23.2 24.9h-29.3c-12.8 0-23.2-11.1-23.2-24.9v-21.1"/>
			</g>
			<path id="&lt;Path&gt;" class="s2" d="m620.1 195.5c7.7-18.6 17.3-37 25.5-51.5 10.4-18.5 29-29.8 49.1-29.8h183.8c20.1 0 38.7 11.3 49.1 29.8 8.2 14.5 17.8 32.9 25.5 51.5z"/>
			<path id="&lt;Path&gt;" class="s2" d="m966.6 240.3c0.5 3.7 0.8 7.3 0.8 10.7v189.5c0 18.8-14.1 34-31.6 34h-298.4c-17.5 0-31.6-15.2-31.6-34v-189.5q0-4.3 0.5-8.9"/>
			<path id="&lt;Path&gt;" class="s3" d="m966.6 240.3c-13.5 42.8-32 95.8-55 128.8-12.1 17.6-31.2 28-51.5 28h-147c-19.7 0-38.5-9.5-50.4-26.4-23.1-32.6-42.6-85.4-56.4-128.6 1.7-14 7-30.4 13.8-46.6h333c6.4 15.5 11.6 31.2 13.5 44.8z"/>
			<path id="&lt;Path&gt;" class="s2" d="m706.8 161.7h159.6v56.1h-159.6z"/>
			<g id="&lt;Group&gt;">
				<path id="&lt;Path&gt;" class="s2" d="m987.1 252c0-12 9-21.8 20.1-21.8h11.5c11.1 0 20.2 9.8 20.2 21.8v64.6c0 12-9.1 21.7-20.2 21.7h-11.5c-11.1 0-20.1-9.7-20.1-21.7"/>
				<path id="&lt;Path&gt;" class="s2" d="m586.1 326.7c0 12-9 21.7-20.2 21.7h-11.4c-11.2 0-20.2-9.7-20.2-21.7v-64.6c0-12 9-21.8 20.2-21.8h11.4c11.2 0 20.2 9.8 20.2 21.8"/>
			</g>
			<g id="&lt;Group&gt;">
				<path id="&lt;Path&gt;" class="s3" d="m881.5 450.5q7.1-36.2 36.7-49.9c12.5-5.8 26.2 4.6 26.2 19.2v10.3c0 10.3-7 19-16.5 20.4z"/>
				<path id="&lt;Path&gt;" class="s3" d="m645.3 450.5c-9.5-1.4-16.6-10.1-16.6-20.4v-10.3c0-14.6 13.8-25 26.2-19.2q29.7 13.7 36.8 49.9z"/>
			</g>
			<g id="&lt;Group&gt;">
				<path id="&lt;Path&gt;" class="s4" d="m754.7 335.7l49.8-77.1"/>
				<path id="&lt;Path&gt;" class="s4" d="m787.7 335.7l26.6-41.2"/>
			</g>
		</g>
		<g id="&lt;Group&gt;">
			<g id="&lt;Group&gt;">
				<path id="&lt;Path&gt;" class="s3" d="m285.3 558.6v-132.4h68.1v132.4"/>
				<path id="&lt;Path&gt;" class="s3" d="m353.4 16.5v120.1h-68.1v-120.1"/>
				<path id="&lt;Path&gt;" class="s2" d="m149.9 136.8c0-11.1 9.1-20.2 20.2-20.2h298.5c11.1 0 20.2 9.1 20.2 20.2v207c0 9.7-3.7 19-10.4 26.1l-68 71.8c-4.8 5-11.4 7.9-18.4 7.9h-145.3c-2.9 0-38.9-30.6-71.6-58.7-16-13.7-25.2-33.7-25.2-54.8z"/>
				<rect id="&lt;Path&gt;" class="s3" x="188.2" y="155.2" width="262.4" height="184.7" rx="15.2"></rect>
				<path id="&lt;Path&gt;" class="s4" d="m266.7 394.7h105.3"/>
				<g id="&lt;Group&gt;">
					<path id="&lt;Path&gt;" class="s2" d="m366.8 241.3q0.6 3.7 0.6 7.5c0 26.6-21.5 48.1-48 48.1-26.6 0-48.1-21.5-48.1-48.1 0-26.5 21.5-48 48.1-48 7.1 0 13.9 1.5 20 4.3"/>
					<path id="&lt;Path&gt;" class="s4" d="m357.9 220.2l-38.7 48.6-20.6-30.3"/>
				</g>
			</g>
			<g id="&lt;Group&gt;">
				<g id="&lt;Group&gt;">
					<path id="&lt;Path&gt;" class="s2" d="m36.3 219.1c1.8-14.6 14.2-25.9 29.3-25.9h137c15.1 0 27.6 11.3 29.4 25.9"/>
					<path id="&lt;Path&gt;" class="s2" d="m232.2 545.7c0 16.3-13.3 29.6-29.6 29.6h-137c-16.3 0-29.6-13.3-29.6-22.7v-6.9"/>
					<path id="&lt;Path&gt;" class="s3" d="m232.2 222.8v322.9h-196.2v-322.9q0-1.9 0.3-3.7h91.3 104.4q0.2 1.8 0.2 3.7z"/>
				</g>
				<g id="&lt;Group&gt;">
					<path id="&lt;Path&gt;" class="s2" d="m195 262.9c1.7 0 3 1.3 3 3v230c0 1.6-1.3 2.9-3 2.9h-29.7c-1.5 0-2.7-1.1-2.9-2.6-1.3-14.5-13.5-25.8-28.3-25.8-14.8 0-27 11.3-28.3 25.8-0.1 1.5-1.4 2.6-2.9 2.6h-29.7c-1.6 0-2.9-1.3-2.9-2.9v-230c0-1.7 1.3-3 2.9-3h29.7c1.5 0 2.8 1.1 2.9 2.6 1.3 14.5 13.5 25.9 28.3 25.9 14.8 0 27-11.4 28.3-25.9 0.2-1.5 1.4-2.6 2.9-2.6z"/>
					<path id="&lt;Path&gt;" class="s3" d="m70.3 439.7h25.8"/>
					<path id="&lt;Path&gt;" class="s3" d="m121.2 439.7h25.9"/>
					<path id="&lt;Path&gt;" class="s3" d="m172.1 439.7h25.9"/>
					<g id="&lt;Group&gt;">
						<path id="&lt;Path&gt;" class="s4" d="m153.6 341.8v-3c0-6.5-5.3-11.8-11.8-11.8h-15.4c-6.5 0-11.7 5.3-11.7 11.8v10.7c0 6.5 5.2 11.7 11.7 11.7h15.4c6.5 0 11.8 5.3 11.8 11.8v10.7c0 6.5-5.3 11.7-11.8 11.7h-15.4c-6.5 0-11.7-5.2-11.7-11.7v-3"/>
						<g id="&lt;Group&gt;">
							<g id="&lt;Group&gt;">
								<path id="&lt;Path&gt;" class="s4" d="m134.1 327v-9.6"/>
							</g>
							<g id="&lt;Group&gt;">
								<path id="&lt;Path&gt;" class="s4" d="m134.1 405.1v-9.7"/>
							</g>
						</g>
					</g>
				</g>
			</g>
		</g>
		<g id="&lt;Group&gt;">
			<path id="&lt;Path&gt;" class="s3" d="m830.7 642.1v311.5h-462.8v-82.2-164.4-64.9"/>
			<path id="&lt;Path&gt;" class="s2" d="m798.7 585.9c29.4 0 53.3 23.8 53.3 53.2v3h-505.8v-3c0-29.4 23.9-53.2 53.3-53.2z"/>
			<path id="&lt;Path&gt;" class="s2" d="m791.8 900.7v14h-30.3v77.8h-17.3v-77.8h-160v77.8h-17.3v-77.8h-30.3v-14c0-6.6 5.4-12 12-12h231.2c6.6 0 12 5.4 12 12z"/>
			<g id="&lt;Group&gt;">
				<path id="&lt;Path&gt;" class="s3" d="m398.1 1014.2v-153.3h21.7v153.3"/>
				<rect id="&lt;Path&gt;" class="s2" x="320.3" y="707" width="181.7" height="164.4" rx="1.1"></rect>
				<path id="&lt;Path&gt;" class="s3" d="m453.9 815.2c0.9 1.7 1.4 3.7 1.4 5.8 0 7.2-5.9 13-13 13-7.2 0-13-5.8-13-13 0-2.1 0.5-4.1 1.4-5.8"/>
				<path id="&lt;Path&gt;" class="s3" d="m389 815.2c0.9 1.7 1.4 3.7 1.4 5.8 0 7.2-5.8 13-13 13-7.2 0-13-5.8-13-13 0-2.1 0.5-4.1 1.4-5.8"/>
				<path id="&lt;Path&gt;" class="s3" d="m471.3 815.2h-124.6c-0.3 0-0.5-0.2-0.5-0.5v-58.4c0-0.9 0.8-1.7 1.8-1.7h122c0.9 0 1.7 0.8 1.7 1.7v58.4c0 0.3-0.2 0.5-0.4 0.5z"/>
				<path id="&lt;Path&gt;" class="s4" d="m471.7 789.2h-20.9c-5.2 0-9.4-4.2-9.4-9.4v-25.2"/>
				<path id="&lt;Path&gt;" class="s4" d="m419.8 754.6v27.7c0 3.8-3.1 6.9-6.9 6.9h-41.8c-4.2 0-7.6-3.4-7.6-7.6v-27"/>
				<path id="&lt;Path&gt;" class="s2" d="m372.2 1040.1v-16.8c0-5 4.1-9.1 9.1-9.1h55.3c5 0 9.1 4.1 9.1 9.1v16.8z"/>
			</g>
			<path id="&lt;Path&gt;" class="s4" d="m683.7 642.1v186"/>
			<path id="&lt;Path&gt;" class="s4" d="m536.6 642.1v186"/>
		</g>
	</g>
</svg>