<svg version="1.2" xmlns="http://www.w3.org/2000/svg" viewBox="0 0 1500 1440" width="200" height="192">
	<title>&lt;Group&gt;</title>
	<style>
		.s0 { fill: #8ce9f9;stroke: #011049;stroke-linecap: round;stroke-linejoin: round;stroke-width: 26.3 } 
		.s1 { fill: #87e573;stroke: #011049;stroke-linecap: round;stroke-linejoin: round;stroke-width: 26.3 } 
		.s2 { fill: none;stroke: #011049;stroke-linecap: round;stroke-linejoin: round;stroke-width: 26.3 } 
		.s3 { fill: #ffea90;stroke: #011049;stroke-linecap: round;stroke-linejoin: round;stroke-width: 26.3 } 
	</style>
	<g id="&lt;Group&gt;">
		<path id="&lt;Path&gt;" class="s0" d="m1109.9 285.4c-46.4 0-83.4-40.2-78-87.6 3.8-34.3 30.7-62.7 64.7-68.3 9.5-1.6 18.7-1.5 27.4 0.1 17.2 3.2 33.8-5.3 42-20.7 13.2-24.9 39.3-41.8 69.4-41.8 30 0 56.2 16.9 69.3 41.8 8.2 15.4 24.8 23.9 42 20.7 8.7-1.6 17.9-1.7 27.4-0.1 34 5.6 60.9 34 64.7 68.3 5.4 47.4-31.6 87.6-78 87.6z"/>
		<path id="&lt;Path&gt;" class="s0" d="m552.7 186.4c-38.2 0-68.7-33.1-64.3-72.2 3.2-28.2 25.3-51.6 53.3-56.3 7.9-1.3 15.5-1.1 22.7 0.2 14.1 2.6 27.8-4.4 34.5-17.1 10.9-20.5 32.4-34.5 57.2-34.5 24.8 0 46.3 14 57.1 34.5 6.8 12.7 20.5 19.7 34.6 17.1 7.2-1.3 14.8-1.5 22.6-0.2 28 4.7 50.2 28.1 53.3 56.3 4.4 39.1-26 72.2-64.2 72.2z"/>
		<path id="&lt;Path&gt;" class="s1" d="m1106.2 570.8c31.1-0.1 77 7.2 107.7 12.3l161.2 26.9c43.4 11.5 83.4 25.3 119 41v716.2c0 36-29.3 65.3-65.4 65.2l-1358-4.2c-35.9-0.1-65-29.3-65-65.2v-827.1c106.3-41.5 257.7-67.4 425.7-67.4 216.6 0 405.6 43.1 505.9 107q125.4-4.6 168.9-4.7z"/>
		<path id="&lt;Path&gt;" class="s2" d="m433.9 817.8c24.9-121.5 233.3-220 503.4-242.3 37.5-3.1 76.2-4.7 115.8-4.7 51.1 0 100.7 2.7 148.2 7.8"/>
		<path id="&lt;Path&gt;" class="s2" d="m5.7 986.1c74.1-67.2 208.1-123.1 377.7-158.6 126.6-26.6 273.2-41.7 429.2-41.7 276.1 0 522.1 47.4 681.6 121.3"/>
		<path id="&lt;Path&gt;" class="s2" d="m5.7 1158.4c1.9-0.5 3.6-1.1 5.5-1.6 123.8-36.6 268.6-57.5 423.3-57.5 401.5 0 736.1 141.3 811 328.7"/>
		<path id="&lt;Path&gt;" class="s2" d="m53 622.5h61.2"/>
		<path id="&lt;Path&gt;" class="s2" d="m282.1 680.6h61.2"/>
		<path id="&lt;Path&gt;" class="s2" d="m464.2 570.8h61.3"/>
		<path id="&lt;Path&gt;" class="s2" d="m1401.9 1039.5h-61.3"/>
		<path id="&lt;Path&gt;" class="s2" d="m1462.7 1295.5h-61.2"/>
		<path id="&lt;Path&gt;" class="s2" d="m1131.9 1080.1h-61.2"/>
		<path id="&lt;Path&gt;" class="s2" d="m275.3 992.1h61.2"/>
		<path id="&lt;Path&gt;" class="s2" d="m562.7 936.4h61.3"/>
		<path id="&lt;Path&gt;" class="s2" d="m904.3 1312.5h-61.3"/>
		<path id="&lt;Path&gt;" class="s2" d="m525.5 1224.7h-61.3"/>
		<path id="&lt;Path&gt;" class="s2" d="m144.7 1367.7h-61.3"/>
		<path id="&lt;Path&gt;" class="s2" d="m922.7 683.8h-61.3"/>
		<path id="&lt;Path&gt;" class="s3" d="m341.6 208.8c1.3-0.1 2.5-0.2 3.8-0.2 25.4 0 45.9 20.5 45.9 45.9 0 10.5-3.5 20.1-9.4 27.8 8.6 8.4 14 20 14 33 0 25.4-20.6 45.9-46 45.9-3.4 0-6.7-0.4-10-1.1-5.4 19.4-23.1 33.6-44.2 33.6-21.1 0-38.8-14.2-44.2-33.6-3.2 0.7-6.6 1.1-10 1.1-25.4 0-45.9-20.5-45.9-45.9 0-13 5.3-24.6 13.9-33-5.9-7.7-9.4-17.3-9.4-27.8 0-25.4 20.6-45.9 46-45.9 1.2 0 2.5 0.1 3.7 0.2 0.7-24.9 20.9-44.8 45.9-44.8 25 0 45.3 19.9 45.9 44.8z"/>
		<path id="&lt;Path&gt;" class="s2" d="m295.7 393.7v79.5"/>
		<path id="&lt;Path&gt;" class="s3" d="m1325.6 568.5c1.3-0.1 2.5-0.2 3.8-0.2 25.4 0 45.9 20.6 45.9 46 0 10.4-3.5 20-9.4 27.8 8.6 8.3 14 20 14 32.9 0 25.4-20.6 46-46 46-3.4 0-6.7-0.4-10-1.1-5.4 19.3-23.1 33.6-44.2 33.6-21.1 0-38.8-14.3-44.2-33.6-3.2 0.7-6.6 1.1-10 1.1-25.4 0-45.9-20.6-45.9-46 0-12.9 5.3-24.6 13.9-32.9-5.9-7.8-9.4-17.4-9.4-27.8 0-25.4 20.6-46 45.9-46 1.3 0 2.6 0.1 3.8 0.2 0.7-24.8 20.9-44.8 45.9-44.8 25 0 45.3 20 45.9 44.8z"/>
		<path id="&lt;Path&gt;" class="s2" d="m1279.7 753.5v79.5"/>
		<path id="&lt;Path&gt;" class="s3" d="m895 889.2c1.2-0.1 2.5-0.2 3.8-0.2 25.4 0 45.9 20.5 45.9 45.9 0 10.5-3.5 20.1-9.4 27.8 8.6 8.4 14 20 14 33 0 25.4-20.6 45.9-46 45.9-3.4 0-6.7-0.4-10-1.1-5.4 19.4-23.1 33.6-44.2 33.6-21.1 0-38.8-14.2-44.2-33.6-3.2 0.7-6.6 1.1-10 1.1-25.4 0-45.9-20.5-45.9-45.9 0-13 5.3-24.6 13.9-33-5.9-7.7-9.4-17.3-9.4-27.8 0-25.4 20.6-45.9 45.9-45.9 1.3 0 2.6 0.1 3.8 0.2 0.7-24.9 20.9-44.8 45.9-44.8 25 0 45.3 19.9 45.9 44.8z"/>
		<path id="&lt;Path&gt;" class="s2" d="m849.1 1074.1v79.5"/>
	</g>
</svg>