<svg version="1.2" xmlns="http://www.w3.org/2000/svg" viewBox="0 0 1124 1213" width="200" height="216">
	<title>globalWarming</title>
	<style>
		.s0 { fill: none;stroke: #366088;stroke-linecap: round;stroke-linejoin: round;stroke-width: 11.3;stroke-dasharray: 57 } 
		.s1 { fill: none;stroke: #366088;stroke-linecap: round;stroke-linejoin: round;stroke-width: 11.3;stroke-dasharray: 68 } 
		.s2 { fill: #a4edf5 } 
		.s3 { fill: #ffffff;stroke: #366088;stroke-linecap: round;stroke-linejoin: round;stroke-width: 11.3 } 
		.s4 { fill: #d0fdff;stroke: #366088;stroke-linecap: round;stroke-linejoin: round;stroke-width: 11.3 } 
		.s5 { fill: none;stroke: #366088;stroke-linecap: round;stroke-linejoin: round;stroke-width: 11.3 } 
	</style>
	<g id="&lt;Group&gt;">
		<g id="&lt;Group&gt;">
			<path id="&lt;Path&gt;" class="s0" d="m54.9 893.4c-31.5-68.6-49.1-144.8-49.1-225.2 0-22.4 1.3-44.4 4-66"/>
			<path id="&lt;Path&gt;" class="s0" d="m993.4 967.4c-96.7 144.6-261.5 239.9-448.5 239.9-49.9 0-98.2-6.8-144-19.5"/>
			<path id="&lt;Path&gt;" class="s1" d="m544.9 129.1c161.9 0 307.2 71.4 406 184.4"/>
			<circle id="&lt;Path&gt;" class="s2" cx="544.9" cy="668.2" r="395.8"/>
		</g>
		<g id="&lt;Group&gt;">
			<g id="&lt;Group&gt;">
				<path id="&lt;Path&gt;" class="s3" d="m413.7 636.6l9.6-377.3 0.1-3.9 6.3-1.5 1.6-0.3 16.6-4 11.6-2.7 1.1 54.7 7.3 319.3 0.3 15.7"/>
				<path id="&lt;Path&gt;" class="s4" d="m429.7 216.2l6.1-192.8v-0.2c0.3-10.2 8.4-18.3 18-18.1 9.6 0.2 17.1 8.7 16.8 18.8l14.2 155.3c-0.6 18.7-9.8 35.2-23.4 45.3"/>
				<path id="&lt;Path&gt;" class="s4" d="m431.4 255l-155.9 82.5-0.2 0.1c-8.6 4.5-19.1 0.9-23.3-8.2-4.2-9.1-0.6-20.2 8-24.8l123.2-87.6c15.2-8 32.3-7.7 46.5-0.8"/>
				<path id="&lt;Path&gt;" class="s4" d="m463.1 235.7l153 101.6 0.2 0.2c8.1 5.3 10.4 16.8 5.3 25.4-5.2 8.6-16 11.3-24.1 5.9l-133.5-64.8c-15.6-10.4-24.3-28-24.8-46.3"/>
				<path id="&lt;Path&gt;" class="s3" d="m459.5 246.9c-6.2 10.6-19.3 13.9-29.2 7.5-9.8-6.5-12.8-20.3-6.6-30.8 6.2-10.6 19.3-13.9 29.2-7.4 9.9 6.4 12.8 20.2 6.6 30.7z"/>
			</g>
			<g id="&lt;Group&gt;">
				<path id="&lt;Path&gt;" class="s4" d="m183.9 636.8v-56.6h63v56.5"/>
				<path id="&lt;Path&gt;" class="s4" d="m351 394.2l23.7 182.7c0.2 1.3-0.9 2.3-2.2 2.3h-313.3c-1.3 0-2.4-1.1-2.2-2.4l32.8-182.7c0.2-1 1.1-1.7 2.2-1.7h256.8c1.1 0 2 0.8 2.2 1.8z"/>
				<path id="&lt;Path&gt;" class="s5" d="m175.1 392.4l-17.7 186.8"/>
				<path id="&lt;Path&gt;" class="s5" d="m279 579.2l-12.8-186.8"/>
				<path id="&lt;Path&gt;" class="s5" d="m362.4 482.1h-288.3"/>
			</g>
			<path id="&lt;Path&gt;" class="s5" d="m535.4 636.5l-109.7 0.1-327.4 0.2"/>
			<g id="&lt;Group&gt;">
				<circle id="&lt;Path&gt;" class="s4" cx="481.9" cy="603" r="81"/>
				<path id="&lt;Path&gt;" class="s4" d="m523.1 580.8l-48.4 48.3-30.1-30.1"/>
			</g>
		</g>
		<g id="&lt;Group&gt;">
			<path id="&lt;Path&gt;" class="s3" d="m989.4 850.8h-290.6c-10.1 0-18.3-8.2-18.3-18.3v-197c0-10.1 8.2-18.3 18.3-18.3h291.7c10.1 0 18.3 8.2 18.3 18.3v195.9c0 10.7-8.7 19.4-19.4 19.4z"/>
			<path id="&lt;Path&gt;" class="s4" d="m867.4 850.8h-131v-113.3c0-8.5 6.8-15.3 15.2-15.3h100.5c8.4 0 15.3 6.8 15.3 15.3z"/>
			<path id="&lt;Path&gt;" class="s3" d="m793.5 422.4l17.2 194.8h-98.6l17.2-194.8c0.2-3.2 2.9-5.6 6.1-5.6h52c3.2 0 5.8 2.4 6.1 5.6z"/>
			<path id="&lt;Path&gt;" class="s5" d="m724.6 474.8h73.5"/>
			<path id="&lt;Path&gt;" class="s4" d="m889 617.2h-38.4v-98.7c0-3.5 2.7-6.2 6.2-6.2h26c3.4 0 6.2 2.7 6.2 6.2z"/>
			<path id="&lt;Path&gt;" class="s4" d="m970.3 617.2h-38.4v-65c0-3.4 2.7-6.2 6.2-6.2h26c3.4 0 6.2 2.8 6.2 6.2z"/>
			<path id="&lt;Path&gt;" class="s4" d="m752.1 395v-40.4c0-9.3 7.5-16.7 16.8-16.7h114.3c9.3 0 16.8 7.4 16.8 16.7v12.8c0 9.2 7.5 16.7 16.7 16.7h104.6c9.3 0 16.8 7.5 16.8 16.8v11.9c0 9.2 7.5 16.7 16.7 16.7h46.6c9.2 0 16.7 7.5 16.7 16.8v17.6c0 9.2-7.5 16.7-16.7 16.7h-16.1c-9.3 0-16.8 7.5-16.8 16.8 0 9.2-7.5 16.7-16.7 16.7h-100.8c-9.2 0-16.7-7.5-16.7-16.7v-17.9c0-9.2-7.5-16.7-16.7-16.7h-61.9c-9.3 0-16.8-7.5-16.8-16.8v-42.5c0-9.3-7.5-16.8-16.7-16.8h-36.8"/>
			<g id="&lt;Group&gt;">
				<circle id="&lt;Path&gt;" class="s4" cx="1004.5" cy="808.3" r="80.8"/>
				<g id="&lt;Group&gt;">
					<path id="&lt;Path&gt;" class="s3" d="m972 775.8l64.9 64.9"/>
					<path id="&lt;Path&gt;" class="s3" d="m1036.9 775.8l-64.9 64.9"/>
				</g>
			</g>
		</g>
		<g id="&lt;Group&gt;">
			<g id="&lt;Group&gt;">
				<path id="&lt;Path&gt;" class="s3" d="m614.1 977.7v3.8c0 64.9-53.1 118.1-118 118.1h-116.3v20c0 21.5-17.6 39.1-39 39.1h-145.3c-21.4 0-39-17.6-39-39.1 0-9.4 3.4-18 8.9-24.8-49.1-14.2-85.3-59.7-85.3-113.3v-3.8c0-64.9 53.1-118 118-118h17.8c10.9-62.6 65.5-110.1 131.2-110.1 65.7 0 120.3 47.5 131.2 110.1h17.8c64.9 0 118 53.1 118 118z"/>
				<rect id="&lt;Path&gt;" class="s3" x="330.2" y="900.7" width="92.2" height="139.7" rx="32.3"></rect>
				<rect id="&lt;Path&gt;" class="s3" x="209.5" y="900.7" width="92.2" height="139.7" rx="32.3"></rect>
				<g id="&lt;Group&gt;">
					<path id="&lt;Path&gt;" class="s3" d="m460.1 958.3h57.3v46.2h-2.8-53-1.5v46.2h57.3"/>
				</g>
			</g>
			<g id="&lt;Group&gt;">
				<g id="&lt;Group&gt;">
					<path id="&lt;Path&gt;" class="s4" d="m618.2 1054.8c-16.9 0-30.6-13.7-30.6-30.6v-171.4c0-16.9 13.7-30.6 30.6-30.6 16.9 0 30.6 13.7 30.6 30.6v171.4c0 16.9-13.7 30.6-30.6 30.6z"/>
				</g>
				<g id="&lt;Group&gt;">
					<path id="&lt;Path&gt;" class="s4" d="m618.2 1167.5c-16.9 0-30.6-13.7-30.6-30.6v-8.4c0-16.9 13.7-30.6 30.6-30.6 16.9 0 30.6 13.7 30.6 30.6v8.4c0 16.9-13.7 30.6-30.6 30.6z"/>
				</g>
			</g>
		</g>
	</g>
</svg>