<svg version="1.2" xmlns="http://www.w3.org/2000/svg" viewBox="0 0 1100 1234" width="200" height="224">
	<title>greenhouseGas</title>
	<style>
		.s0 { fill: none;stroke: #366088;stroke-linecap: round;stroke-linejoin: round;stroke-width: 10.9;stroke-dasharray: 55 } 
		.s1 { fill: #a4edf5 } 
		.s2 { fill: #ffffff;stroke: #366088;stroke-linecap: round;stroke-linejoin: round;stroke-width: 10.9 } 
		.s3 { fill: #d0fdff;stroke: #366088;stroke-linecap: round;stroke-linejoin: round;stroke-width: 10.9 } 
		.s4 { fill: none;stroke: #366088;stroke-linecap: round;stroke-linejoin: round;stroke-width: 10.9 } 
		.s5 { fill: #ffffff } 
		.s6 { fill: #d0fdff } 
	</style>
	<g id="&lt;Group&gt;">
		<path id="&lt;Path&gt;" class="s0" d="m9.6 749.7c-4.7-39.3-5.1-79.8-0.9-120.9 19.8-191.2 136.3-348.9 295.9-429.6"/>
		<path id="&lt;Path&gt;" class="s0" d="m865.1 1127.7c-104 74.1-234.4 112.1-371.4 97.9-91.1-9.4-174.6-40.8-245.8-88.3"/>
		<path id="&lt;Path&gt;" class="s0" d="m886.7 257.9c141 111.6 223.8 290.7 203.9 482.8-3.6 34.4-10.3 67.8-19.8 99.8"/>
		<g id="&lt;Group&gt;">
			<path id="&lt;Path&gt;" class="s1" d="m152.5 643.6c22.7-219.3 218.9-378.7 438.3-356 219.3 22.7 378.7 218.9 356 438.2-22.7 219.4-218.9 378.8-438.2 356.1-219.4-22.7-378.8-218.9-356.1-438.3z"/>
		</g>
		<g id="&lt;Group&gt;">
			<path id="&lt;Path&gt;" class="s2" d="m173.5 708c1-37.4 31.8-67.6 69.4-67.6h27.8c4.2-49.1 45.3-87.7 95.5-87.7 50.2 0 91.4 38.6 95.6 87.7h27.8c38.2 0 69.4 31.2 69.4 69.4 0 38.2-31.2 69.4-69.4 69.4h-202.9"/>
			<path id="&lt;Path&gt;" class="s2" d="m49.2 834.2c-7.6-5.4-13.2-15.7-13.2-25.7 0-16.3 13.3-29.7 29.7-29.7h36.1q0 0 0 0c-0.8-2.5-1.2-5.1-1.2-7.8 0-14.4 11.7-26 26-26h25.6c0-23.2 18.8-42 42.1-42 23.2 0 42 18.8 42 42h25.6c14.3 0 26 11.6 26 26 0 14.4-11.7 26.1-26 26.1h-23.5c1.4 3.5 2.2 7.2 2.2 11.2 0 10.5-5.4 20.3-13.5 25.8"/>
			<g id="&lt;Group&gt;">
				<path id="&lt;Path&gt;" class="s3" d="m246.9 1071.2c8.4-29.9 15.2-63.2 19.4-98.5 6-49.3 6.4-95.8 2.1-135-0.2-2 1.6-3.6 4-3.6h18.4 157.8c2.4 0 4.3 1.7 4 3.7-6.2 42.1-6.6 93.9 0.2 149.6 4.5 36.9 11.6 71.7 20.7 102.7 2.7 9.4-4.3 18.8-14.2 18.8h-221.6"/>
				<path id="&lt;Path&gt;" class="s3" d="m33.8 1108.9c-10 0-17.1-9.8-14.1-19.4 11.1-34.3 19.9-74.1 25.1-116.8 6-49.3 6.3-95.8 2-135-0.2-2 1.7-3.6 4-3.6h18.4 157.9c2.4 0 4.2 1.7 3.9 3.7-6.1 42.1-6.5 93.9 0.2 149.6 4.5 36.9 11.7 71.7 20.7 102.7 2.8 9.4-4.3 18.8-14.2 18.8z"/>
				<path id="&lt;Path&gt;" class="s4" d="m49 864.8h144.1"/>
				<circle id="&lt;Path&gt;" class="s2" cx="135.4" cy="962.5" r="42.1"/>
				<path id="&lt;Path&gt;" class="s4" d="m270.6 864.8h144.1"/>
				<circle id="&lt;Path&gt;" class="s2" cx="357" cy="962.5" r="42.1"/>
			</g>
			<rect id="&lt;Path&gt;" class="s4" x="369.3" y="648" width="59.1" height="89.5" rx="20.7"></rect>
			<rect id="&lt;Path&gt;" class="s4" x="291.9" y="648" width="59.1" height="89.5" rx="20.7"></rect>
			<path id="&lt;Path&gt;" class="s4" d="m449.2 703.9c0-6.1 4.9-11 11-11h10.6c6.1 0 11 4.9 11 11v4.1c0 6-4.9 10.9-11 10.9l-10.6-0.1c-6.1 0-11 4.9-11 11v15h32.6"/>
		</g>
		<g id="&lt;Group&gt;">
			<g id="&lt;Group&gt;">
				<g id="&lt;Group&gt;">
					<path id="&lt;Path&gt;" class="s5" d="m633.3 893.4q-6.9-12.4-9.1-20.5c-10.3-29-11.4-60.4-4.9-90.5 4-18.2 10.2-56.2 22.1-87.9 1.8-4.6 7.9-5.3 10.8-1.4 3.5 4.8 7.8 11.1 11.5 17.5q-0.5-72.1 84.5-161c0.3-0.3 0.8-0.3 1.2 0 3.8 4.5 26.5 31.5 52.6 69.9 5.5-12 12.2-23.7 19.6-34.9 2.8-4.3 9.3-3.5 11 1.4 3.1 8.7 8.7 16.1 17.3 18.4 12.2 3.2 24.9-6 30-17.6 3.8-8.6 4.4-18 4.3-27.5-0.1-4.6 4.9-7.7 9-5.5 34.2 18.2 123.3 85 99.2 258.6 6.7 15.6 11.9 35.2 11.4 58.4-0.3 13.2 16.8 19.1 24.6 8.5q0.1-0.1 0.1-0.2c3.9-5.3 12.3-3.5 13.3 3 4 26.2-1.8 69.5-59.9 131.7"/>
				</g>
				<path id="&lt;Path&gt;" class="s4" d="m925.4 810.3c9.8-11.3 21.6-23.3 34-34.7 3-2.7 7.6-2.4 10.3 0.6 10.8 12.3 35.1 45.6 34.1 94.6-0.3 13.2 16.8 19.1 24.6 8.5q0.1-0.1 0.1-0.2c3.9-5.3 12.3-3.5 13.3 3 4 26.2-1.8 69.5-59.9 131.7"/>
				<path id="&lt;Path&gt;" class="s4" d="m633.3 893.4q-6.9-12.4-9.1-20.5c-10.3-29-11.4-60.4-4.9-90.5 4-18.2 10.2-56.2 22.1-87.9 1.8-4.6 7.9-5.3 10.8-1.4 6.9 9.5 16.9 24.7 19 35.1"/>
				<path id="&lt;Path&gt;" class="s4" d="m663.7 710.6c-0.4-60.2 58.6-132 78.3-154.1 3.3-3.8 9.2-3.7 12.5 0.2 9.6 11.4 28.9 35.4 47.5 62.8"/>
				<path id="&lt;Path&gt;" class="s4" d="m788.6 666.9c3.2-29.8 16.3-57.1 33.1-82.4 2.8-4.2 9.2-3.3 10.9 1.5 3.1 8.7 8.7 16.1 17.3 18.4 12.2 3.2 24.9-6 30-17.6 3.8-8.6 4.4-18 4.3-27.5-0.1-4.6 4.9-7.7 9-5.5 34.2 18.2 123.3 85 99.2 258.6"/>
			</g>
			<path id="&lt;Path&gt;" class="s2" d="m784.2 1009.5v75c0 7.5-6.1 13.5-13.6 13.5h-48.7c-7.5 0-13.6-6-13.6-13.5v-74.6"/>
			<path id="&lt;Path&gt;" class="s6" d="m795.5 1045.2c-4.6 2.5-11.6 5.1-17.1 5.1-8.9 0-17-3.6-22.8-9.4-5.9-5.9-9.5-14-9.5-22.9 0 17.8-14.4 32.3-32.2 32.3-8.9 0-16.9-3.6-22.8-9.4-5.8-5.9-9.4-14-9.4-22.9v-2l-12.6 19.5c-9.6 15-29.5 19.3-44.5 9.6-9.6-6.1-14.8-16.5-14.8-27.1 0-6 1.7-12 5.1-17.4l42.6-66.7 13.7-44.9 136.1-3.8 50.5 52.6-60.6 108.6"/>
			<path id="&lt;Path&gt;" class="s6" d="m807.3 812.4l39.1 61.6-19.6 57.4-25.7-26.4v1.4c0 15.2-12.3 27.5-27.5 27.5-7.6 0-14.5-3.1-19.5-8.1-4.9-4.9-8-11.8-8-19.4 0 15.2-12.3 27.5-27.5 27.5-7.6 0-14.4-3.1-19.4-8.1-5-4.9-8.1-11.8-8.1-19.4v-1.7l-10.7 16.6c-8.2 12.8-25.2 16.4-38 8.2-8.2-5.3-12.6-14.1-12.6-23.2 0-5.1 1.4-10.2 4.4-14.8l50.5-79.1 61.3-54z"/>
			<path id="&lt;Path&gt;" class="s2" d="m923.9 1034.5v50c0 7.5-6 13.5-13.5 13.5h-48.7c-7.5 0-13.6-6-13.6-13.5v-50.2"/>
			<path id="&lt;Path&gt;" class="s4" d="m865.6 788.3c-22.8-15.1-32.6-46.7-17.2-73.3l42.3-73.3c2.4-4.1 8.3-4.1 10.7-0.1l30.9 52.4"/>
			<path id="&lt;Path&gt;" class="s3" d="m812 809.9c-11.5 7.8-27.1 4.6-34.5-7l-7.1-10.9c-1.1 12.4-11.6 22.2-24.4 22.2-12.8 0-23.3-9.8-24.4-22.4l-7.1 11.1c-7.5 11.6-23.1 14.8-34.5 7-11.1-7.6-13.5-23.1-6.2-34.4l57.6-89.8c6.8-10.7 22.4-10.7 29.3 0l57.4 89.8c7.3 11.3 4.9 26.8-6.1 34.4z"/>
			<path id="&lt;Path&gt;" class="s3" d="m938.3 945.6l43.6 68.2c2.6 3.9 3.8 8.3 3.8 12.7 0 7.8-3.8 15.4-10.9 19.9-10.9 7-25.5 3.9-32.5-7.1l-9-13.9v1.1c0 13.1-10.5 23.6-23.6 23.6-6.5 0-12.4-2.6-16.7-6.9-4.2-4.2-6.9-10.1-6.9-16.7 0 13.1-10.5 23.6-23.5 23.6-6.5 0-12.4-2.6-16.7-6.9-4.3-4.2-6.9-10.1-6.9-16.7v-1.4l-9.2 14.2c-7 11-21.6 14.1-32.6 7.1-7-4.5-10.8-12.1-10.8-19.9 0-4.4 1.2-8.8 3.7-12.7l43.4-67.8 53.1-22z"/>
			<path id="&lt;Path&gt;" class="s3" d="m941.5 943.8c-9.9 6.7-23.2 4-29.6-6l-6.1-9.3c-1 10.6-10 19-20.9 19-11 0-20-8.4-20.9-19.2l-6.2 9.5c-6.4 10-19.7 12.7-29.6 6-9.4-6.5-11.5-19.8-5.2-29.5l49.4-77c5.8-9.2 19.2-9.2 25 0l49.3 77c6.3 9.7 4.2 23-5.2 29.5z"/>
			<path id="&lt;Path&gt;" class="s4" d="m801.1 905v1.4c0 15.2-12.3 27.5-27.5 27.5-7.6 0-14.5-3.1-19.5-8.1-4.9-4.9-8-11.8-8-19.4 0 15.2-12.3 27.5-27.5 27.5-7.6 0-14.4-3.1-19.4-8.1-5-4.9-8.1-11.8-8.1-19.4v-1.7l-10.7 16.6c-8.2 12.8-25.2 16.4-38 8.2-8.2-5.3-12.6-14.1-12.6-23.2 0-5.1 1.4-10.2 4.4-14.8l50.5-79.1"/>
			<path id="&lt;Path&gt;" class="s4" d="m807.3 812.4l39.1 61.6"/>
			<path id="&lt;Path&gt;" class="s4" d="m795.5 1045.2c-4.6 2.5-11.6 5.1-17.1 5.1-8.9 0-17-3.6-22.8-9.4-5.9-5.9-9.5-14-9.5-22.9 0 17.8-14.4 32.3-32.2 32.3-8.9 0-16.9-3.6-22.8-9.4-5.8-5.9-9.4-14-9.4-22.9v-2l-12.6 19.5c-9.6 15-29.5 19.3-44.5 9.6-9.6-6.1-14.8-16.5-14.8-27.1 0-6 1.7-12 5.1-17.4l42.6-66.7"/>
		</g>
		<g id="&lt;Group&gt;">
			<path id="&lt;Path&gt;" class="s5" d="m381.1 278.9c-19.2-2-33.1-19-31.2-38.1 1.9-18.3 17.6-31.9 35.7-31.3-23.3-30.6-17.5-74.2 13.1-97.5 29.2-22.4 70.4-17.9 94.4 9.3l17.9 35.2c-5.6-18.8 5-38.6 23.8-44.2 17.9-5.5 36.8 4 43.4 21.3l0.1-33c0-26 21-47.1 47.1-47.1 8.5 0 16.4 2.3 23.3 6.2 7-31 34.7-54.2 67.8-54.2 38.5 0 69.6 31.1 69.6 69.6 0 4.8-0.5 9.6-1.4 14.2 4.6-1 9.3-1.5 14.2-1.5 38.4 0 69.6 31.2 69.6 69.6 0 36.8-28.5 66.9-64.7 69.4 1.7 4.8 2.7 10.1 2.7 15.5 0 26-21.1 47.1-47.1 47.1l34.6 5.6c14.6 0 26.5 11.9 26.5 26.5 0 14-10.9 25.4-24.6 26.3 19.9 21.4 18.8 54.9-2.5 74.8-20.4 19.1-51.9 18.9-72.1 0.2"/>
			<path id="&lt;Path&gt;" class="s3" d="m375.8 341.6h-21.9c-8.9 0-16.1-7.2-16.1-16.1 0-9 7.2-16.2 16.1-16.2h39"/>
			<path id="&lt;Path&gt;" class="s3" d="m669.8 309.3h38.9c8.9 0 16.2 7.2 16.2 16.2 0 8.9-7.3 16.1-16.2 16.1h-21.8"/>
			<path id="&lt;Path&gt;" class="s2" d="m425.6 475.7v40.3c0 7-5.7 12.7-12.7 12.7h-27.5c-7.1 0-12.8-5.7-12.8-12.7v-41.8"/>
			<path id="&lt;Path&gt;" class="s2" d="m691 474.2v41.8c0 7-5.7 12.7-12.8 12.7h-27.5c-7 0-12.7-5.7-12.7-12.7v-40.3"/>
			<path id="&lt;Path&gt;" class="s3" d="m651.1 272.7l35.8 70.1c9.3 18.3 14.2 38.6 14.2 59.2v56.4c0 9.6-7.8 17.3-17.4 17.3h-303.9c-9.5 0-17.3-7.7-17.3-17.3v-57.7c0-19.7 4.5-39.2 13.1-56.9l33.9-69.8c11.4-26.9 37.7-44.3 66.8-44.3h108.5c28.6 0 54.6 16.9 66.3 43z"/>
			<path id="&lt;Path&gt;" class="s2" d="m686 341.1q-154.5 26.4-309.1-0.1l37.3-76.2q118.8-19.6 232.7 0z"/>
			<path id="&lt;Path&gt;" class="s2" d="m401.6 364.5l60.4 29.8c3.3 1.6 2.6 6.5-1 7.2l-39.6 7.1c-14.5 2.6-29-6-32.9-20.2-1.3-5-1.9-10.5-0.9-16.6 1-6.5 8.1-10.2 14-7.3z"/>
			<path id="&lt;Path&gt;" class="s2" d="m676 371.8c1 6.1 0.4 11.6-0.9 16.6-4 14.2-18.4 22.8-32.9 20.2l-39.6-7.1c-3.7-0.7-4.3-5.6-1-7.2l60.4-29.8c5.9-2.9 13 0.8 14 7.3z"/>
			<path id="&lt;Path&gt;" class="s4" d="m486.9 432h90.5"/>
			<path id="&lt;Path&gt;" class="s4" d="m578.3 100.6c0-26 21-47.1 47.1-47.1 8.5 0 16.4 2.3 23.3 6.2 7-31 34.7-54.2 67.8-54.2 38.5 0 69.6 31.1 69.6 69.6 0 4.8-0.5 9.6-1.4 14.2 4.6-1 9.3-1.5 14.2-1.5 38.4 0 69.6 31.2 69.6 69.6 0 36.8-28.5 66.9-64.7 69.4 1.7 4.8 2.7 10.1 2.7 15.5 0 26-21.1 47.1-47.1 47.1"/>
			<path id="&lt;Path&gt;" class="s4" d="m660.8 139.4c25-19.8 61.3-15.6 81.1 9.4 18.9 23.9 15.9 58.2-6.3 78.4"/>
			<path id="&lt;Path&gt;" class="s4" d="m794 295c14.6 0 26.5 11.9 26.5 26.5 0 14-10.9 25.4-24.6 26.3 19.9 21.4 18.8 54.9-2.5 74.8-20.4 19.1-51.9 18.9-72.1 0.2"/>
			<path id="&lt;Path&gt;" class="s4" d="m381.1 278.9c-19.2-2-33.1-19-31.2-38.1 1.9-18.3 17.6-31.9 35.7-31.3-23.3-30.6-17.5-74.2 13.1-97.5 29.2-22.4 70.4-17.9 94.4 9.3"/>
			<path id="&lt;Path&gt;" class="s4" d="m511 156.5c-5.6-18.8 5-38.6 23.8-44.2 17.9-5.5 36.8 4 43.4 21.3"/>
		</g>
	</g>
</svg>