<?xml version="1.0" encoding="utf-8"?>
<svg id="master-artboard" viewBox="0 0 420 420" version="1.1" xmlns="http://www.w3.org/2000/svg" x="0px" y="0px" enable-background="new 0 0 1400 980" width="420px" height="420px"><rect id="ee-background" x="0" y="0" width="420" height="420" style="fill: white; fill-opacity: 0; pointer-events: none;"/><g transform="matrix(1.1884549856185913, 0, 0, 1.063964366912842, -103.60024063000705, -544.7473208757878)">
			<g>
				<path d="M 397.1000061035156 670.4000244140625 L 397.1000061035156 704.2999877929688 L 414.3999938964844 687 L 414.3999938964844 653.0999755859375 Z" fill="#46A368"/>
				<path fill="#46A368" d="M271.4,780.1l46.1-46.1h50l19.4-19.4h-0.1v-48.4l27.2-27.2c0.2,0.1,0.2,0.1,0.4,0.2v-7&#10;&#9;&#9;&#9;&#9;&#9;c0-0.2,0-0.4,0-0.6c-0.1-2-0.5-4-1.3-5.9l-71.2,71.3h-44.4l-16.2,16.2c-6.4,6.4-10,15-10,24.1V780.1z"/>
				<path fill="#46A368" d="M277.6,662.4c-4,4-6.2,9.3-6.2,14.9v31.1l21.9-21.9h44.4l69-69c0,0,0,0-0.1,0c-0.3-0.2-0.5-0.3-0.8-0.5&#10;&#9;&#9;&#9;&#9;&#9;l-3.5-2l-6.8-4l-46.7,46.7h-66.4L277.6,662.4z"/>
				<path d="M 301.29998779296875 638.7000122070312 L 292.6000061035156 647.4000244140625 L 344.29998779296875 647.4000244140625 L 386.1000061035156 605.7000122070312 L 381.6000061035156 603.2000122070312 L 334 575.5999755859375 L 301.29998779296875 608.5 Z" fill="#46A368"/>
				<path fill="#46A368" d="M265.5,544.8c0.3,0,0.7,0.1,1,0.2c0.3,0.1,0.6,0.1,0.9,0.2c0.1,0,0.1,0,0.2,0.1c0.2,0.1,0.5,0.1,0.7,0.2&#10;&#9;&#9;&#9;&#9;&#9;c0.1,0,0.1,0,0.2,0.1c0.9,0.3,1.9,0.7,2.8,1.1V654l19.6-19.6v-30.2l17.5-17.5v-18.8l8.5,4.9l1.9,1.1v2.5l5.9-6.1l-4.3-2.5&#10;&#9;&#9;&#9;&#9;&#9;l-1.6-0.9l-1.9-1.1l-8.5-4.9v0l-36.3-21c-0.3-0.2-0.5-0.3-0.8-0.4c-0.9-0.5-1.8-0.8-2.8-1.1c-0.1,0-0.1,0-0.2-0.1&#10;&#9;&#9;&#9;&#9;&#9;c-0.2-0.1-0.5-0.1-0.7-0.2c-0.1,0-0.1,0-0.2-0.1c-0.3-0.1-0.6-0.1-0.9-0.2c-0.3-0.1-0.7-0.1-1-0.2c-0.3,0-0.6-0.1-0.9-0.1&#10;&#9;&#9;&#9;&#9;&#9;c-0.1,0-0.1,0-0.2,0v7c0.1,0,0.1,0,0.2,0C264.9,544.7,265.2,544.7,265.5,544.8z"/>
				<path d="M 321.79998779296875 744.2000122070312 L 297.5 768.5999755859375 L 325.1000061035156 796.2000122070312 L 364.5 796.2000122070312 L 388.5 772.2000122070312 L 414.3999938964844 772.2000122070312 L 414.3999938964844 701.5999755859375 L 371.70001220703125 744.2000122070312 Z" fill="#46A368"/>
			</g>
			<g>
				<path d="M 159.39999389648438 720.7999877929688 L 112.5999984741211 673.9000244140625 L 112.5999984741211 729.0999755859375 L 136.8000030517578 753.2999877929688 L 171.89999389648438 753.2999877929688 L 197.6999969482422 779.2000122070312 L 226.1999969482422 750.7000122070312 L 196.3000030517578 720.7999877929688 Z" fill="#98CB50"/>
				<path fill="#98CB50" d="M255.6,715.9c0-9-3.6-17.7-10-24.1l-18.4-18.4h-50l-56.2-56.2c-5.3,3.1-8.5,8.8-8.5,14.9v27.2l51.1,51.1&#10;&#9;&#9;&#9;&#9;&#9;h36.9l55,55V715.9z"/>
				<path fill="#98CB50" d="M261.5,537.8c-0.3,0-0.7,0.1-1,0.2c-0.3,0.1-0.6,0.1-0.9,0.2c-0.1,0-0.2,0-0.3,0.1&#10;&#9;&#9;&#9;&#9;&#9;c-0.2,0.1-0.5,0.1-0.7,0.2c-0.1,0-0.1,0-0.2,0.1c-0.6,0.2-1.2,0.4-1.8,0.7c-0.3,0.1-0.6,0.3-0.9,0.4l0,0&#10;&#9;&#9;&#9;&#9;&#9;c-0.3,0.1-0.5,0.3-0.8,0.4l-22.2,12.8l-4.4,2.5l27.4,27.5v-36.3l0,0c0.3-0.1,0.6-0.3,0.9-0.4c0.6-0.3,1.2-0.5,1.8-0.7&#10;&#9;&#9;&#9;&#9;&#9;c0.1,0,0.1,0,0.2-0.1c0.2-0.1,0.5-0.1,0.7-0.2c0.1,0,0.2-0.1,0.3-0.1c0.3-0.1,0.6-0.1,0.9-0.2c0.3-0.1,0.7-0.1,1-0.2&#10;&#9;&#9;&#9;&#9;&#9;c0.2,0,0.5-0.1,0.7-0.1c0.1,0,0.2,0,0.4,0v-7c-0.1,0-0.1,0-0.2,0C262.1,537.7,261.8,537.7,261.5,537.8z"/>
				<path d="M 130.3000030517578 611.9000244140625 L 181.60000610351562 663.0999755859375 L 216.89999389648438 663.0999755859375 L 204.5 650.5999755859375 L 204.5 607.7999877929688 L 180 583.2000122070312 L 134.8000030517578 609.2999877929688 Z" fill="#98CB50"/>
				<path fill="#98CB50" d="M115.8,796.4h33.6l25.5-25.5l-7.3-7.3h-35.1l-20-20v42.7c0,1,0.1,2.1,0.3,3.1&#10;&#9;&#9;&#9;&#9;&#9;C113.3,792,114.3,794.3,115.8,796.4z"/>
				<path fill="#98CB50" d="M255.6,607.2c0-6.3-2.5-12.3-6.9-16.8L219,560.7l-25.4,14.6l-4.4,2.5l25.6,25.6v42.9l40.8,40.8V607.2z"/>
			</g>
		</g><path fill="#00334A" d="M418.6,594.8l-133.5-77.1c-13.4-7.7-29.8-7.7-43.2,0l-133.5,77.1c-13.4,7.7-21.6,22-21.6,37.4v154.2&#10;&#9;&#9;&#9;c0,15.4,8.2,29.7,21.6,37.4l133.5,77.1c13.4,7.7,29.8,7.7,43.2,0l133.5-77.1c13.4-7.7,21.6-22,21.6-37.4V632.1&#10;&#9;&#9;&#9;C440.2,616.7,432,602.5,418.6,594.8z M424.7,786.3c0,9.9-5.3,19.1-13.8,24l-109.5,63.2c-9.7,5.6-22-0.7-23-11.9l-5.4-57&#10;&#9;&#9;&#9;c-1-10.8,2.8-21.5,10.5-29.1l6.7-6.7l30.7,30.7h47.9l24-24h21.6v-10.3h-25.9l-24,24h-39.4l-27.7-27.6l24.3-24.3h50l42.7-42.7V680&#10;&#9;&#9;&#9;l-17.3,17.3v-33.9l17.3-17.3v-14c-0.2-0.1-0.2-0.1-0.4-0.2l-27.2,27.2v48.4h0.1L367.5,727h-50l-46.1,46.1v-42.9&#10;&#9;&#9;&#9;c0-9,3.6-17.7,10-24.1l16.2-16.2h44.4l68.7-68.7c-0.3-0.4-0.7-0.8-1.1-1.2c-0.1-0.1-0.2-0.2-0.3-0.3c-0.2-0.2-0.4-0.4-0.6-0.5&#10;&#9;&#9;&#9;c-0.5-0.5-1.1-0.9-1.6-1.3c-0.1-0.1-0.3-0.2-0.4-0.3c-0.3-0.2-0.5-0.3-0.8-0.5l-3.5-2.1l0,0l-64.6,64.6h-44.4l-21.9,21.9v-31.1&#10;&#9;&#9;&#9;c0-5.6,2.2-11,6.2-14.9l4.7-4.7h66.4l42.3-42.3l-9.2-5.3l-37.3,37.3h-51.8l8.7-8.7v-30.2l28.4-28.4l-9.2-5.3l0,0l-1.6,1.6v-2.5&#10;&#9;&#9;&#9;l-1.9-1.1l-8.5-4.9v18.8L291,597.2v30.2l-19.6,19.6V539.5c-0.9-0.5-1.8-0.8-2.8-1.1c-0.1,0-0.1,0-0.2-0.1&#10;&#9;&#9;&#9;c-0.2-0.1-0.5-0.1-0.7-0.2c-0.1,0-0.1,0-0.2-0.1c-0.3-0.1-0.6-0.1-0.9-0.2c-0.3-0.1-0.7-0.1-1-0.2c-0.3,0-0.6-0.1-0.9-0.1&#10;&#9;&#9;&#9;c-0.4,0-0.8,0-1.2,0c-0.4,0-0.8,0-1.2,0.1c-0.2,0-0.5,0-0.7,0.1c-0.3,0-0.7,0.1-1,0.2c-0.3,0.1-0.6,0.1-0.9,0.2&#10;&#9;&#9;&#9;c-0.1,0-0.2,0-0.3,0.1c-0.2,0.1-0.5,0.1-0.7,0.2c-0.1,0-0.1,0-0.2,0.1c-0.6,0.2-1.2,0.4-1.8,0.7c-0.3,0.1-0.6,0.3-0.9,0.4l0,0&#10;&#9;&#9;&#9;v36.3l-23-23l-9.2,5.3l25.3,25.3c4.4,4.4,6.9,10.5,6.9,16.8v80l-40.8-40.8v-42.9l-21.2-21.2l-9.2,5.3l20.1,20.1v42.9l12.5,12.5&#10;&#9;&#9;&#9;h-35.4l-46.8-46.8l-9.3,5.3l51.8,51.8h50l18.4,18.4c6.4,6.4,10,15,10,24.1v49.6l-55-55h-36.9l-51.1-51.1V667l46.8,46.8h36.9&#10;&#9;&#9;&#9;l29.9,29.9l-28.5,28.5l-25.8-25.8h-35.1l-24.2-24.2v14.6l20,20h35.1l7.3,7.3l-25.5,25.5h-36.5c0.7,4,2.9,7.7,6,10.3h34.7&#10;&#9;&#9;&#9;l28.5-28.5l15.5,15.5l35.8-35.8l10.2,10.2c7.6,7.6,11.4,18.1,10.5,28.7l-5.9,71.4c-0.9,11.2-13.3,17.7-23,12.1l-109.1-63&#10;&#9;&#9;&#9;c-8.5-4.9-13.8-14.1-13.8-24V632.1c0-9.9,5.3-19,13.8-24l133.5-77.1c4.2-2.4,9-3.7,13.8-3.7c4.9,0,9.6,1.3,13.8,3.7l133.5,77.1&#10;&#9;&#9;&#9;c8.5,4.9,13.8,14.1,13.8,24V786.3z" transform="matrix(1.1884549856185913, 0, 0, 1.063964366912842, -103.60024063000705, -544.7473208757878)"/></svg>