<svg version="1.2" xmlns="http://www.w3.org/2000/svg" viewBox="0 0 1088 1084" width="200" height="199">
	<title>offset</title>
	<style>
		.s0 { fill: none;stroke: #366088;stroke-linecap: round;stroke-linejoin: round;stroke-width: 11.4;stroke-dasharray: 57 } 
		.s1 { fill: #a4edf5 } 
		.s2 { fill: #ffffff;stroke: #366088;stroke-linecap: round;stroke-linejoin: round;stroke-width: 11.4 } 
		.s3 { fill: #d0fdff;stroke: #366088;stroke-linecap: round;stroke-linejoin: round;stroke-width: 11.4 } 
		.s4 { fill: none;stroke: #366088;stroke-linecap: round;stroke-linejoin: round;stroke-width: 11.4 } 
	</style>
	<g id="&lt;Group&gt;">
		<g id="&lt;Group&gt;">
			<g id="&lt;Group&gt;">
				<path id="&lt;Path&gt;" class="s0" d="m297.9 98.4c59.8-34.2 126.7-57 197.3-65.5"/>
				<path id="&lt;Path&gt;" class="s0" d="m638.3 1072.2c-43.3 6.7-88.2 8-133.9 3.2-109.3-11.3-207.2-55.4-285.1-121.5"/>
				<path id="&lt;Path&gt;" class="s0" d="m1056.5 388.9c22.6 68.4 31.5 142.5 23.6 218.8-3.6 35.3-10.7 69.4-20.9 102.1"/>
				<path id="&lt;Path&gt;" class="s0" d="m658.7 38.9c73 14.1 140 43.1 198.2 83.4"/>
			</g>
			<g id="&lt;Group&gt;">
				<path id="&lt;Path&gt;" class="s1" d="m175 514.1c21.9-211.8 211.3-365.6 423.1-343.7 211.7 21.9 365.6 211.3 343.7 423-22 211.7-211.4 365.6-423.1 343.7-211.7-21.9-365.6-211.3-343.7-423z"/>
			</g>
		</g>
		<g id="&lt;Group&gt;">
			<g id="&lt;Group&gt;">
				<g id="&lt;Group&gt;">
					<path id="&lt;Path&gt;" class="s2" d="m12.4 551.5c-6-2.6-8.7-9.6-6.1-15.6l66.3-152c2.6-6 9.6-8.7 15.6-6.1l320.8 140c6 2.6 8.7 9.6 6.1 15.6l-66.3 152c-2.6 6-9.6 8.7-15.6 6.1z"/>
					<path id="&lt;Path&gt;" class="s3" d="m275.9 666.5c15.7-36 60.4-51.5 96.4-35.8l-23.9 54.7c-2.6 5.9-9.4 8.6-15.3 6z"/>
					<path id="&lt;Path&gt;" class="s3" d="m409 517.8c5.9 2.6 8.6 9.4 6 15.3l-23.9 54.8c-36-15.7-55-59.1-39.3-95.1z"/>
					<path id="&lt;Path&gt;" class="s4" d="m276 666.5c15.7-36 60.4-51.5 96.4-35.8"/>
					<path id="&lt;Path&gt;" class="s3" d="m12.3 551.4c-5.9-2.5-8.6-9.4-6-15.3l23.9-54.8c36 15.7 55 59.1 39.3 95.1z"/>
					<path id="&lt;Path&gt;" class="s3" d="m145.2 402.7c-15.7 36-60.4 51.5-96.4 35.8l23.9-54.8c2.6-5.9 9.4-8.6 15.3-6z"/>
				</g>
				<g id="&lt;Group&gt;">
					<path id="&lt;Path&gt;" class="s4" d="m182.8 598.5l9-20.5"/>
				</g>
				<g id="&lt;Group&gt;">
					<path id="&lt;Path&gt;" class="s3" d="m254.1 364.2c-4.2-27.5 14.8-53.1 42.2-57.2 27.5-4.2 53.1 14.8 57.3 42.2 4.1 27.5-14.8 53.2-42.3 57.3-27.5 4.1-53.1-14.8-57.2-42.3z"/>
				</g>
				<g id="&lt;Group&gt;">
					<path id="&lt;Path&gt;" class="s3" d="m100.3 285.5c-4.2-27.4 14.8-53.1 42.2-57.2 27.5-4.1 53.1 14.8 57.3 42.3 4.1 27.5-14.8 53.1-42.3 57.2-27.5 4.1-53.1-14.8-57.2-42.3z"/>
				</g>
				<g id="&lt;Group&gt;">
					<path id="&lt;Path&gt;" class="s3" d="m241 203.9c-9.2-26.2 4.5-55 30.8-64.2 26.2-9.2 54.9 4.6 64.1 30.8 9.2 26.2-4.5 54.9-30.8 64.1-26.2 9.3-54.9-4.5-64.1-30.7z"/>
				</g>
				<g id="&lt;Group&gt;">
					<rect id="&lt;Path&gt;" class="s2" x="55.6" y="503" width="373.7" height="189.5" rx="11.8"></rect>
					<path id="&lt;Path&gt;" class="s3" d="m354.9 692.5c0-39.3 34.8-71.4 74-71.4v59.8c0 6.4-5.2 11.6-11.6 11.6z"/>
					<path id="&lt;Path&gt;" class="s3" d="m417.4 503c6.4 0 11.6 5.2 11.6 11.6v59.8c-39.2 0-74-32.1-74-71.4z"/>
					<path id="&lt;Path&gt;" class="s4" d="m355 692.5c0-39.3 34.8-71.4 74-71.4"/>
					<path id="&lt;Path&gt;" class="s3" d="m67.3 692.5c-6.4 0-11.6-5.2-11.6-11.7v-59.7c39.2 0 74 32.1 74 71.4z"/>
					<path id="&lt;Path&gt;" class="s3" d="m129.6 503c0 39.2-34.8 71.4-74 71.4v-59.8c0-6.4 5.2-11.6 11.6-11.6z"/>
				</g>
				<g id="&lt;Group&gt;">
					<path id="&lt;Path&gt;" class="s4" d="m210.7 619v9.3c0 9.3 7.5 16.8 16.8 16.8h29.8c9.3 0 16.8-7.5 16.8-16.8v-13.8c0-9.3-7.5-16.8-16.8-16.8h-29.8c-9.3 0-16.8-7.5-16.8-16.7v-13.8c0-9.3 7.5-16.8 16.8-16.8h29.8c9.3 0 16.8 7.5 16.8 16.8v9.5"/>
					<path id="&lt;Path&gt;" class="s4" d="m242.4 550.4v-22.4"/>
					<path id="&lt;Path&gt;" class="s4" d="m242.4 667.4v-22.3"/>
				</g>
			</g>
			<path id="&lt;Path&gt;" class="s3" d="m126.6 856.3v-116.9h60.9v116.9h44.4l-74.8 97.9-74.8-97.9z"/>
			<path id="&lt;Path&gt;" class="s3" d="m308.3 856.3v-116.9h61v116.9h44.3l-74.8 97.9-74.8-97.9z"/>
		</g>
		<g id="&lt;Group&gt;">
			<path id="&lt;Path&gt;" class="s2" d="m903.8 522.2h-287.5c-5 0-8.5-5.3-6.4-9.9l9.6-22.2c2.3-5.2 7.4-8.5 13-8.5h21.6l76.6-91.6 29.4-1.1 29.4 1.1 76.6 91.6h21.6c5.6 0 10.7 3.3 12.9 8.5l9.7 22.2c2.1 4.6-1.4 9.9-6.5 9.9z"/>
			<g id="&lt;Group&gt;">
				<path id="&lt;Path&gt;" class="s3" d="m658.7 348.1c0 26.8-42.8 55.9-95.5 55.9-50.2 0-91.4-26.4-95.3-52.1-0.3-2.1 1.4-3.9 3.4-3.9z"/>
				<path id="&lt;Path&gt;" class="s3" d="m1049.7 348.2c2 0 3.7 1.8 3.4 3.8-3.8 25.7-45 52.1-95.2 52.1-52.8 0-95.5-29.1-95.6-56z"/>
				<path id="&lt;Path&gt;" class="s2" d="m862.3 348.1h-49.8"/>
				<path id="&lt;Path&gt;" class="s2" d="m709.1 348l-50.4 0.1"/>
			</g>
			<g id="&lt;Group&gt;">
				<path id="&lt;Path&gt;" class="s2" d="m709.6 336.3c6.2-27.8 33.8-45.4 61.7-39.2 27.9 6.2 45.5 33.8 39.3 61.6-6.2 27.8-33.8 45.4-61.7 39.2-27.9-6.2-45.5-33.8-39.3-61.6z"/>
			</g>
			<path id="&lt;Path&gt;" class="s2" d="m861.2 148h9.4c5.8-33 34.6-58.2 69.4-58.2 34.7 0 63.6 25.2 69.4 58.2h9.4c34.3 0 62.4 28.1 62.4 62.5v2c0 28.3-19.2 52.4-45.2 59.9 3 3.6 4.8 8.2 4.8 13.1 0 11.4-9.3 20.7-20.7 20.7h-76.8c-11.3 0-20.6-9.3-20.6-20.7v-10.6h-61.5c-34.3 0-62.4-28.1-62.4-62.4v-2c0-34.4 28.1-62.5 62.4-62.5z"/>
			<rect id="&lt;Path&gt;" class="s2" x="924.6" y="167.3" width="51.7" height="78.3" rx="18.1"></rect>
			<rect id="&lt;Path&gt;" class="s2" x="856.9" y="167.3" width="51.7" height="78.3" rx="18.1"></rect>
			<g id="&lt;Group&gt;">
				<path id="&lt;Path&gt;" class="s2" d="m1029.6 251.5h-32.2v-26h0.9 29.7 1.6v-25.9h-32.2"/>
			</g>
			<g id="&lt;Group&gt;">
				<path id="&lt;Path&gt;" class="s3" d="m599 5.8q-2.4 8.8-2.8 21c-0.4 15.2 2.2 35.6 16.5 51.3 44.5 48.7 50.3 97.2 32.2 135.8-14.1 30.1-42.5 54.3-78.3 68.1q-67.2-26.6-89-91c-9-26.5-6.6-55.5 4.6-81.2 6.9-15.8 19.3-37 38.4-56.7 19.1-19.7 44.9-37.8 78.4-47.3z"/>
				<path id="&lt;Path&gt;" class="s4" d="m575.5 312.3c-1.3-3.1-2.5-5.8-3.5-8-40.4-85.8-21.8-174.1-7.7-229.7"/>
				<path id="&lt;Path&gt;" class="s4" d="m546.6 178.2q-20-23-25.5-52.9"/>
				<path id="&lt;Path&gt;" class="s4" d="m557.3 244.9q30.5-27.8 46.4-57.4"/>
			</g>
		</g>
		<g id="&lt;Group&gt;">
			<path id="&lt;Path&gt;" class="s2" d="m904.3 1044.2l-198-1c-9.8 0.3-18.9-3-26-8.6l-136.7-92.6c-18.3-12.3-22.3-30.1-22.1-43.9 0.1-14 8.7-26.2 21.9-31 10.9-3.9 25.3-5.3 39.6 4.4l69.1 46.8 28.3 19.2 0.5 0.4q-0.4-1.7-0.6-3.3c-2.6-22 13.3-42.2 35.5-44.8l163.9-20c4.8-0.6 25.1-1.8 30.9-2q3-0.1 5.9 0.1c26.9 1.9 49.4 21.3 55.7 47v-1.5h26.5"/>
			<path id="&lt;Path&gt;" class="s4" d="m829.9 957l-104.5 12.6c-21 2.6-40.3-11.5-44.5-31.7"/>
			<path id="&lt;Path&gt;" class="s4" d="m977.4 954.3l-5.2-39.4"/>
			<path id="&lt;Path&gt;" class="s3" d="m611.3 772h-64.9c-8.1 0-14.6-6.4-14.6-14.4 0-7.9 6.5-14.4 14.6-14.4h64.9"/>
			<path id="&lt;Path&gt;" class="s3" d="m611.3 679.5h-64.9c-8.1 0-14.6-6.4-14.6-14.4 0-7.9 6.5-14.4 14.6-14.4h64.9"/>
			<path id="&lt;Path&gt;" class="s4" d="m1031 711.4h-264.5"/>
			<path id="&lt;Path&gt;" class="s3" d="m766.5 711.4c0 47.6-38.7 86.3-86.3 86.3h-57.9c-6.1 0-11-5-11-11.1v-150.5c0-6.1 4.9-11 11-11h57.9c47.6 0 86.3 38.6 86.3 86.3z"/>
			<path id="&lt;Path&gt;" class="s3" d="m916.1 674.6c-6.8-29.4 1.1-61.5 24-84.4 22.8-22.8 54.9-30.7 84.3-23.9 6.8 29.4-1.1 61.5-24 84.3-22.8 22.9-54.9 30.8-84.3 24z"/>
			<path id="&lt;Path&gt;" class="s3" d="m962.2 628.9l-80.9 80.9"/>
			<path id="&lt;Path&gt;" class="s3" d="m842.5 737.2c26.3-6.2 55 0.9 75.5 21.4 20.5 20.5 27.5 49.2 21.4 75.5-26.3 6.1-55-1-75.5-21.4-20.5-20.5-27.5-49.3-21.4-75.5z"/>
			<path id="&lt;Path&gt;" class="s3" d="m876.4 771.4l-60-60"/>
		</g>
	</g>
</svg>