<svg version="1.2" xmlns="http://www.w3.org/2000/svg" viewBox="0 0 1130 1090" width="200" height="193">
	<title>recycle</title>
	<style>
		.s0 { fill: none;stroke: #366088;stroke-linecap: round;stroke-linejoin: round;stroke-width: 11.4;stroke-dasharray: 57 } 
		.s1 { fill: #a4edf5 } 
		.s2 { fill: #ffffff;stroke: #366088;stroke-linejoin: round;stroke-width: 11.4 } 
		.s3 { fill: #d0fdff;stroke: #366088;stroke-linecap: round;stroke-linejoin: round;stroke-width: 11.4 } 
		.s4 { fill: none;stroke: #366088;stroke-linecap: round;stroke-linejoin: round;stroke-width: 11.4 } 
		.s5 { fill: #ffffff;stroke: #366088;stroke-linecap: round;stroke-linejoin: round;stroke-width: 11.4 } 
	</style>
	<g id="&lt;Group&gt;">
		<g id="&lt;Group&gt;">
			<path id="&lt;Path&gt;" class="s0" d="m634.4 1083.4q-25.6 2.4-51.8 2.4c-180.4 0-340.2-88.2-438.6-223.8"/>
			<path id="&lt;Path&gt;" class="s0" d="m1078.1 325.6c29.6 66.9 46 140.9 46 218.7 0 81.7-18.1 159.2-50.5 228.7"/>
			<path id="&lt;Path&gt;" class="s0" d="m51.3 439.3c45.8-233.2 241.4-412.8 482.5-434.3"/>
			<circle id="&lt;Path&gt;" class="s1" cx="582.6" cy="544.3" r="397.6"/>
		</g>
		<g id="&lt;Group&gt;">
			<g id="&lt;Group&gt;">
				<g id="&lt;Group&gt;">
					<path id="&lt;Path&gt;" class="s2" d="m427.1 684.3l-68.8-119.2 65.5-13.3c3.7-0.7 7-2.7 9.4-5.6l36.9-45.7 52.4 90.7c4.4 7.7 7.4 16.1 8.4 24.8 1.8 14.1 0.2 33.8-16.6 48.9-17.5 15.7-40 18-52.8 19.2z"/>
					<path id="&lt;Path&gt;" class="s3" d="m524.1 653.1l-85.9 131.3c-8.3 12.4-22.3 19.9-37.2 19.7l-58.6-0.7-1.4 46.8-61.9-106.8 62-114.8 0.1 54.1q107.5 2.7 120.3 1.4c12.8-1.2 35.3-3.5 52.8-19.2z"/>
				</g>
				<g id="&lt;Group&gt;">
					<path id="&lt;Path&gt;" class="s2" d="m276.5 405.1l-68.5 119.5-44.4-50.1c-2.5-2.8-5.9-4.6-9.6-5.2l-58-8.9 52.1-90.9c4.4-7.7 10.1-14.5 17.2-19.8 11.2-8.6 29.1-17.2 50.6-10.2 22.3 7.2 35.6 25.5 43.1 36z"/>
					<path id="&lt;Path&gt;" class="s3" d="m200.8 336.9l156.6 8.3c14.9 0.9 28.4 9.2 35.8 22.3l28.8 50.9 41.2-22.3-61.2 107.3-130.4 4.1 46.7-27.3q-51.7-94.3-59.3-104.7c-7.5-10.5-20.8-28.8-43.1-36z"/>
				</g>
				<g id="&lt;Group&gt;">
					<path id="&lt;Path&gt;" class="s2" d="m107.6 676.6l137.6-0.9-20.9 63.5c-1.2 3.6-1.1 7.5 0.3 11l21.4 54.7-104.8 0.6c-8.8 0-17.6-1.5-25.7-4.9-13.1-5.4-29.5-16.6-34.3-38.7-4.9-22.9 4.2-43.6 9.5-55.3z"/>
					<path id="&lt;Path&gt;" class="s3" d="m86.7 776.3l-71.6-139.6c-6.8-13.3-6.3-29.2 1.3-42.1l29.5-50.5-40-24.4 123.5-1 69.1 110.7-47.1-26.7q-55.5 92.1-60.7 103.9c-5.3 11.7-14.4 32.4-9.5 55.3z"/>
				</g>
			</g>
			<g id="&lt;Group&gt;">
				<path id="&lt;Path&gt;" class="s4" d="m1027.7 481.8h-476.6c-9.6 0-17.4-7.8-17.4-17.4v-228.4"/>
				<path id="&lt;Path&gt;" class="s2" d="m1031.9 303.3v55.8 80.9h-91.2v-80.9-55.8z"/>
				<path id="&lt;Path&gt;" class="s3" d="m940.4 245.2v66.9 127.9h-91.2v-127.9-66.9z"/>
				<path id="&lt;Path&gt;" class="s2" d="m848.9 177.7v93.4 168.9h-91.2v-168.9-93.4z"/>
				<path id="&lt;Path&gt;" class="s3" d="m757.3 104.8v107 228.2h-91.2v-228.2-107z"/>
				<path id="&lt;Path&gt;" class="s2" d="m665.8 25.3v125.8 288.9h-91.2v-288.9-125.8z"/>
			</g>
			<g id="&lt;Group&gt;">
				<path id="&lt;Path&gt;" class="s2" d="m907.4 1046.5h-209.1c-13.8 0-25.4-12.3-26.7-28.4l5.9-151.2-35.8-179.7h322.3l-35.8 179.7 5.9 151.2c-1.3 16.1-12.9 28.4-26.7 28.4z"/>
				<path id="&lt;Path&gt;" class="s3" d="m983.9 702.8h-362.1v-48.3h362.1z"/>
				<path id="&lt;Path&gt;" class="s3" d="m964 654.5h-322.3c0-21.7 17.6-39.3 39.3-39.3h243.7c21.7 0 39.3 17.6 39.3 39.3z"/>
				<path id="&lt;Path&gt;" class="s5" d="m673.5 1016h259.6"/>
				<g id="&lt;Group&gt;">
					<path id="&lt;Path&gt;" class="s3" d="m557.9 947.5v-39.5c0-0.8-0.8-1.4-1.9-1.4h-67.9c-1.3 0-2.3-0.8-2.3-1.7v-76c0-1 1-1.7 2.3-1.7h67.9c1.1 0 1.9-0.7 1.9-1.4v-39.5c0-1.2 1.9-1.9 3.2-1.1l87.5 80.6c0.9 0.6 0.9 1.6 0 2.1l-87.5 80.6c-1.3 0.8-3.2 0.2-3.2-1z"/>
				</g>
				<g id="&lt;Group&gt;">
					<path id="&lt;Path&gt;" class="s3" d="m1045.1 786.3v39.5c0 0.7 0.8 1.4 1.9 1.4h67.8c1.3 0 2.4 0.7 2.4 1.7v76c0 0.9-1.1 1.7-2.4 1.7h-67.8c-1.1 0-1.9 0.6-1.9 1.4v39.5c0 1.2-2 1.8-3.2 1l-87.5-80.6c-0.9-0.5-0.9-1.5 0-2.1l87.5-80.6c1.2-0.8 3.2-0.1 3.2 1.1z"/>
				</g>
				<g id="&lt;Group&gt;">
					<path id="&lt;Path&gt;" class="s4" d="m866.8 801.9l-16.3 28.3-34.5 1"/>
					<path id="&lt;Path&gt;" class="s4" d="m765.9 819l16.5-32.7c4.3-8.5 13.3-13.7 22.9-13.2 8.2 0.4 15.6 5.1 19.7 12.2l25.5 45.3"/>
					<path id="&lt;Path&gt;" class="s4" d="m824.8 944.6l-16.6-28.1 16.1-30.5"/>
					<path id="&lt;Path&gt;" class="s4" d="m860 847.3l20.3 30.5c5.3 8 5.4 18.4 0.2 26.4-4.4 7-12.1 11.1-20.3 11.1l-52-0.1"/>
					<path id="&lt;Path&gt;" class="s4" d="m721.3 838.3l32.7-0.7 18.7 29.1"/>
					<path id="&lt;Path&gt;" class="s4" d="m789.2 916.1l-36.5 2.8c-9.6 0.7-18.7-4.3-23.2-12.8-3.8-7.3-3.7-16 0.4-23.2l25.6-45.3"/>
				</g>
			</g>
		</g>
	</g>
</svg>