<svg version="1.2" xmlns="http://www.w3.org/2000/svg" viewBox="0 0 1128 1079" width="200" height="191">
	<title>refrigerants2-svg-svg</title>
	<style>
		.s0 { fill: none;stroke: #366088;stroke-linecap: round;stroke-linejoin: round;stroke-width: 11.2;stroke-dasharray: 56 } 
		.s1 { fill: #a4edf5 } 
		.s2 { fill: #d0fdff;stroke: #366088;stroke-linecap: round;stroke-linejoin: round;stroke-width: 11.2 } 
		.s3 { fill: #ffffff;stroke: #366088;stroke-linecap: round;stroke-linejoin: round;stroke-width: 11.2 } 
		.s4 { fill: none;stroke: #366088;stroke-linecap: round;stroke-linejoin: round;stroke-width: 11.2 } 
	</style>
	<g id="&lt;Group&gt;">
		<g id="&lt;Group&gt;">
			<g id="&lt;Group&gt;">
				
			</g>
			<g id="&lt;Group&gt;">
			<circle id="&lt;Path&gt;" class="s1" cx="565" cy="540" r="438"/>
			</g>
		</g>
		<g id="&lt;Group&gt;">
			<g id="&lt;Group&gt;">
				<path id="&lt;Path&gt;" class="s2" d="m835.6 147h158.7c24.3 0 44.2 24.4 44.2 54.2 0 29.9-19.9 54.3-44.2 54.3h-5.4c-12.3 0-22.4 12.3-22.4 27.4 0 15.1 10.1 27.5 22.4 27.5h57.3l30.6-0.1c24.3 0 44.2 24.4 44.2 54.3 0 29.8-19.9 54.2-44.2 54.2l-24.9 0.1h-70.2q-20.1 4.3-21.1 26.3v56.8h-32.8v-104.1q0-40.5-42.6-38.1l-20.5 0.1c-21.8 0-39.6-20.5-39.6-45.5 0-25.1 17.8-45.6 39.6-45.6h5.9c10.9 0 19.8-10.2 19.8-22.7v-0.6c0-12.5-8.9-22.7-19.8-22.7h-34.1"/>
				<path id="&lt;Path&gt;" class="s3" d="m856 856.7l13-256.2 4.5-93.4c0.2-3 2.7-5.3 5.9-5.3l81.7 0.3c3.8 0 6.9 2.8 7.1 6.4l3.7 92 10.4 256.2"/>
			</g>
			<path id="&lt;Path&gt;" class="s3" d="m683.9 853.3l26.1-524.8 94.7 0.2 8 106.7 28.1 416.5"/>
			<path id="&lt;Path&gt;" class="s3" d="m710.8 268l4.1-87.4c0.1-2.8 2.4-5 5.2-5l72.6 0.3c3.4 0 6.2 2.6 6.3 6l3.3 86.1"/>
			<rect id="&lt;Path&gt;" class="s3" x="683" y="268" width="148.8" height="60.7" rx="4.1"></rect>
			<path id="&lt;Path&gt;" class="s3" d="m872.7 569.5h65.5"/>
			<path id="&lt;Path&gt;" class="s3" d="m869.2 648.5h67.2"/>
			<path id="&lt;Path&gt;" class="s2" d="m807.8 630.6c11.1-19.2 38.7-19.2 49.7 0l127 219.9c11.1 19.2-2.7 43.1-24.8 43.1h-254c-22.1 0-35.9-23.9-24.9-43.1z"/>
			<path id="&lt;Path&gt;" class="s3" d="m854.3 701.4v71.9c0 11.9-9.7 21.7-21.6 21.7-11.9 0-21.7-9.8-21.7-21.7v-71.9c0-11.9 9.8-21.6 21.7-21.6 11.9 0 21.6 9.7 21.6 21.6z"/>
			<circle id="&lt;Path&gt;" class="s3" cx="832.6" cy="843" r="21.6"/>
		</g>
		<g id="&lt;Group&gt;">
			<path id="&lt;Path&gt;" class="s2" d="m613 967.5v22.5c0 3.7-3 6.7-6.8 6.7h-504c-3.7 0-6.7-3-6.7-6.7v-22.5c0-3.7 3-6.7 6.7-6.7h27.9v-238.7c0-9.5 7.7-17.2 17.2-17.2h413.9c9.5 0 17.2 7.7 17.2 17.2v238.7h27.8c3.8 0 6.8 3 6.8 6.7z"/>
			<g id="&lt;Group&gt;">
				<g id="&lt;Group&gt;">
					<circle id="&lt;Path&gt;" class="s3" cx="458.4" cy="846.6" r="89.4"/>
				</g>
				<g id="&lt;Group&gt;">
					<g id="&lt;Group&gt;">
						<path id="&lt;Path&gt;" class="s4" d="m458.1 825.9c-2.5-10.4 3.7-28.2 14.3-32.5 11.4-4.6 24.3 3.1 32.3 10.8 4.2 4 7.9 8.8 9.8 14.3 1 2.8 1.7 8 0.5 11.7"/>
						<path id="&lt;Path&gt;" class="s4" d="m458.8 867.6c2.5 10.4-3.7 28.2-14.3 32.5-11.4 4.6-24.3-3.1-32.3-10.8-4.2-4-8-8.8-9.8-14.3-1-2.8-1.7-8-0.5-11.7"/>
						<g id="&lt;Group&gt;">
							<path id="&lt;Path&gt;" class="s4" d="m479.3 847.3c10.4-2.5 28.1 3.7 32.5 14.3 4.6 11.4-3.2 24.3-10.8 32.3-4 4.2-8.8 7.9-14.3 9.8-2.9 1-8 1.7-11.8 0.5"/>
							<path id="&lt;Path&gt;" class="s4" d="m437.6 848c-10.4 2.5-28.2-3.7-32.5-14.3-4.6-11.4 3.1-24.3 10.8-32.3 4-4.2 8.8-8 14.3-9.8 2.8-1 8-1.7 11.7-0.5"/>
						</g>
					</g>
				</g>
				<circle id="&lt;Path&gt;" class="s3" cx="458.4" cy="846.6" r="24"/>
			</g>
			<path id="&lt;Path&gt;" class="s4" d="m286.7 684.8c-12.2-12.2-12.2-32.1 0-44.3l4.6-5.3c12.2-12.2 12.2-32.1 0-44.3"/>
			<path id="&lt;Path&gt;" class="s4" d="m239.9 684.8c-12.2-12.2-12.2-32.1 0-44.3l4.6-5.3c12.2-12.2 12.2-32.1 0-44.3"/>
			<path id="&lt;Path&gt;" class="s4" d="m193.2 684.8c-12.3-12.2-12.3-32.1 0-44.3l4.5-5.3c12.3-12.2 12.3-32.1 0-44.3"/>
			<path id="&lt;Path&gt;" class="s4" d="m505.8 684.8c-12.2-12.2-12.2-32.1 0-44.3l4.6-5.3c12.2-12.2 12.2-32.1 0-44.3"/>
			<path id="&lt;Path&gt;" class="s4" d="m459 684.8c-12.2-12.2-12.2-32.1 0-44.3l4.6-5.3c12.2-12.2 12.2-32.1 0-44.3"/>
			<path id="&lt;Path&gt;" class="s4" d="m412.3 684.8c-12.3-12.2-12.3-32.1 0-44.3l4.5-5.3c12.3-12.2 12.3-32.1 0-44.3"/>
			<g id="&lt;Group&gt;">
				<g id="&lt;Group&gt;">
					<circle id="&lt;Path&gt;" class="s3" cx="251.6" cy="846.6" r="89.4"/>
				</g>
				<g id="&lt;Group&gt;">
					<g id="&lt;Group&gt;">
						<path id="&lt;Path&gt;" class="s4" d="m251.2 825.9c-2.5-10.4 3.7-28.2 14.3-32.5 11.4-4.6 24.3 3.1 32.3 10.8 4.2 4 8 8.8 9.8 14.3 1 2.8 1.7 8 0.5 11.7"/>
						<path id="&lt;Path&gt;" class="s4" d="m251.9 867.6c2.5 10.4-3.7 28.2-14.3 32.5-11.4 4.6-24.3-3.1-32.3-10.8-4.2-4-7.9-8.8-9.8-14.3-1-2.8-1.7-8-0.5-11.7"/>
						<g id="&lt;Group&gt;">
							<path id="&lt;Path&gt;" class="s4" d="m272.4 847.3c10.4-2.5 28.2 3.7 32.5 14.3 4.6 11.4-3.1 24.3-10.8 32.3-4 4.2-8.8 7.9-14.3 9.8-2.8 1-8 1.7-11.7 0.5"/>
							<path id="&lt;Path&gt;" class="s4" d="m230.7 848c-10.4 2.5-28.2-3.7-32.5-14.3-4.6-11.4 3.2-24.3 10.8-32.3 4-4.2 8.8-8 14.3-9.8 2.9-1 8-1.7 11.8-0.5"/>
						</g>
					</g>
				</g>
				<circle id="&lt;Path&gt;" class="s3" cx="251.6" cy="846.6" r="24"/>
			</g>
		</g>
		<g id="&lt;Group&gt;">
			<path id="&lt;Path&gt;" class="s3" d="m599.6 308.6v4.1c0 69.4-56.9 126.3-126.4 126.3h-124.5v21.5c0 23-18.8 41.8-41.7 41.8h-155.5c-23 0-41.8-18.8-41.8-41.8 0-10.1 3.6-19.3 9.6-26.6-52.6-15.2-91.4-63.9-91.4-121.2v-4.1c0-69.5 56.9-126.3 126.4-126.3h19c11.7-67 70.1-117.9 140.4-117.9 70.4 0 128.8 50.9 140.5 117.9h19c69.5 0 126.4 56.8 126.4 126.3z"/>
			<g id="&lt;Group&gt;">
				<path id="&lt;Path&gt;" class="s3" d="m160.5 386.5h97.2c4.7 0 8.5-3.8 8.5-8.5v-62.4c0-4.8-3.8-8.6-8.5-8.6h-88.7c-4.7 0-8.5-3.8-8.5-8.5v-62.4c0-4.7 3.8-8.6 8.5-8.6h97.2"/>
			</g>
			<path id="&lt;Path&gt;" class="s4" d="m307.3 386.5v-150.4c0-4.7 3.8-8.6 8.5-8.6h97.2"/>
			<path id="&lt;Path&gt;" class="s4" d="m307.3 306.4h73.6"/>
			<g id="&lt;Group&gt;">
				<path id="&lt;Path&gt;" class="s3" d="m478.3 307h-48.1c-4.1 0-7.5 3.4-7.5 7.5v37.3h48.1c4.2 0 7.5 3.3 7.5 7.5v29.7c0 4.2-3.3 7.5-7.5 7.5h-40.6c-4.1 0-7.5-3.3-7.5-7.5v-37.2"/>
			</g>
		</g>
	</g>
</svg>