<svg version="1.2" xmlns="http://www.w3.org/2000/svg" viewBox="0 0 1112 1095" width="200" height="197">
	<title>renewableEnergy</title>
	<style>
		.s0 { fill: none;stroke: #366088;stroke-linecap: round;stroke-linejoin: round;stroke-width: 11.4;stroke-dasharray: 57 } 
		.s1 { fill: #a4edf5 } 
		.s2 { fill: #ffffff;stroke: #366088;stroke-linecap: round;stroke-linejoin: round;stroke-width: 11.4 } 
		.s3 { fill: #d0fdff;stroke: #366088;stroke-linecap: round;stroke-linejoin: round;stroke-width: 11.4 } 
		.s4 { fill: none;stroke: #366088;stroke-linecap: round;stroke-linejoin: round;stroke-width: 11.4 } 
	</style>
	<g id="&lt;Group&gt;">
		<g id="&lt;Group&gt;">
			<path id="&lt;Path&gt;" class="s0" d="m248.9 106.4c89-63.9 198-101.5 315.9-101.5 48.1 0 94.7 6.3 139 18"/>
			<path id="&lt;Path&gt;" class="s0" d="m761.9 1051.7c-61.1 23.9-127.6 37-197.1 37-299.3 0-541.9-242.6-541.9-541.9q0-22.8 1.9-45.1"/>
			<path id="&lt;Path&gt;" class="s0" d="m1060 326.3c30 67.4 46.7 142 46.7 220.5 0 78.6-16.8 153.3-46.9 220.8"/>
			<circle id="&lt;Path&gt;" class="s1" cx="564.8" cy="546.8" r="397.9"/>
		</g>
		<g id="&lt;Group&gt;">
			<g id="&lt;Group&gt;">
				<path id="&lt;Path&gt;" class="s2" d="m195.8 828.1l13.4-452.3 35.3 12.4 13.3 439.9"/>
				<path id="&lt;Path&gt;" class="s3" d="m447.9 571.8l124.2 67.7c1.5 0.8 2.4 2.3 2.4 3.9v134.9c0 1.7-0.9 3.2-2.4 4l-124.2 67.7c-1.3 0.7-3 0.7-4.3 0l-124.2-67.7c-1.5-0.8-2.4-2.3-2.4-4v-134.9c0-1.6 0.9-3.1 2.4-3.9l124.2-67.7c1.3-0.7 3-0.7 4.3 0z"/>
				<path id="&lt;Path&gt;" class="s4" d="m17.8 364.5q0-3.1 0.1-6.2c2.1-65.5 37.8-123.1 91.3-157.9"/>
				<path id="&lt;Path&gt;" class="s4" d="m154.8 551c-39.4-13.9-73.2-38.6-97.3-70.3"/>
				<path id="&lt;Path&gt;" class="s4" d="m327.8 540.5c-13 6.5-26.8 11.7-41.3 15.6"/>
				<path id="&lt;Path&gt;" class="s4" d="m340.3 195.3c59.8 35.2 99.6 97.8 99.6 169.2q0 5.7-0.3 11.3"/>
				<path id="&lt;Path&gt;" class="s4" d="m147.1 180.8c25.1-9.9 52.8-15.5 81.8-15.5"/>
				<path id="&lt;Path&gt;" class="s4" d="m70.7 328.7c15-59.5 66.7-105.5 131.3-115.6"/>
				<path id="&lt;Path&gt;" class="s4" d="m165.6 505.9c-28.5-11.3-52.9-30.2-70.4-53.9"/>
				<path id="&lt;Path&gt;" class="s4" d="m340.3 252.6c31.6 28 51.3 67.8 51.3 111.9 0 10.6-1.2 21-3.4 31"/>
				<path id="&lt;Path&gt;" class="s3" d="m210.8 349c-10-13.3-13.5-30.8-7.8-47.4l66.4-131.7c3.1-9 13.5-14 23-11 9.6 2.9 14.9 12.7 11.7 21.7v0.2l-59.1 171.2"/>
				<path id="&lt;Path&gt;" class="s3" d="m245 352c16.4-1.4 33.4 3.9 45.7 16l92.3 117c6.9 6.8 6.7 17.7-0.5 24.3-7.2 6.6-18.8 6.4-25.8-0.4l-0.2-0.1-126.3-123.3"/>
				<path id="&lt;Path&gt;" class="s3" d="m221.6 385.3c-6.6 16-21.2 28.7-40.1 32.7l-153.9 13.3c-9.8 2.1-19.7-3.7-21.8-13-2.2-9.2 4-18.5 13.8-20.6h0.2l185.6-39.4"/>
				<path id="&lt;Path&gt;" class="s2" d="m222.1 344.5c12-2.5 23.7 4.7 26.3 16 2.6 11.3-5 22.4-16.9 24.8-12 2.5-23.8-4.7-26.4-16-2.5-11.2 5-22.4 17-24.8z"/>
				<path id="&lt;Path&gt;" class="s2" d="m387.2 735.7l60.4-119.6c0.4-0.8 1.7-0.5 1.7 0.4l-1.4 80.1c0 0.6 0.5 1 1.1 0.8l54.4-12.4c0.7-0.2 1.3 0.5 1 1.2l-60.4 119.4c-0.4 0.8-1.7 0.5-1.7-0.4l3-80.3c0-0.5-0.5-0.9-1.1-0.8l-56 12.8c-0.7 0.2-1.3-0.5-1-1.2z"/>
			</g>
			<g id="&lt;Group&gt;">
				<path id="&lt;Path&gt;" class="s2" d="m711.5 499.4v-139.8h99.5v139.8"/>
				<path id="&lt;Path&gt;" class="s3" d="m550.8 63.2h405.2c1.7 0 3.1 1.2 3.4 2.8l51.8 288.3c0.3 2-1.3 3.8-3.4 3.8h-494.4c-2.1 0-3.7-1.7-3.5-3.7l37.4-288.3c0.3-1.6 1.7-2.9 3.5-2.9z"/>
				<path id="&lt;Path&gt;" class="s4" d="m824.9 63.2l27.9 294.9"/>
				<path id="&lt;Path&gt;" class="s4" d="m660.9 358.1l20.2-294.9"/>
				<path id="&lt;Path&gt;" class="s4" d="m529.3 204.7h455"/>
				<path id="&lt;Path&gt;" class="s4" d="m642.4 501.7h247.6"/>
			</g>
			<g id="&lt;Group&gt;">
				<g id="&lt;Group&gt;">
					<path id="&lt;Path&gt;" class="s3" d="m863.5 933.2c-2.4-0.8-4.7-2-6.9-3.4-10.3-6.9-23.7-6.9-34 0-3.4 2.2-7 3.7-10.8 4.5 9.9-30.9 48.8-151.4 60.1-185.3q13-39 36.4-45.9h25.2z"/>
				</g>
				<path id="&lt;Path&gt;" class="s3" d="m756.4 928.6c12.1-37.7 47.5-147.5 58.2-179.6q13.1-39 36.5-45.9h57.2q-23.4 6.9-36.4 45.9c-11.3 33.9-50.2 154.4-60.1 185.3-7.9 1.6-16.3 0.1-23.3-4.5-9.7-6.5-22.1-6.9-32.1-1.2z"/>
				<path id="&lt;Path&gt;" class="s2" d="m1026.7 661.8v268c-10.3 6.8-23.7 6.8-34 0-10.3-6.9-23.8-6.9-34.1 0-10.3 6.8-23.7 6.8-34 0-10.3-6.9-23.7-6.9-34 0-8.1 5.4-18.2 6.5-27.1 3.4l82.5-271.4z"/>
				<path id="&lt;Path&gt;" class="s3" d="m700.4 924.8c13.1-40.8 46.6-144.7 57-175.8q13-39 36.4-45.9h57.3q-23.4 6.9-36.5 45.9c-10.7 32.1-46.1 141.9-58.2 179.6q-1 0.6-1.9 1.2c-10.3 6.8-23.7 6.8-34 0-6.1-4.1-13.2-5.7-20.1-5z"/>
				<path id="&lt;Path&gt;" class="s3" d="m658.7 933c10.6-32.8 48.5-150.5 59.7-184q13-39 36.4-45.9h39q-23.4 6.9-36.4 45.9c-10.4 31.1-43.9 135-57 175.8-4.9 0.5-9.7 2.1-13.9 5-8.3 5.5-18.7 6.6-27.8 3.2z"/>
				<path id="&lt;Path&gt;" class="s2" d="m603.9 934.8l84.6-273h66.3v41.3q-23.4 6.9-36.4 45.9c-11.2 33.5-49.1 151.2-59.7 184q-3.3-1.2-6.3-3.2c-10.3-6.9-23.7-6.9-34 0-4.4 2.9-9.4 4.6-14.5 5z"/>
				<path id="&lt;Path&gt;" class="s2" d="m688.5 596.8h338.2v65h-338.2z"/>
				<path id="&lt;Path&gt;" class="s3" d="m1026.7 985.1c0 15.4-12.5 28-28 28h-386.3c-15.5 0-28-12.6-28-28v-18.4c10.3 6.8 23.7 6.8 34 0 10.3-6.9 23.7-6.9 34 0 10.4 6.8 23.8 6.8 34.1 0 10.3-6.9 23.7-6.9 34 0 10.3 6.8 23.7 6.8 34 0 10.3-6.9 23.7-6.9 34 0 10.3 6.8 23.8 6.8 34.1 0 10.3-6.9 23.7-6.9 34 0 10.3 6.8 23.7 6.8 34 0 10.3-6.9 23.7-6.9 34 0 10.3 6.8 23.7 6.8 34 0 10.3-6.9 23.8-6.9 34.1 0 10.3 6.8 23.7 6.8 34 0z"/>
				<path id="&lt;Path&gt;" class="s2" d="m754.8 703.1v-41.3h57v41.3z"/>
				<path id="&lt;Path&gt;" class="s2" d="m882.7 661.8v41.3h-70.9v-41.3z"/>
				<path id="&lt;Path&gt;" class="s2" d="m924.6 703.1h-41.9v-41.3h63.3z"/>
				<path id="&lt;Path&gt;" class="s2" d="m1026.7 929.8v36.9c-10.3 6.8-23.7 6.8-34 0-10.3-6.9-23.8-6.9-34.1 0-10.3 6.8-23.7 6.8-34 0-10.3-6.9-23.7-6.9-34 0-10.3 6.8-23.7 6.8-34 0-10.3-6.9-23.7-6.9-34 0-10.3 6.8-23.8 6.8-34.1 0-10.3-6.9-23.7-6.9-34 0-10.3 6.8-23.7 6.8-34 0-10.3-6.9-23.7-6.9-34 0-10.3 6.8-23.7 6.8-34.1 0-10.3-6.9-23.7-6.9-34 0-10.3 6.8-23.7 6.8-34 0v-36.9c10.3 6.8 23.7 6.8 34 0 10.3-6.9 23.7-6.9 34 0 10.4 6.8 23.8 6.8 34.1 0 10.3-6.9 23.7-6.9 34 0 10.3 6.8 23.7 6.8 34 0 10.3-6.9 23.7-6.9 34 0 10.3 6.8 23.8 6.8 34.1 0 10.3-6.9 23.7-6.9 34 0 10.3 6.8 23.7 6.8 34 0 10.3-6.9 23.7-6.9 34 0 10.3 6.8 23.7 6.8 34 0 10.3-6.9 23.8-6.9 34.1 0 10.3 6.8 23.7 6.8 34 0z"/>
				<path id="&lt;Path&gt;" class="s2" d="m688.5 570.8h312.2c14.3 0 26 11.6 26 26h-364.2c0-14.4 11.6-26 26-26z"/>
			</g>
		</g>
	</g>
</svg>