<svg version="1.2" xmlns="http://www.w3.org/2000/svg" viewBox="0 0 1160 1160" width="200" height="200">
	<title>supplier</title>
	<style>
		.s0 { fill: none;stroke: #366088;stroke-linecap: round;stroke-linejoin: round;stroke-width: 12;stroke-dasharray: 60 } 
		.s1 { fill: #a4edf5 } 
		.s2 { fill: #d0fdff } 
		.s3 { fill: #366088 } 
		.s4 { fill: #ffffff;stroke: #366088;stroke-linecap: round;stroke-linejoin: round;stroke-width: 12 } 
		.s5 { fill: #ffffff } 
		.s6 { fill: none;stroke: #366088;stroke-linecap: round;stroke-linejoin: round;stroke-width: 12 } 
		.s7 { fill: #d0fdff;stroke: #366088;stroke-linecap: round;stroke-linejoin: round;stroke-width: 12 } 
	</style>
	<g id="&lt;Group&gt;">
		<g id="&lt;Group&gt;">
			<path id="&lt;Path&gt;" class="s0" d="m5.4 577.6q0.3-27.2 3.1-54.7c14.7-141.7 81.1-272.1 187.2-367.1q12.1-10.9 24.8-21"/>
			<path id="&lt;Path&gt;" class="s0" d="m928.5 1034.1c-100.1 77.7-223 120.1-350.2 120.1-19.7 0-39.7-1-59.4-3.1-108.8-11.3-209.9-52.4-293.9-118.3"/>
			<path id="&lt;Path&gt;" class="s0" d="m874 92.2c183.3 111.2 296.6 321.5 273.1 548.5-4.7 44.9-14.5 88.6-29.1 130.4"/>
			<path id="&lt;Path&gt;" class="s1" d="m159.3 538.5c24-231.1 230.7-399 461.8-375.1 231.1 23.9 399.1 230.6 375.1 461.7-23.9 231.1-230.6 399.1-461.7 375.2-231.1-23.9-399.1-230.7-375.2-461.8z"/>
		</g>
		<g id="&lt;Group&gt;">
			<g id="&lt;Group&gt;">
				<g id="&lt;Group&gt;">
					<path id="&lt;Path&gt;" class="s2" d="m225.1 855.8v24.3l-153.4-0.1v-160.6 36.5h-48.2l-2.9-0.4v-72.6c0-28.3 22.9-51.2 51.1-51.2h124c28.3 0 51.1 22.9 51.1 51.2"/>
					<path id="&lt;Path&gt;" class="s3" d="m225.1 886q0 0 0 0h-153.4c-3.3 0-6-2.7-6-6v-118.1h-42.2q-0.4 0-0.8-0.1l-2.9-0.3c-3-0.4-5.2-3-5.2-6v-72.6c0-31.5 25.6-57.1 57.1-57.1h124c31.5 0 57.1 25.6 57.1 57.1 0 3.3-2.7 5.9-6 5.9-3.3 0-5.9-2.6-5.9-5.9 0-24.9-20.3-45.2-45.2-45.2h-124c-24.9 0-45.2 20.3-45.2 45.2v67h39.2v-30.5c0-3.3 2.7-6 6-6 3.3 0 6 2.7 6 6v154.6l141.4 0.1v-18.3c0-3.3 2.7-6 6-6 3.3 0 5.9 2.7 5.9 6v24.3c0 1.5-0.6 3.1-1.7 4.2-1.1 1.1-2.7 1.7-4.2 1.7z"/>
				</g>
				<circle id="&lt;Path&gt;" class="s4" cx="148.4" cy="533.2" r="62.1"/>
				<g id="&lt;Group&gt;">
					<path id="&lt;Path&gt;" class="s5" d="m151.4 844.2h-94.1c-20.3 0-36.7-16.4-36.7-36.7v-52h51.1v35.7h92.9"/>
					<path id="&lt;Path&gt;" class="s3" d="m151.4 850.2h-94.1c-23.6 0-42.7-19.2-42.7-42.7v-52c0-3.3 2.7-5.9 6-5.9h51.1c3.3 0 6 2.6 6 5.9v29.7h86.9c3.3 0 6 2.7 6 6 0 3.3-2.7 5.9-6 5.9h-92.9c-3.3 0-5.9-2.6-5.9-5.9v-29.7h-39.3v46c0 16.9 13.8 30.7 30.8 30.7h94.1c3.3 0 6 2.7 6 6 0 3.3-2.7 6-6 6z"/>
				</g>
				<g id="&lt;Group&gt;">
					<path id="&lt;Path&gt;" class="s2" d="m71.7 985.2v-105.2l153.4 0.4v105.9"/>
					<path id="&lt;Path&gt;" class="s3" d="m225.1 992.3c-3.3 0-6-2.7-6-6v-99.9l-141.4-0.4v99.2c0 3.3-2.7 5.9-6 5.9-3.3 0-6-2.6-6-5.9v-105.2c0-1.6 0.6-3.1 1.8-4.3 1.1-1.1 2.6-1.7 4.2-1.7q0 0 0 0l153.4 0.4c3.3 0.1 5.9 2.7 5.9 6v105.9c0 3.3-2.6 6-5.9 6z"/>
				</g>
				<path id="&lt;Path&gt;" class="s6" d="m152 982.9v-44.4"/>
				<g id="&lt;Group&gt;">
					<circle id="&lt;Path&gt;" class="s4" cx="404.1" cy="533.2" r="62.1"/>
					<g id="&lt;Group&gt;">
						<path id="&lt;Path&gt;" class="s5" d="m531.9 748.1v138.2c0 16.7-13.5 30.3-30.3 30.3h-20.8-153.4-20.8c-16.7 0-30.3-13.6-30.3-30.3v-136"/>
						<path id="&lt;Path&gt;" class="s3" d="m501.6 922.5h-195c-20 0-36.3-16.2-36.3-36.2v-136c0-3.3 2.7-5.9 6-5.9 3.3 0 6 2.6 6 5.9v136c0 13.4 10.9 24.3 24.3 24.3h195c13.4 0 24.3-10.9 24.3-24.3v-138.2c0-3.3 2.7-5.9 6-5.9 3.3 0 6 2.6 6 5.9v138.2c0 20-16.3 36.2-36.3 36.2z"/>
					</g>
					<g id="&lt;Group&gt;">
						<path id="&lt;Path&gt;" class="s2" d="m327.4 985.2v-105.6h153.4v106.7"/>
						<path id="&lt;Path&gt;" class="s3" d="m480.8 992.3c-3.3 0-6-2.7-6-6v-100.7h-141.4v99.6c0 3.3-2.7 5.9-6 5.9-3.3 0-6-2.6-6-5.9v-105.6c0-3.3 2.7-5.9 6-5.9h153.4c3.3 0 6 2.6 6 5.9v106.7c0 3.3-2.7 6-6 6z"/>
					</g>
					<g id="&lt;Group&gt;">
						<path id="&lt;Path&gt;" class="s2" d="m276.3 686.6v-3.7c0-28.3 22.9-51.2 51.1-51.2h153.4c28.2 0 51.1 22.9 51.1 51.2v74.1l-7.3-1.1h-43.8v-36.5 160.2h-153.4v-123.7h-14.5"/>
						<path id="&lt;Path&gt;" class="s3" d="m480.8 885.6h-153.4c-3.3 0-6-2.7-6-6v-117.7h-8.5c-3.3 0-5.9-2.7-5.9-6 0-3.3 2.6-6 5.9-6h14.5c3.3 0 6 2.7 6 6v117.8h141.4v-154.3c0-3.3 2.7-6 6-6 3.3 0 6 2.7 6 6v30.5h37.8q0.5 0 0.9 0.1l0.4 0.1v-67.2c0-24.9-20.2-45.2-45.1-45.2h-153.4c-24.9 0-45.1 20.3-45.1 45.2v3.7c0 3.3-2.7 6-6 6-3.3 0-6-2.7-6-6v-3.7c0-31.5 25.6-57.1 57.1-57.1h153.4c31.5 0 57.1 25.6 57.1 57.1v74.1c0 1.7-0.8 3.4-2.1 4.5-1.3 1.2-3 1.7-4.8 1.4l-6.8-1h-37.4v117.7c0 3.3-2.7 6-6 6z"/>
					</g>
					<path id="&lt;Path&gt;" class="s6" d="m407.8 982.9v-44.4"/>
				</g>
				<g id="&lt;Group&gt;">
					<path id="&lt;Path&gt;" class="s5" d="m251.1 855.8h-102.7l50.8-169.4h129.9l-35.1 131.7"/>
					<path id="&lt;Path&gt;" class="s3" d="m251.1 861.8h-102.7c-1.9 0-3.7-0.9-4.8-2.4-1.1-1.6-1.5-3.5-0.9-5.3l50.8-169.5c0.8-2.5 3.1-4.2 5.7-4.2h129.9c1.9 0 3.6 0.8 4.8 2.3 1.1 1.5 1.5 3.4 1 5.2l-35.1 131.8c-0.9 3.1-4.1 5-7.3 4.2-3.2-0.9-5.1-4.1-4.3-7.3l33.2-124.3h-117.7l-47.3 157.5h94.7c3.3 0 6 2.7 6 6 0 3.3-2.7 6-6 6z"/>
				</g>
				<path id="&lt;Path&gt;" class="s4" d="m305.6 841.2l-10.3 28.9c-3.1 8.8-12.8 13.4-21.7 10.3l-1.9-0.7c-16.8-6-25.6-24.5-19.6-41.3 6-16.8 24.5-25.5 41.3-19.6l1.9 0.7c8.8 3.2 13.4 12.9 10.3 21.7z"/>
			</g>
			<g id=" star 4 ">
				<g id="&lt;Group&gt;">
					<path id="&lt;Path&gt;" class="s7" d="m837.9 937.1l-126.3-118.7c-0.4-4.9-0.2-9.9 0.7-15.1l8-48.1c3.3-20.1-3.6-40.5-18.4-54.5l-35.6-33.8c-37.3-35.4-17.3-97.7 33.8-105.5l48.7-7.4c20.3-3.1 37.7-15.8 46.7-34.1l21.4-43.9c22.6-46 88.6-46.5 111.9-0.8l22.1 43.5c9.3 18.2 26.9 30.6 47.2 33.4l48.9 6.6c51.2 7 72.1 69 35.4 105l-35.1 34.3c-14.6 14.3-21.1 34.8-17.5 54.8l8.7 48q0.7 3.8 0.9 7.5c-39.8 74.4-103.7 121.2-201.5 128.8z"/>
					<path id="&lt;Path&gt;" class="s4" d="m867 721l124.7-123.4c8.4-8.4 22.2-8.4 30.7 0 8.4 8.3 8.4 22 0 30.3l-124.7 123.4-17.8 17.9c-8.5 8.4-22.3 8.4-30.7 0l-92.6-91.7c-8.5-8.3-8.5-22 0-30.3 8.4-8.3 22.2-8.3 30.6 0l76.9 76.1 0.3 0.3z"/>
				</g>
				<g id="&lt;Group&gt;">
					<g id="&lt;Group&gt;">
						<path id="&lt;Path&gt;" class="s5" d="m1148 997.1h-311.5c-10.6 0.2-20.4-3.3-28.2-9.3l-148.5-99.7q-36.5-24.5-11.6-60.1 22.9-36.8 54.5-15.7l75 50.4 30.8 20.6c-0.3-1.1-0.5-2.2-0.6-3.3-0.7-23.9 18.4-45.8 42.3-48.6l174.7-20.9c5.3-0.6 27.3-2 33.6-2.2 32.1-0.8 59.7 21 66.9 50.7v-1.6h24.6"/>
						<path id="&lt;Path&gt;" class="s3" d="m835.2 1003c-10.9 0-21.8-3.7-30.5-10.5l-148.2-99.4c-12.3-8.2-19.6-18.5-21.9-30.6-3.7-19.9 8.1-37.2 8.6-37.9 0.4-0.5 12.6-19.8 32.2-24 10.3-2.2 20.6 0.1 30.6 6.8l96.4 64.7c3.3-23.9 23-43.8 47.1-46.7l174.7-20.8c5.6-0.7 27.8-2.1 34.1-2.2 32.1-0.8 61 19.4 71.1 49h20.6c3.3 0 5.9 2.7 5.9 6 0 3.3-2.6 6-5.9 6h-20.5c-0.9 0.8-2.1 1.4-3.4 1.5-3 0.4-5.8-1.5-6.5-4.5-6.7-27.5-32.4-47-60.9-46.1-6.6 0.2-28.2 1.5-33.1 2.1l-174.6 20.9c-21.1 2.5-37.7 21.6-37.1 42.5 0 0.4 0.2 1.4 0.4 2.3 0.5 2.4-0.5 4.8-2.5 6.2-2 1.3-4.7 1.3-6.7 0l-105.8-71c-7.3-4.9-14.2-6.5-21.4-5-14.5 3.1-24.6 18.7-24.7 18.9-0.2 0.4-9.7 14.3-6.8 29.2 1.7 8.8 7.3 16.4 16.7 22.8l148.6 99.6c7.2 5.7 16 8.5 24.7 8.3h311.6c3.3 0 5.9 2.7 5.9 6 0 3.3-2.6 5.9-5.9 5.9h-311.5q-0.6 0-1.3 0z"/>
					</g>
					<path id="&lt;Path&gt;" class="s6" d="m970.8 904.3l-113.4 13.6c-24.1 2.9-46.1-14.1-49-37.7-2.9-23.7 14.4-45.4 38.5-48.2"/>
					<path id="&lt;Path&gt;" class="s6" d="m1114.6 836q16.9 23.3 11.9 53.3"/>
					<path id="&lt;Path&gt;" class="s6" d="m848.4 873.8l20.4-2.2c15-1.7 28.6 9.1 30.3 24l0.5 16.7"/>
					<path id="&lt;Path&gt;" class="s6" d="m679.9 845.8l14.2 12.2c10.4 9.1 11.5 24.9 2.3 35.2l-11.1 10.6"/>
				</g>
			</g>
			<g id="&lt;Group&gt;">
				<g id="&lt;Group&gt;">
					<g id="&lt;Group&gt;">
						<path id="&lt;Path&gt;" class="s4" d="m757.2 319c-10.9 15.3-30.9 18.2-44.6 6.5 13.7 11.7 15.9 33.6 4.9 48.9-11 15.3-31 18.2-44.7 6.5l-14.1-12.1c7.6 6.5 11.7 16 12 25.9 0.2 8-2.1 16.2-7 23-11 15.3-31 18.2-44.7 6.5l-25.6-21.8c7.6 6.4 11.7 16 12 25.8 0.2 8-1.3 13.1-6.2 19.8-6.6 9.1-22.1 20.5-39.2 7.7l-278.2-228c2.6-1.2 5-3.2 7-5.8l102.8-143.5q6-8.4 12.2-14.4c4.7-0.9 12.4 3.7 25.2 3.6 36.4-0.4 117.1-0.2 145.7 18q9.6 6.1 158 168l19.6 16.5c13.7 11.7 15.9 33.6 4.9 48.9z"/>
						<path id="&lt;Path&gt;" class="s6" d="m712.6 325.5l-54.7-44.5"/>
						<path id="&lt;Path&gt;" class="s6" d="m658.7 368.8l-41.9-35.8"/>
						<path id="&lt;Path&gt;" class="s6" d="m593.4 402.4l-9.4-9.3"/>
						<g id="&lt;Group&gt;">
							<path id="&lt;Path&gt;" class="s7" d="m351.2 7.5l75.9 49.7c8.9 6.7 10.8 19.8 4.4 29.2l-110.5 160.9c-6.5 9.4-18.9 11.5-27.8 4.8l-72.7-55.2z"/>
						</g>
					</g>
					<g id="&lt;Group&gt;">
						<path id="&lt;Path&gt;" class="s5" d="m810.6 265.1l-38.5 19.4-177.9-143.2-115.7 57.4c-18 10.7-41.3 4.7-52-13.3-10.7-18-4.7-41.3 13.3-52l97.3-46.5c32.8-14.4 61.8-21.1 101.9-17.5 15.2 1.4 39 5.4 44.5 6.7"/>
						<path id="&lt;Path&gt;" class="s3" d="m772.1 290.5c-1.3 0-2.6-0.5-3.7-1.4l-175-140.7-112.2 55.7c-20.5 12.1-47.5 5.2-59.8-15.6-0.1-0.2-0.2-0.4-0.3-0.6-5.7-9.6-7.4-21.4-4.5-32.7 2.9-11.4 10.1-20.9 20.2-26.9l97.7-46.8c36.8-16.2 67.2-21.4 105-18 15 1.3 39.3 5.3 45.4 6.8 3.2 0.8 5.2 4 4.4 7.2-0.8 3.2-4 5.2-7.2 4.4-5-1.2-28.7-5.2-43.7-6.5-36.1-3.3-63.8 1.5-98.9 17l-97.1 46.4c-6.9 4.1-12.1 11.1-14.2 19.3-2.1 8.3-0.9 16.9 3.5 24.2 0.1 0.2 0.2 0.4 0.3 0.6 8.7 14.6 28.3 19.7 43.5 10.7l116.1-57.6c2.1-1.1 4.5-0.8 6.4 0.7l174.9 140.7 35-17.6c2.9-1.5 6.6-0.3 8 2.6 1.5 2.9 0.3 6.5-2.6 8l-38.5 19.4c-0.8 0.5-1.7 0.7-2.7 0.7z"/>
					</g>
					<g id="&lt;Group&gt;">
						<path id="&lt;Path&gt;" class="s4" d="m509.6 375.6c12.5-10.9 31.2-9.3 41.8 3.6 10.6 13 9.1 32.4-3.4 43.3l-29.2 23.2c-12 6.7-27.4 3.9-36.5-7.3-4.7-5.6-7-12.5-7.1-19.3-0.1-8.9 3.5-17.8 10.5-24z"/>
						<path id="&lt;Path&gt;" class="s4" d="m372.8 333c-12.5 11-31.2 9.4-41.8-3.6-10.6-12.9-9-32.3 3.5-43.3l40.9-33c12.1-6.7 27.4-4 36.6 7.3 4.6 5.6 6.9 12.5 7 19.3 0.2 8.9-3.4 17.8-10.5 24z"/>
						<g id="&lt;Group&gt;">
							<path id="&lt;Path&gt;" class="s4" d="m470.2 330.1l12.9-11.3c12.5-10.9 31.2-9.3 41.8 3.7 10.5 12.9 9 32.3-3.5 43.2l-35.7 29.4-23.3 20.5c-12.5 10.9-31.2 9.3-41.8-3.7-4.6-5.6-6.9-12.4-7.1-19.3-0.1-8.9 3.5-17.7 10.5-23.9z"/>
						</g>
						<g id="&lt;Group&gt;">
							<path id="&lt;Path&gt;" class="s4" d="m408.5 303.7l23.4-20.5c12.5-10.9 31.2-9.3 41.8 3.6 4.6 5.7 6.9 12.5 7 19.4 0.1 8.9-3.4 17.7-10.5 23.9l-46.2 38.6-12.8 11.2c-12.5 11-31.2 9.4-41.8-3.6-10.6-12.9-9.1-32.3 3.4-43.3z"/>
						</g>
						<g id="&lt;Group&gt;">
							<path id="&lt;Path&gt;" class="s5" d="m408.5 303.7l-35.7 29.3"/>
							<path id="&lt;Path&gt;" class="s3" d="m372.8 339c-1.7 0-3.4-0.7-4.6-2.2-2.1-2.5-1.7-6.3 0.8-8.4l35.7-29.4c2.6-2.1 6.3-1.7 8.4 0.9 2.1 2.5 1.8 6.3-0.8 8.4l-35.7 29.4c-1.1 0.9-2.4 1.3-3.8 1.3z"/>
						</g>
					</g>
					<path id="&lt;Path&gt;" class="s7" d="m899.9 225.8l-81.5 47.3c-10 5.7-22.9 2-28.9-8.3l-102.7-177.1c-6-10.4-2.9-23.4 7.1-29.2l81.9-51.2z"/>
				</g>
			</g>
		</g>
	</g>
</svg>