<svg version="1.2" xmlns="http://www.w3.org/2000/svg" viewBox="0 0 1178 1186" width="200" height="201">
	<title>transportation2-svg</title>
	<style>
		.s0 { fill: none;stroke: #366088;stroke-linecap: round;stroke-linejoin: round;stroke-width: 13;stroke-dasharray: 65 } 
		.s1 { fill: #a4edf5 } 
		.s2 { fill: #d0fdff;stroke: #366088;stroke-linecap: round;stroke-linejoin: round;stroke-width: 13 } 
		.s3 { fill: #ffffff;stroke: #366088;stroke-linecap: round;stroke-linejoin: round;stroke-width: 13 } 
		.s4 { fill: none;stroke: #366088;stroke-linecap: round;stroke-linejoin: round;stroke-width: 13 } 
	</style>
	<g id="&lt;Group&gt;">
		<g id="&lt;Group&gt;">
			
			<circle id="&lt;Path&gt;" class="s1" cx="589.2" cy="596.4" r="428.2"/>
		</g>
		<g id="&lt;Group&gt;">
			<path id="&lt;Path&gt;" class="s2" d="m373.8 343v-92.9-155.7c0-19 15.3-34.3 34.3-34.3h337.9c33.9 0 65.9 15.1 87.4 41.2l125.4 152.3c9.1 11.1 14.1 25 14.1 39.3v50.1"/>
			<path id="&lt;Path&gt;" class="s2" d="m972.9 343h7.2c5.7 0 10.3 4.6 10.3 10.3v31.9c0 5.7-4.6 10.3-10.3 10.3h-87.3-425.3-101c-5.7 0-10.3-4.6-10.3-10.3v-31.9c0-5.7 4.6-10.3 10.3-10.3h7.3"/>
			<g id="&lt;Group&gt;">
				<path id="&lt;Path&gt;" class="s3" d="m617.3 318.1h-41.9v-41.9h41.9z"/>
				<path id="&lt;Path&gt;" class="s3" d="m701.1 318.1h-41.9v-41.9h41.9z"/>
				<path id="&lt;Path&gt;" class="s3" d="m659.2 360h-41.9v-41.9h41.9z"/>
				<path id="&lt;Path&gt;" class="s3" d="m743 360h-41.9v-41.9h41.9z"/>
				<path id="&lt;Path&gt;" class="s3" d="m784.9 318.1h-41.9v-41.9h41.9z"/>
			</g>
			<g id="&lt;Group&gt;">
				<path id="&lt;Path&gt;" class="s3" d="m544.3 60.1c-7.5 0-12.7-7.5-10-14.6l10.4-27.2c3.2-8.2 11-13.6 19.8-13.6h68.9c8.7 0 16.6 5.4 19.8 13.6l10.4 27.2c2.7 7.1-2.5 14.6-10 14.6z"/>
			</g>
			<path id="&lt;Path&gt;" class="s3" d="m947.6 240h-132.3c-8.7 0-15.8-7.1-15.8-15.8v-71.2c0-8.7 7.1-15.8 15.8-15.8h47.6z"/>
			<rect id="&lt;Path&gt;" class="s3" x="411.8" y="137.2" width="355.2" height="102.9" rx="15.9"></rect>
			<circle id="&lt;Path&gt;" class="s3" cx="840.3" cy="395.5" r="52.6"/>
			<circle id="&lt;Path&gt;" class="s3" cx="520" cy="395.5" r="52.6"/>
		</g>
		<g id="&lt;Group&gt;">
			<rect id="&lt;Path&gt;" class="s2" x="84.5" y="505.1" width="368.8" height="448.9" rx="27.3"></rect>
			<path id="&lt;Path&gt;" class="s3" d="m453.3 573.6v144l-21.1 19.1c-10.3 9.3-23.7 14.5-37.5 14.5h-251.5c-13.9 0-27.3-5.2-37.5-14.5l-21.2-19.1v-144"/>
			<path id="&lt;Path&gt;" class="s4" d="m84.5 891.3h368.8"/>
			<path id="&lt;Path&gt;" class="s3" d="m165.1 859h-80.6v-32.1h80.6c3.3 0 6 2.7 6 6v20.1c0 3.3-2.7 6-6 6z"/>
			<path id="&lt;Path&gt;" class="s3" d="m453.3 859h-80.5c-3.4 0-6.1-2.7-6.1-6v-20.1c0-3.3 2.7-6 6.1-6h80.5z"/>
			<rect id="&lt;Path&gt;" class="s2" x="5.5" y="626.9" width="46.3" height="124.3" rx="12"></rect>
			<rect id="&lt;Path&gt;" class="s2" x="486.1" y="626.9" width="46.3" height="124.3" rx="12"></rect>
			<path id="&lt;Path&gt;" class="s2" d="m168 1017.2h-37.9c-7.6 0-13.7-6.2-13.7-13.7v-49.5h65.3v49.5c0 7.5-6.2 13.7-13.7 13.7z"/>
			<path id="&lt;Path&gt;" class="s2" d="m407.8 1017.2h-37.9c-7.6 0-13.7-6.2-13.7-13.7v-49.5h65.2v49.5c0 7.5-6.1 13.7-13.6 13.7z"/>
			<path id="&lt;Path&gt;" class="s4" d="m28.6 626.9v-16.5c0-20.3 16.4-36.8 36.7-36.8h19.2 368.8 19.2c20.3 0 36.8 16.5 36.8 36.8v16.5"/>
			<path id="&lt;Path&gt;" class="s4" d="m321.6 891.3v62.7"/>
			<path id="&lt;Path&gt;" class="s4" d="m216.2 891.3v62.7"/>
		</g>
		<g id="&lt;Group&gt;">
			<ellipse id="&lt;Path&gt;" class="s3" cx="1006.3" cy="564" rx="46.3" ry="46.5"/>
			<path id="&lt;Path&gt;" class="s2" d="m913.3 689.7c1-38.6 39.8-51.4 60.1-51.4q0.3 0 0.7 0l66.3-0.3q0.2 0 0.4 0h0.8c32.5 0.7 58.8 26.2 58.5 56.7l-1.3 135.1c-0.1 11.5-10.4 20.8-22.6 20.7-8.1-0.1-15-4.1-19-10v185c0 14.9-10.2 26.9-26.4 27q-21.9 0.1-25.5-22.7-3.9 20.3-23.7 22.7c-16 2-30-8.3-30-23.3v-184.7c-4.1 4.2-10 6.9-16.7 6.9h-0.1c-12.4 0-22.4-9.4-22.3-20.9z"/>
			<path id="&lt;Path&gt;" class="s4" d="m1057.1 705.5l0.1 135"/>
			<path id="&lt;Path&gt;" class="s4" d="m1005.3 838.4v191.4"/>
			<ellipse id="&lt;Path&gt;" class="s3" cx="710.9" cy="564" rx="46.3" ry="46.5"/>
			<path id="&lt;Path&gt;" class="s2" d="m804.7 830.5c0.1 11.5-9.9 20.9-22.3 20.9h-0.2c-6.6 0-12.5-2.7-16.6-6.9v184.7c0 15-14 25.3-30 23.3q-19.8-2.4-23.7-22.7-3.7 22.8-25.6 22.7c-16.2-0.1-26.4-12.1-26.4-27v-185c-3.9 5.9-10.9 9.9-18.9 10-12.3 0.1-22.6-9.2-22.7-20.7l-1.2-135.1c-0.3-30.5 25.9-56 58.5-56.7h0.8q0.2 0 0.4 0l66.3 0.3q0.3 0 0.7 0c20.3 0 59 12.8 60 51.4z"/>
			<path id="&lt;Path&gt;" class="s4" d="m660.1 705.5l-0.2 135"/>
			<path id="&lt;Path&gt;" class="s4" d="m711.9 838.4v191.4"/>
			<ellipse id="&lt;Path&gt;" class="s3" cx="857.5" cy="590.8" rx="46.3" ry="46.5"/>
			<path id="&lt;Path&gt;" class="s3" d="m951.3 857.2c0.1 11.5-9.9 20.9-22.3 21h-0.1c-6.6 0-12.6-2.7-16.7-6.9l0.1 184.7c0 15-14 25.3-30 23.3q-19.8-2.4-23.7-22.7-3.6 22.8-25.5 22.7c-16.2-0.1-26.4-12.1-26.4-27l-0.1-185c-3.9 5.9-10.9 9.9-18.9 10-12.3 0.1-22.6-9.2-22.7-20.7l-1.3-135.1c-0.3-30.5 25.9-56 58.5-56.7h0.8q0.2 0 0.4 0l66.3 0.3q0.3 0 0.7 0c20.3 0 59 12.7 60 51.3z"/>
			<path id="&lt;Path&gt;" class="s4" d="m806.7 732.2l-0.1 135.1"/>
			<path id="&lt;Path&gt;" class="s4" d="m912.2 732.2v139.1"/>
			<path id="&lt;Path&gt;" class="s4" d="m858.5 865.1l0.1 191.5"/>
		</g>
	</g>
</svg>