<svg version="1.2" xmlns="http://www.w3.org/2000/svg" viewBox="0 0 409 387" width="200" height="189">
	<title>travelEmissions</title>
	<style>
		.s0 { fill: none;stroke: #366088;stroke-linecap: round;stroke-linejoin: round;stroke-width: 4;stroke-dasharray: 20 } 
		.s1 { fill: #a4edf5 } 
		.s2 { fill: #ffffff;stroke: #366088;stroke-linecap: round;stroke-linejoin: round;stroke-width: 4 } 
		.s3 { fill: #d0fdff;stroke: #366088;stroke-linecap: round;stroke-linejoin: round;stroke-width: 4 } 
		.s4 { fill: none;stroke: #366088;stroke-linecap: round;stroke-linejoin: round;stroke-width: 4 } 
	</style>
	<g id="&lt;Group&gt;">
		<g id="&lt;Group&gt;">
			<path id="&lt;Path&gt;" class="s0" d="m226.6 379.3q-12.2 1.6-24.7 1.6c-41.7 0-80.2-13.5-111.3-36.5"/>
			<path id="&lt;Path&gt;" class="s0" d="m352.6 81.4c21.2 28.5 34.4 63.1 36.6 100.7"/>
			<path id="&lt;Path&gt;" class="s0" d="m17.1 160c5.7-32 19.5-61.1 39.2-85.2"/>
			<circle id="&lt;Path&gt;" class="s1" cx="201.9" cy="193.2" r="137.8"/>
		</g>
		<g id="&lt;Group&gt;">
			<g id="&lt;Group&gt;">
				<path id="&lt;Path&gt;" class="s2" d="m117.9 281.8h16.6c1.5 0 2.7 1.2 2.7 2.7v7.6c0 1.5-1.2 2.7-2.7 2.7h-22.4"/>
				<g id="&lt;Group&gt;">
					<g id="&lt;Group&gt;">
						<g id="&lt;Group&gt;">
							<path id="&lt;Path&gt;" class="s3" d="m13 188.8c4.3 0.3 10.2 0.5 13.5 0.9 15.5 1.4 39.7 3.2 49.3 5.2q9.5 1.9 18.8 3.5l-0.1 4.3q-3.8-0.3-3.9 0.8c-0.2 1 8.6 13.4 12.8 18.8 4.3 5.3 9 11.4 9.1 18 0.1 6.6-1.9 12.3-1.5 13.8 0.4 1.6 9.1 7.7 8.4 13.1-0.8 6.3-2.5 22.9-3.4 25.1-1 2.3-5 3.1-9.9 3q-5-0.2-12.1 2.7l-65.9 2.7q-20.3-24.7-21.9-56-1.8-32.5 6.8-55.9z"/>
						</g>
						<path id="&lt;Path&gt;" class="s4" d="m14.9 188.8c4.3 0.3 8.3 0.5 11.6 0.9 15.5 1.4 39.7 3.2 49.3 5.2q9.5 1.9 18.8 3.5l-0.1 4.3q-3.8-0.3-3.9 0.8c-0.2 1 8.6 13.4 12.8 18.8 4.3 5.3 9 11.4 9.1 18 0.1 6.6-1.9 12.3-1.5 13.8 0.4 1.6 9.1 7.7 8.4 13.1-0.8 6.3-2.5 22.9-3.4 25.1-1 2.3-5 3.1-9.9 3q-5-0.2-12.1 2.7l-63.5 2.6"/>
					</g>
					<circle id="&lt;Path&gt;" class="s2" cx="64" cy="290.2" r="31"/>
					<g id="&lt;Group&gt;">
						<g id="&lt;Group&gt;">
							<path id="&lt;Compound Path&gt;" class="s2" d="m8.5 201.6c6.7 0.6 14.4 0.8 24 1.6 1 0.1 11.4 0.6 12.2 1.3 2.1 1.8 6.3 5.5 8.1 7.1 5.5 5.4 8.2 7.9 9.7 9.9 1.6 2.1-0.7 4.6-1.7 5.6-1.2 1-3 2.4-5.3 3.9-10.2-0.5-36.8-0.8-50.4-1"/>
						</g>
					</g>
					<path id="&lt;Path&gt;" class="s2" d="m100.9 234.6q5 0.1 10 0.3 0.1 0.1 0.1 0.2c1.4 3.3 1.6 4.8 1.7 5.7 0.1 1.5 0.1 2.7 0 3.5q-0.2 0.8-0.3 1.7-8.2-0.3-16.4-0.5c1.2-1.7 2.8-4.2 3.9-7.1 0.4-1 0.8-2.3 1-3.8z"/>
					<circle id="&lt;Path&gt;" class="s3" cx="64" cy="290.2" r="17.8"/>
				</g>
				<path id="&lt;Path&gt;" class="s3" d="m156.9 269.8c-10.7-1.8-15.7-8.3-18.8-18.6-2.7-8.9-0.8-19.1 5-26.4 1.9-2.5 4.3-4.6 7.1-5.9 0.6-0.3 1.6-0.4 1.9 0.2 0.2 0.4 0 0.8-0.1 1.2-0.7 1.5-1.3 3-1.7 4.6-1.4 6.7 2.5 13.3 6.6 18.8 5.1 6.7 9.9 13.5 9.5 22.3q-0.1 2.9-0.9 5.6"/>
				<path id="&lt;Path&gt;" class="s4" d="m144.7 288.2c10.1 0.1 18.2-7.4 20.8-16.6"/>
				<g id="&lt;Group&gt;">
					<path id="&lt;Path&gt;" class="s3" d="m217 167q-1.7 2.5-3.2 6.2c-1.7 4.6-3.1 11.2-0.4 17.5 8.4 19.7 5 35.2-4.7 45.2-7.6 7.7-18.9 12.1-31.4 12.5q-17.8-15.4-17.5-37.6c0.1-9.1 3.9-17.7 10.1-24.4 3.8-4.1 9.9-9.3 17.9-13.3 8-4 17.8-6.8 29.2-6.1z"/>
					<path id="&lt;Path&gt;" class="s4" d="m177.3 248.4c0.1 0.7-0.6 9.1-0.5 10.2"/>
				</g>
				<path id="&lt;Path&gt;" class="s4" d="m174.7 272.4c-2.3 1-3.5 19.7-25.5 21.3-2.6 0.2-5-0.1-6.8-0.4"/>
			</g>
			<g id="&lt;Group&gt;">
				<path id="&lt;Path&gt;" class="s3" d="m376 283.4l8.9-8.1c4.7-4.1 11.9-3.6 16 1.1 4.1 4.8 3.6 11.9-1.1 16q-42.4 37.4-42.6 37.6c-2.1 1.8-4.7 2.7-7.3 2.7-3.3 0.2-6.6-1.2-8.9-3.8q-0.5-0.5-9.8-11.6l-48.7 42.3 8.6 9.8c2.6 3 0.2 7.7-3.8 7.2l-31.7-3.9c-2.2-0.2-3.8-2.1-3.8-4.3v-32c0-4 5-5.8 7.6-2.8l8.1 9.1q15.5-13.6 30.4-26.6"/>
				<path id="&lt;Path&gt;" class="s3" d="m381 254.1h-10.2c-1.5 7.7-4.4 14.2-8.3 20.2l6.7 6.7c1.7 1.8 1.7 4.7 0 6.5l-10 10.1c-1.9 1.8-4.9 1.8-6.7 0l-6.3-6.6c-6 4-14.3 6.8-19.4 8.3v9c0 2.6-2.1 4.6-4.7 4.6h-16.3c-2.5 0-4.6-2-4.6-4.6v-9c-7.7-1.5-13.6-4.4-19.6-8.3l-6.2 6.5c-1.8 1.9-4.8 1.9-6.6 0.1l-10.2-10.1c-1.8-1.9-1.8-4.8 0-6.6l6.6-6.6c-3.9-6-6.8-12.5-8.4-20.2h-9.8c-2.6 0-4.7-2.1-4.7-4.6v-13.8c0-2.6 2.1-4.6 4.7-4.6h9.7c1.5-7.7 4.3-14.4 8.3-20.5l-6.5-6.5c-1.8-1.8-1.8-4.8 0-6.6l10.1-10.1c1.8-1.8 4.8-1.8 6.6 0l6.1 6.3c6.1-4 12.2-6.9 19.9-8.5v-8.3c0-2.6 2.1-4.7 4.6-4.7h16.3c2.6 0 4.7 2.1 4.7 4.7v8.3c5.1 1.6 13.6 4.5 19.7 8.5l5.8-6.1c1.8-1.9 4.8-1.9 6.6-0.1l10.1 10.1c1.8 1.8 1.8 4.7 0 6.6l-6.4 6.4c3.9 6.1 6.8 12.8 8.3 20.5h10.1c2.6 0 4.6 2 4.6 4.6v13.8c0 2.5-2 4.6-4.6 4.6z"/>
				<g id="&lt;Group&gt;">
					<path id="&lt;Path&gt;" class="s2" d="m365.4 244.3v0.8c0 12.5-10.2 22.7-22.7 22.7h-22.4v3.9c0 4.1-3.4 7.5-7.5 7.5h-28c-4.1 0-7.5-3.4-7.5-7.5 0-1.8 0.6-3.5 1.7-4.8-9.5-2.8-16.4-11.5-16.4-21.8v-0.8c0-12.5 10.2-22.7 22.7-22.7h3.4c2.1-12.1 12.6-21.2 25.3-21.2 12.6 0 23.2 9.1 25.3 21.2h3.4c12.5 0 22.7 10.2 22.7 22.7z"/>
					<rect id="&lt;Path&gt;" class="s2" x="310.7" y="229.5" width="17.8" height="26.9" rx="6.2"></rect>
					<rect id="&lt;Path&gt;" class="s2" x="287.5" y="229.5" width="17.8" height="26.9" rx="6.2"></rect>
					<g id="&lt;Group&gt;">
						<path id="&lt;Path&gt;" class="s2" d="m346.8 258.4h-11.1v-8.9h0.4 10.2 0.5v-8.9h-11.1"/>
					</g>
				</g>
			</g>
			<g id="&lt;Group&gt;">
				<g id="&lt;Group&gt;">
					<circle id="&lt;Path&gt;" class="s3" cx="281.5" cy="87.1" r="38.8"/>
					<g id="&lt;Group&gt;">
						<path id="&lt;Path&gt;" class="s4" d="m295.3 77.8v-4c0-4.1-3.3-7.3-7.3-7.3h-13c-4 0-7.3 3.3-7.2 7.3v6c0 4 3.2 7.3 7.3 7.3l12.9-0.1c4 0 7.3 3.3 7.3 7.3v6c0 4-3.2 7.3-7.3 7.3h-12.9c-4 0-7.3-3.2-7.3-7.3v-4.1"/>
						<path id="&lt;Path&gt;" class="s4" d="m281.6 107.6v9.7"/>
						<path id="&lt;Path&gt;" class="s4" d="m281.5 56.8v9.7"/>
					</g>
				</g>
				<g id="&lt;Group&gt;">
					<circle id="&lt;Path&gt;" class="s3" cx="114.5" cy="87.1" r="38.8"/>
					<g id="&lt;Group&gt;">
						<path id="&lt;Path&gt;" class="s4" d="m128.3 77.8v-4c0-4.1-3.3-7.3-7.3-7.3h-13c-4 0-7.3 3.3-7.2 7.3v6c0 4 3.2 7.3 7.3 7.3l12.9-0.1c4 0 7.3 3.3 7.3 7.3v6c0 4-3.2 7.3-7.3 7.3h-12.9c-4 0-7.3-3.2-7.3-7.3v-4.1"/>
						<path id="&lt;Path&gt;" class="s4" d="m114.6 107.6v9.7"/>
						<path id="&lt;Path&gt;" class="s4" d="m114.5 56.8v9.7"/>
					</g>
				</g>
				<g id="&lt;Group&gt;">
					<circle id="&lt;Path&gt;" class="s3" cx="197.6" cy="64" r="59.4"/>
					<g id="&lt;Group&gt;">
						<path id="&lt;Path&gt;" class="s4" d="m218.6 49.9v-6.2c0-6.1-5-11.1-11.1-11.1h-19.8c-6.2 0-11.2 5-11.2 11.2l0.1 9.1c0 6.2 5 11.2 11.1 11.2l19.8-0.1c6.2 0 11.2 5 11.2 11.1v9.2c0 6.1-5 11.1-11.1 11.2h-19.8c-6.2 0-11.2-5-11.2-11.1v-6.4"/>
						<path id="&lt;Path&gt;" class="s4" d="m197.7 95.5v14.8"/>
						<path id="&lt;Path&gt;" class="s4" d="m197.5 17.8l0.1 14.8"/>
					</g>
				</g>
			</g>
		</g>
	</g>
</svg>