<svg version="1.2" xmlns="http://www.w3.org/2000/svg" viewBox="0 0 1450 1445" width="200" height="199">
	<title>&lt;Group&gt;</title>
	<style>
		.s0 { fill: #b3ffb1 } 
		.s1 { fill: #915aad } 
		.s2 { fill: #d5fcd1 } 
		.s3 { fill: #ffffff } 
	</style>
	<g id="&lt;Group&gt;">
		<g id="&lt;Group&gt;">
			<g id="&lt;Group&gt;">
				<g id="&lt;Group&gt;">
					<path id="&lt;Path&gt;" class="s0" d="m198.1 785.2c-34.1-291.8 174.9-556.1 466.7-590.2 291.8-34.1 556 174.9 590.1 466.7 34.1 291.8-174.8 556-466.6 590.1-291.8 34.1-556.1-174.8-590.2-466.6z"/>
				</g>
			</g>
		</g>
		<g id="&lt;Group&gt;">
			<g id="&lt;Group&gt;">
				<g id="&lt;Group&gt;">
					<path id="&lt;Compound Path&gt;" class="s1" d="m59.2 491.4q-1.5 0-3-0.5c-4.6-1.7-7-6.8-5.4-11.4 8.1-22.4 17.5-44.7 27.8-66.2 2.1-4.4 7.4-6.3 11.8-4.1 4.4 2.1 6.3 7.4 4.2 11.8-10.1 21-19.2 42.7-27.1 64.5-1.3 3.6-4.7 5.9-8.3 5.9zm61.2-127.7c-1.6 0-3.2-0.4-4.6-1.3-4.2-2.5-5.5-8-3-12.1 12.4-20.4 26-40.3 40.3-59.4 3-3.9 8.6-4.7 12.5-1.7 3.9 2.9 4.6 8.5 1.7 12.4-14 18.6-27.3 38-39.4 57.9-1.6 2.7-4.5 4.2-7.5 4.2zm85.3-112.9c-2.1 0-4.3-0.8-6-2.4-3.6-3.3-3.8-8.9-0.5-12.5 16.2-17.5 33.4-34.4 51.3-50.2 3.7-3.3 9.3-2.9 12.5 0.7 3.3 3.7 2.9 9.3-0.7 12.5-17.5 15.5-34.3 32-50.1 49-1.7 1.9-4.1 2.9-6.5 2.9zm106-93.9c-2.7 0-5.4-1.3-7.2-3.7-2.8-4-1.9-9.5 2-12.4 19.4-14 39.6-27.1 60.2-39.1 4.3-2.4 9.7-1 12.2 3.3 2.4 4.2 1 9.6-3.2 12.1-20.2 11.6-39.9 24.5-58.8 38.1-1.6 1.1-3.4 1.7-5.2 1.7zm739.4-55.5c-1.4 0-2.7-0.3-4-0.9-20.7-10.7-42.2-20.4-63.8-29-4.6-1.8-6.8-6.9-5-11.5 1.8-4.5 7-6.8 11.5-5 22.2 8.8 44.2 18.8 65.4 29.7 4.3 2.2 6 7.6 3.8 11.9-1.6 3.1-4.7 4.8-7.9 4.8zm-616.8-15.6c-3.4 0-6.6-1.9-8.1-5.2-2.1-4.5-0.1-9.7 4.4-11.7 21.7-9.9 44.2-18.7 66.8-26.3 4.7-1.6 9.7 0.9 11.2 5.5 1.6 4.7-0.9 9.7-5.5 11.3-22.1 7.4-44 16-65.2 25.6-1.2 0.6-2.4 0.8-3.6 0.8zm485.1-36.3q-1.2 0-2.4-0.3c-22.4-6.3-45.4-11.6-68.3-15.6-4.8-0.8-8-5.4-7.2-10.3 0.9-4.8 5.5-8 10.3-7.2 23.5 4.2 47 9.5 70 16 4.7 1.3 7.4 6.2 6.1 11-1.1 3.9-4.7 6.4-8.5 6.4zm-350.9-8.9c-4 0-7.7-2.7-8.6-6.9-1.1-4.7 1.9-9.5 6.7-10.6 23.2-5.3 47-9.4 70.7-12.4 4.8-0.6 9.3 2.9 9.9 7.8 0.6 4.8-2.9 9.2-7.8 9.8-23 2.9-46.2 7-68.9 12.1q-1 0.2-2 0.2zm211.4-15.6q-0.3 0-0.6-0.1c-23.2-1.7-46.8-2.3-70-1.7q-0.1 0-0.3 0c-4.7 0-8.7-3.8-8.8-8.7-0.1-4.9 3.7-8.9 8.6-9 23.8-0.6 48.1 0 71.8 1.8 4.9 0.3 8.5 4.6 8.2 9.5-0.4 4.6-4.3 8.2-8.9 8.2z"/>
				</g>
			</g>
		</g>
		<g id="&lt;Group&gt;">
			<g id="&lt;Group&gt;">
				<g id="&lt;Group&gt;">
					<path id="&lt;Compound Path&gt;" class="s1" d="m1350.2 1070.4c-1.4 0-2.9-0.3-4.2-1.1-4.3-2.3-5.9-7.7-3.6-12 11.1-20.4 21.3-41.7 30.3-63.1 1.9-4.5 7.1-6.7 11.6-4.8 4.6 1.9 6.7 7.1 4.8 11.7-9.2 21.9-19.7 43.7-31.1 64.7-1.6 2.9-4.6 4.6-7.8 4.6zm54.8-130.6q-1.3 0-2.6-0.4c-4.7-1.4-7.3-6.4-5.9-11 6.8-22.3 12.6-45.1 17.1-67.9 0.9-4.8 5.7-7.9 10.4-7 4.8 0.9 7.9 5.6 7 10.4-4.7 23.4-10.5 46.8-17.5 69.6-1.2 3.9-4.7 6.3-8.5 6.3zm27.6-138.9q-0.4 0-0.9 0c-4.9-0.5-8.4-4.8-8-9.7 2.2-22.4 3.3-45.2 3.3-67.8 0-4.9 3.9-8.8 8.8-8.8 4.9 0 8.9 3.9 8.9 8.8 0 23.2-1.1 46.6-3.3 69.5-0.4 4.6-4.3 8-8.8 8z"/>
				</g>
			</g>
		</g>
		<g id="&lt;Group&gt;">
			<g id="&lt;Group&gt;">
				<g id="&lt;Group&gt;">
					<path id="&lt;Compound Path&gt;" class="s1" d="m778.6 1439.7c-4.6 0-8.5-3.5-8.8-8.2-0.3-4.9 3.3-9.1 8.2-9.5 23.3-1.7 46.6-4.5 69.5-8.5 4.9-0.9 9.4 2.4 10.3 7.2 0.8 4.8-2.4 9.4-7.2 10.2-23.5 4.1-47.5 7.1-71.3 8.8q-0.3 0-0.7 0zm139.6-24.3c-3.9 0-7.4-2.5-8.5-6.5-1.4-4.7 1.4-9.6 6.1-10.9 22.4-6.3 44.7-13.7 66.4-22.2 4.5-1.8 9.7 0.4 11.5 5 1.8 4.5-0.5 9.7-5 11.5-22.2 8.7-45.2 16.4-68.1 22.8q-1.2 0.3-2.4 0.3zm131.9-51.7c-3.2 0-6.4-1.8-7.9-4.8-2.3-4.4-0.5-9.7 3.8-12 20.7-10.6 41.1-22.4 60.6-35 4.1-2.7 9.6-1.5 12.3 2.6 2.6 4.1 1.5 9.6-2.6 12.3-20.1 13-41 25-62.2 35.9-1.3 0.7-2.7 1-4 1zm118.9-77c-2.6 0-5.2-1.1-7-3.3-3-3.8-2.4-9.4 1.4-12.4 17.8-14.2 35.1-29.5 51.4-45.4 3.5-3.4 9.2-3.3 12.6 0.2 3.4 3.5 3.3 9.1-0.2 12.5-16.8 16.3-34.5 32-52.7 46.5-1.6 1.3-3.6 1.9-5.5 1.9z"/>
				</g>
			</g>
		</g>
		<g id="&lt;Group&gt;">
			<g id="&lt;Group&gt;">
				<g id="&lt;Group&gt;">
					<path id="&lt;Compound Path&gt;" class="s1" d="m314.4 1309.6c-1.8 0-3.6-0.5-5.2-1.6-19.4-13.9-38.3-28.9-56.2-44.6-3.7-3.3-4.1-8.9-0.8-12.5 3.2-3.7 8.8-4.1 12.5-0.8 17.5 15.3 35.9 30 54.8 43.5 4 2.8 4.9 8.3 2.1 12.3-1.8 2.5-4.5 3.7-7.2 3.7zm-106.5-93.4c-2.3 0-4.7-0.9-6.4-2.8-16.3-17.4-31.9-35.9-46.4-54.8-2.9-3.9-2.2-9.5 1.7-12.5 3.9-2.9 9.5-2.2 12.4 1.7 14.1 18.5 29.3 36.5 45.2 53.5 3.4 3.6 3.2 9.2-0.4 12.5-1.7 1.6-3.9 2.4-6.1 2.4zm-85.8-112.6c-3 0-5.9-1.5-7.6-4.2-12.5-20.3-24.1-41.5-34.5-63-2.2-4.4-0.3-9.7 4.1-11.8 4.4-2.1 9.7-0.3 11.8 4.1 10.2 20.9 21.5 41.6 33.7 61.4 2.6 4.2 1.3 9.6-2.9 12.2-1.5 0.9-3.1 1.3-4.6 1.3zm-61.8-127.4c-3.7 0-7.1-2.3-8.4-5.9-8.2-22.4-15.3-45.4-21.2-68.5-1.2-4.8 1.6-9.6 6.4-10.8 4.7-1.2 9.5 1.6 10.7 6.4 5.8 22.5 12.8 45 20.8 66.9 1.7 4.5-0.7 9.6-5.3 11.3q-1.5 0.6-3 0.6z"/>
				</g>
			</g>
		</g>
		<g id="&lt;Group&gt;">
			<g id="&lt;Group&gt;">
				<g id="&lt;Group&gt;">
					<g id="&lt;Group&gt;">
						<path id="&lt;Path&gt;" class="s2" d="m611.3 1396.8c-32.4 10.4-68 11.8-103.2 2.2-96.8-26.4-153.9-126.3-127.5-223.1 26.4-96.8 126.2-153.9 223.1-127.5 35.2 9.6 65.2 28.9 87.8 54.2"/>
					</g>
				</g>
				<g id="&lt;Group&gt;">
					<g id="&lt;Group&gt;">
						<path id="&lt;Path&gt;" class="s1" d="m556 1414.3c-16.8 0-33.7-2.2-50.2-6.7-101.4-27.7-161.4-132.6-133.8-234 27.6-101.4 132.6-161.4 234-133.8 35.7 9.7 67.6 29.4 92.1 56.9 3.2 3.7 2.9 9.3-0.7 12.6-3.7 3.2-9.3 2.9-12.6-0.8-22.2-24.9-51.1-42.8-83.4-51.6-92-25.1-187.2 29.4-212.3 121.3-25.1 92 29.4 187.2 121.3 212.3 32.4 8.8 66.3 8.1 98.2-2.2 4.7-1.4 9.6 1.1 11.1 5.8 1.5 4.6-1 9.6-5.7 11.1-18.9 6.1-38.4 9.1-58 9.1z"/>
					</g>
				</g>
			</g>
			<g id="&lt;Group&gt;">
				<g id="&lt;Group&gt;">
					<g id="&lt;Group&gt;">
						<path id="&lt;Path&gt;" class="s2" d="m691.5 1102.6l212.2 215.1-292.4 79.1"/>
					</g>
				</g>
				<g id="&lt;Group&gt;">
					<g id="&lt;Group&gt;">
						<path id="&lt;Path&gt;" class="s1" d="m611.3 1405.7c-3.9 0-7.5-2.6-8.6-6.6-1.3-4.7 1.5-9.6 6.3-10.9l277.7-75.1-201.5-204.2c-3.5-3.5-3.4-9.1 0-12.6 3.5-3.4 9.1-3.4 12.6 0.1l212.2 215c2.2 2.3 3 5.5 2.2 8.6-0.8 3-3.2 5.4-6.2 6.2l-292.4 79.1q-1.2 0.4-2.3 0.4z"/>
					</g>
				</g>
			</g>
			<g id="&lt;Group&gt;">
				<g id="&lt;Group&gt;">
					<g id="&lt;Group&gt;">
						<path id="&lt;Path&gt;" class="s2" d="m726.4 1269.3l32.6 57"/>
					</g>
				</g>
				<g id="&lt;Group&gt;">
					<g id="&lt;Group&gt;">
						<path id="&lt;Path&gt;" class="s1" d="m759 1335.2c-3.1 0-6.1-1.6-7.7-4.5l-32.6-57c-2.4-4.2-0.9-9.6 3.3-12 4.3-2.5 9.7-1 12.1 3.2l32.6 57c2.4 4.3 0.9 9.7-3.3 12.1-1.4 0.8-2.9 1.2-4.4 1.2z"/>
					</g>
				</g>
			</g>
			<g id="&lt;Group&gt;">
				<g id="&lt;Group&gt;">
					<g id="&lt;Group&gt;">
						<path id="&lt;Path&gt;" class="s2" d="m593.2 1233.3l51.6 90.3"/>
					</g>
				</g>
				<g id="&lt;Group&gt;">
					<g id="&lt;Group&gt;">
						<path id="&lt;Path&gt;" class="s1" d="m644.8 1332.5c-3.1 0-6-1.6-7.7-4.5l-51.6-90.3c-2.4-4.3-1-9.7 3.3-12.1 4.2-2.5 9.6-1 12.1 3.2l51.6 90.4c2.4 4.2 1 9.7-3.3 12.1-1.4 0.8-2.9 1.2-4.4 1.2z"/>
					</g>
				</g>
			</g>
			<g id="&lt;Group&gt;">
				<g id="&lt;Group&gt;">
					<g id="&lt;Group&gt;">
						<path id="&lt;Path&gt;" class="s2" d="m445.9 1192.9l80.4 140.7"/>
					</g>
				</g>
				<g id="&lt;Group&gt;">
					<g id="&lt;Group&gt;">
						<path id="&lt;Path&gt;" class="s1" d="m526.3 1342.5c-3 0-6-1.6-7.7-4.5l-80.4-140.7c-2.4-4.3-1-9.7 3.3-12.1 4.2-2.4 9.7-1 12.1 3.3l80.4 140.7c2.5 4.2 1 9.7-3.3 12.1-1.3 0.8-2.9 1.2-4.4 1.2z"/>
					</g>
				</g>
			</g>
			<g id="&lt;Group&gt;">
				<g id="&lt;Group&gt;">
					<g id="&lt;Group&gt;">
						<path id="&lt;Path&gt;" class="s2" d="m726.4 1269.3l57-32.5"/>
					</g>
				</g>
				<g id="&lt;Group&gt;">
					<g id="&lt;Group&gt;">
						<path id="&lt;Path&gt;" class="s1" d="m726.4 1278.2c-3 0-6-1.6-7.7-4.5-2.4-4.2-0.9-9.6 3.3-12l57-32.6c4.3-2.4 9.7-1 12.1 3.3 2.4 4.2 1 9.6-3.3 12.1l-57 32.5c-1.4 0.8-2.9 1.2-4.4 1.2z"/>
					</g>
				</g>
			</g>
			<g id="&lt;Group&gt;">
				<g id="&lt;Group&gt;">
					<g id="&lt;Group&gt;">
						<path id="&lt;Path&gt;" class="s2" d="m593.3 1232.8l90.3-51.6"/>
					</g>
				</g>
				<g id="&lt;Group&gt;">
					<g id="&lt;Group&gt;">
						<path id="&lt;Path&gt;" class="s1" d="m593.3 1241.7c-3.1 0-6.1-1.6-7.7-4.5-2.4-4.2-1-9.6 3.3-12.1l90.3-51.6c4.3-2.4 9.7-1 12.1 3.3 2.5 4.2 1 9.7-3.3 12.1l-90.3 51.6c-1.4 0.8-2.9 1.2-4.4 1.2z"/>
					</g>
				</g>
			</g>
			<g id="&lt;Group&gt;">
				<g id="&lt;Group&gt;">
					<g id="&lt;Group&gt;">
						<path id="&lt;Path&gt;" class="s2" d="m445.9 1192.9l140.7-80.5"/>
					</g>
				</g>
				<g id="&lt;Group&gt;">
					<g id="&lt;Group&gt;">
						<path id="&lt;Path&gt;" class="s1" d="m445.9 1201.8c-3.1 0-6.1-1.7-7.7-4.5-2.4-4.3-1-9.7 3.3-12.1l140.7-80.4c4.3-2.5 9.7-1 12.1 3.3 2.4 4.2 1 9.6-3.3 12l-140.7 80.5c-1.4 0.8-2.9 1.2-4.4 1.2z"/>
					</g>
				</g>
			</g>
			<g id="&lt;Group&gt;">
				<g id="&lt;Group&gt;">
					<g id="&lt;Group&gt;">
						<path id="&lt;Path&gt;" class="s2" d="m903.7 1317.7l-590.3-160.9"/>
					</g>
				</g>
				<g id="&lt;Group&gt;">
					<g id="&lt;Group&gt;">
						<path id="&lt;Path&gt;" class="s1" d="m903.7 1326.5q-1.2 0-2.4-0.3l-590.2-160.9c-4.7-1.3-7.5-6.1-6.2-10.9 1.3-4.7 6.1-7.5 10.9-6.2l590.2 160.9c4.7 1.3 7.5 6.2 6.2 10.9-1.1 3.9-4.6 6.5-8.5 6.5z"/>
					</g>
				</g>
			</g>
		</g>
		<g id="&lt;Group&gt;">
			<g id="&lt;Group&gt;">
				<g id="&lt;Group&gt;">
					<g id="&lt;Group&gt;">
						<g id="&lt;Group&gt;">
							<g id="&lt;Group&gt;">
								<path id="&lt;Path&gt;" class="s3" d="m352.9 972v-180.3h101.6v180.3"/>
							</g>
						</g>
						<g id="&lt;Group&gt;">
							<g id="&lt;Group&gt;">
								<path id="&lt;Path&gt;" class="s1" d="m454.5 980.8c-4.9 0-8.8-3.9-8.8-8.8v-171.5h-83.9v171.5c0 4.9-4 8.8-8.9 8.8-4.9 0-8.9-3.9-8.9-8.8v-180.3c0-4.9 4-8.9 8.9-8.9h101.6c4.9 0 8.9 4 8.9 8.9v180.3c0 4.9-4 8.8-8.9 8.8z"/>
							</g>
						</g>
					</g>
					<g id="&lt;Group&gt;">
						<g id="&lt;Group&gt;">
							<g id="&lt;Group&gt;">
								<g id="&lt;Group&gt;">
									<path id="&lt;Path&gt;" class="s3" d="m152 800.8c-114.2 70.4-174.1-11.2-114.2-54.1q197.8-141.6 322-405.4h43.9 43.9q124.2 263.8 322 405.4c60 42.9 0 124.5-114.1 54.1q0 81.2-251.8 75.6-251.7 5.6-251.7-75.6z"/>
								</g>
							</g>
							<g id="&lt;Group&gt;">
								<g id="&lt;Group&gt;">
									<path id="&lt;Compound Path&gt;" fill-rule="evenodd" class="s1" d="m415.3 885.3c-6.2 0-10.3 0-11.6-0.1-10.2 0.2-191.2 3.3-244.7-49-6.6-6.5-11.2-13.6-13.7-21.2-65.3 35.8-113.9 24-132.3-3.7-15.3-23-7.2-52.5 19.6-71.8 193.7-138.6 318-399.4 319.2-402 1.4-3.1 4.6-5.1 8-5.1h87.8c3.5 0 6.6 2 8 5.1 1.3 2.6 125.6 263.4 319.2 402 26.9 19.3 35 48.8 19.7 71.8-18.4 27.7-67.1 39.5-132.4 3.7-2.5 7.6-7 14.7-13.7 21.2-46.6 45.7-190.4 49.1-233.1 49.1zm-263.3-93.3c1.5 0 3 0.4 4.3 1.1 2.8 1.6 4.5 4.5 4.5 7.7 0 8.4 3.5 15.8 10.6 22.7 48.6 47.6 230.2 44 232.1 44q0.2 0 0.4 0c1.9 0 183.6 3.5 232.1-44 7.1-6.9 10.6-14.3 10.6-22.7 0-3.2 1.7-6.1 4.5-7.7 2.8-1.6 6.3-1.5 9 0.2 65.1 40.1 107.2 26.8 119.6 8.2 9.9-14.9 3.7-34-15.2-47.6-182.3-130.4-303.8-366.2-322.4-403.8h-76.8c-18.6 37.6-140.1 273.4-322.3 403.8-19 13.6-25.1 32.7-15.3 47.6 12.5 18.7 54.6 31.9 119.6-8.2 1.4-0.9 3.1-1.3 4.7-1.3z"/>
								</g>
							</g>
						</g>
					</g>
					<g id="&lt;Group&gt;">
						<g id="&lt;Group&gt;">
							<g id="&lt;Group&gt;">
								<g id="&lt;Group&gt;">
									<path id="&lt;Path&gt;" class="s3" d="m240.6 655.1c-37.8-7.8-67.3-19.8-67.3-38.6-104.5 45.5-159.3-7.2-104.5-35q181.1-91.6 294.7-254.9h40.2 40.2q113.7 163.3 294.7 254.9c54.9 27.8 0 80.5-104.5 35 0 16.3-22.2 27.6-52.9 35.3"/>
								</g>
							</g>
							<g id="&lt;Group&gt;">
								<g id="&lt;Group&gt;">
									<path id="&lt;Path&gt;" class="s1" d="m240.6 664q-0.9 0-1.8-0.2c-40.1-8.2-63.7-19.8-71.5-35.2-64.5 25.2-114.4 15.1-126.5-10.5-5.9-12.6-2.7-31 24-44.5 176.9-89.5 290.3-250.5 291.4-252.1 1.7-2.4 4.4-3.8 7.3-3.8h80.4c2.9 0 5.6 1.4 7.3 3.8 1.1 1.6 114.6 162.6 291.4 252.1 26.8 13.5 29.9 31.9 24 44.5-12 25.6-62 35.7-126.5 10.5-6.7 13.4-25.4 23.9-56.7 31.8-4.8 1.2-9.6-1.7-10.8-6.4-1.2-4.7 1.7-9.6 6.4-10.8 29.4-7.4 46.2-17.1 46.2-26.7 0-3 1.6-5.8 4.1-7.4 2.5-1.6 5.6-1.9 8.4-0.7 65.9 28.7 106.6 15.4 112.8 2.2 3.7-7.8-5.8-16.1-15.9-21.2-165.6-83.7-276.7-228.7-295.2-254h-71.3c-18.6 25.3-129.7 170.3-295.3 254-10.1 5.1-19.6 13.4-15.9 21.2 6.2 13.2 46.9 26.5 112.9-2.2 2.7-1.2 5.9-0.9 8.4 0.7 2.5 1.6 4 4.4 4 7.4 0 4.1 4.3 18.5 60.2 29.9 4.8 1 7.9 5.7 6.9 10.5-0.9 4.2-4.6 7.1-8.7 7.1z"/>
								</g>
							</g>
						</g>
					</g>
					<g id="&lt;Group&gt;">
						<g id="&lt;Group&gt;">
							<g id="&lt;Group&gt;">
								<g id="&lt;Group&gt;">
									<path id="&lt;Path&gt;" class="s3" d="m313.2 473.6c-31.6-4.9-59.4-13.4-59.4-28.4-68 30.1-103.7-4.8-68-23.2q117.8-60.7 217.9-271.3 100.1 210.6 217.9 271.3c35.7 18.4 0 53.3-68 23.2 0 14-24.2 22.3-53.2 27.3"/>
								</g>
							</g>
							<g id="&lt;Group&gt;">
								<g id="&lt;Group&gt;">
									<path id="&lt;Path&gt;" class="s1" d="m313.3 482.4q-0.7 0-1.4-0.1c-23.5-3.6-53.2-10-63.4-25.3-43.5 16.6-75.2 8.2-83.6-9.2-4.4-9.3-2.6-23.6 16.9-33.7 113.7-58.6 212.9-265.1 213.9-267.2 1.5-3.1 4.6-5.1 8-5.1 3.4 0 6.6 2 8 5.1 1 2.1 100.2 208.6 214 267.2 19.5 10.1 21.2 24.4 16.8 33.7-8.4 17.4-40 25.8-83.6 9.2-9.4 14.3-36 20.7-57 24.3-4.7 0.8-9.4-2.4-10.2-7.3-0.8-4.8 2.4-9.4 7.2-10.2 45.3-7.8 45.9-18.2 45.9-18.6 0-3 1.5-5.8 4-7.4 2.5-1.7 5.7-1.9 8.4-0.7 41.6 18.4 66.1 9.7 69.3 3 1.3-2.6-2.4-6.9-9-10.2-101.2-52.2-187.6-208.3-213.8-259.3-26.2 51-112.6 207.1-213.8 259.3-6.6 3.3-10.2 7.6-9 10.2 3.2 6.7 27.8 15.4 69.3-3 2.8-1.2 5.9-1 8.4 0.7 2.6 1.6 4.1 4.4 4.1 7.4 0 4 10.8 13.3 51.9 19.6 4.8 0.7 8.1 5.3 7.4 10.1-0.7 4.4-4.4 7.5-8.7 7.5z"/>
								</g>
							</g>
						</g>
					</g>
				</g>
			</g>
			<g id="&lt;Group&gt;">
				<g id="&lt;Group&gt;">
					<g id="&lt;Group&gt;">
						<g id="&lt;Group&gt;">
							<g id="&lt;Group&gt;">
								<path id="&lt;Path&gt;" class="s3" d="m403.7 972h103.1"/>
							</g>
						</g>
						<g id="&lt;Group&gt;">
							<g id="&lt;Group&gt;">
								<path id="&lt;Path&gt;" class="s1" d="m506.8 980.8h-103.1c-4.9 0-8.9-3.9-8.9-8.8 0-4.9 4-8.9 8.9-8.9h103.1c4.9 0 8.9 4 8.9 8.9 0 4.9-4 8.8-8.9 8.8z"/>
							</g>
						</g>
					</g>
					<g id="&lt;Group&gt;">
						<g id="&lt;Group&gt;">
							<g id="&lt;Group&gt;">
								<path id="&lt;Path&gt;" class="s3" d="m538.1 972h43.1"/>
							</g>
						</g>
						<g id="&lt;Group&gt;">
							<g id="&lt;Group&gt;">
								<path id="&lt;Path&gt;" class="s1" d="m581.2 980.8h-43.1c-4.9 0-8.8-3.9-8.8-8.8 0-4.9 3.9-8.9 8.8-8.9h43.1c4.9 0 8.9 4 8.9 8.9 0 4.9-4 8.8-8.9 8.8z"/>
							</g>
						</g>
					</g>
				</g>
				<g id="&lt;Group&gt;">
					<g id="&lt;Group&gt;">
						<g id="&lt;Group&gt;">
							<g id="&lt;Group&gt;">
								<path id="&lt;Path&gt;" class="s3" d="m403.7 972h-103.1"/>
							</g>
						</g>
						<g id="&lt;Group&gt;">
							<g id="&lt;Group&gt;">
								<path id="&lt;Path&gt;" class="s1" d="m403.7 980.8h-103.1c-4.9 0-8.8-3.9-8.8-8.8 0-4.9 3.9-8.9 8.8-8.9h103.1c4.9 0 8.9 4 8.9 8.9 0 4.9-4 8.8-8.9 8.8z"/>
							</g>
						</g>
					</g>
					<g id="&lt;Group&gt;">
						<g id="&lt;Group&gt;">
							<g id="&lt;Group&gt;">
								<path id="&lt;Path&gt;" class="s3" d="m269.3 972h-43.1"/>
							</g>
						</g>
						<g id="&lt;Group&gt;">
							<g id="&lt;Group&gt;">
								<path id="&lt;Path&gt;" class="s1" d="m269.3 980.8h-43.1c-4.9 0-8.9-3.9-8.9-8.8 0-4.9 4-8.9 8.9-8.9h43.1c4.9 0 8.9 4 8.9 8.9 0 4.9-4 8.8-8.9 8.8z"/>
							</g>
						</g>
					</g>
				</g>
			</g>
		</g>
		<g id="&lt;Group&gt;">
			<g id="&lt;Group&gt;">
				<g id="&lt;Group&gt;">
					<g id="&lt;Group&gt;">
						<g id="&lt;Group&gt;">
							<g id="&lt;Group&gt;">
								<path id="&lt;Path&gt;" class="s3" d="m1108.2 1161.9h150.8"/>
							</g>
						</g>
						<g id="&lt;Group&gt;">
							<g id="&lt;Group&gt;">
								<path id="&lt;Path&gt;" class="s1" d="m1259 1170.8h-150.8c-4.9 0-8.9-4-8.9-8.9 0-4.9 4-8.8 8.9-8.8h150.8c4.9 0 8.9 3.9 8.9 8.8 0 4.9-4 8.9-8.9 8.9z"/>
							</g>
						</g>
					</g>
				</g>
				<g id="&lt;Group&gt;">
					<g id="&lt;Group&gt;">
						<g id="&lt;Group&gt;">
							<g id="&lt;Group&gt;">
								<path id="&lt;Path&gt;" class="s3" d="m1108.2 1161.9h-150.8"/>
							</g>
						</g>
						<g id="&lt;Group&gt;">
							<g id="&lt;Group&gt;">
								<path id="&lt;Path&gt;" class="s1" d="m1108.2 1170.8h-150.8c-4.9 0-8.9-4-8.9-8.9 0-4.9 4-8.8 8.9-8.8h150.8c4.9 0 8.9 3.9 8.9 8.8 0 4.9-4 8.9-8.9 8.9z"/>
							</g>
						</g>
					</g>
				</g>
			</g>
			<g id="&lt;Group&gt;">
				<g id="&lt;Group&gt;">
					<g id="&lt;Group&gt;">
						<path id="&lt;Path&gt;" class="s3" d="m1067.3 1150.4l36.5-983.3 27.1 655.6 18.3 326.5"/>
					</g>
				</g>
				<g id="&lt;Group&gt;">
					<g id="&lt;Group&gt;">
						<path id="&lt;Path&gt;" class="s1" d="m1067.3 1159.3q-0.2 0-0.4 0c-4.9-0.2-8.7-4.3-8.5-9.2l36.5-983.3c0.2-4.8 4.1-8.5 8.9-8.5q0 0 0 0c4.7 0 8.7 3.7 8.8 8.5l27.1 655.6 18.3 326.3c0.3 4.9-3.5 9.1-8.3 9.4-4.9 0.2-9.1-3.5-9.4-8.4l-18.3-326.5-17.7-429.8-28.2 757.3c-0.2 4.8-4.1 8.6-8.8 8.6z"/>
					</g>
				</g>
			</g>
			<g id="&lt;Group&gt;">
				<g id="&lt;Group&gt;">
					<g id="&lt;Group&gt;">
						<path id="&lt;Path&gt;" class="s3" d="m1167.5 933.3l-28.6 32.1"/>
					</g>
				</g>
				<g id="&lt;Group&gt;">
					<g id="&lt;Group&gt;">
						<path id="&lt;Path&gt;" class="s1" d="m1138.8 974.3c-2.1 0-4.2-0.8-5.8-2.3-3.7-3.2-4-8.8-0.8-12.5l28.7-32.1c3.2-3.6 8.8-3.9 12.5-0.7 3.6 3.3 4 8.9 0.7 12.5l-28.6 32.1c-1.8 2-4.2 3-6.7 3z"/>
					</g>
				</g>
			</g>
			<g id="&lt;Group&gt;">
				<g id="&lt;Group&gt;">
					<g id="&lt;Group&gt;">
						<path id="&lt;Path&gt;" class="s3" d="m1130 757.3l137.1-187.8"/>
					</g>
				</g>
				<g id="&lt;Group&gt;">
					<g id="&lt;Group&gt;">
						<path id="&lt;Path&gt;" class="s1" d="m1130 766.1c-1.8 0-3.7-0.5-5.3-1.7-3.9-2.8-4.8-8.4-1.9-12.3l137.1-187.8c2.9-4 8.5-4.8 12.4-2 4 2.9 4.8 8.5 1.9 12.4l-137.1 187.8c-1.7 2.4-4.4 3.6-7.1 3.6z"/>
					</g>
				</g>
			</g>
			<g id="&lt;Group&gt;">
				<g id="&lt;Group&gt;">
					<g id="&lt;Group&gt;">
						<path id="&lt;Path&gt;" class="s3" d="m1193.9 669.7l120.2-79.5"/>
					</g>
				</g>
				<g id="&lt;Group&gt;">
					<g id="&lt;Group&gt;">
						<path id="&lt;Path&gt;" class="s1" d="m1193.9 678.6c-2.9 0-5.7-1.4-7.4-4-2.7-4.1-1.6-9.6 2.5-12.3l120.2-79.5c4-2.7 9.5-1.5 12.3 2.5 2.7 4.1 1.5 9.6-2.5 12.3l-120.2 79.5c-1.5 1-3.2 1.5-4.9 1.5z"/>
					</g>
				</g>
			</g>
			<g id="&lt;Group&gt;">
				<g id="&lt;Group&gt;">
					<g id="&lt;Group&gt;">
						<path id="&lt;Path&gt;" class="s3" d="m1116.7 450.1l81.4-73.8"/>
					</g>
				</g>
				<g id="&lt;Group&gt;">
					<g id="&lt;Group&gt;">
						<path id="&lt;Path&gt;" class="s1" d="m1116.7 459c-2.4 0-4.8-1-6.6-3-3.3-3.6-3-9.2 0.6-12.5l81.5-73.8c3.6-3.3 9.2-3 12.5 0.6 3.3 3.7 3 9.3-0.6 12.6l-81.5 73.8c-1.7 1.5-3.8 2.3-5.9 2.3z"/>
					</g>
				</g>
			</g>
			<g id="&lt;Group&gt;">
				<g id="&lt;Group&gt;">
					<g id="&lt;Group&gt;">
						<path id="&lt;Path&gt;" class="s3" d="m1205 654.5l5.8-80"/>
					</g>
				</g>
				<g id="&lt;Group&gt;">
					<g id="&lt;Group&gt;">
						<path id="&lt;Path&gt;" class="s1" d="m1205 663.4q-0.3 0-0.7 0c-4.8-0.4-8.5-4.6-8.2-9.5l5.9-80c0.4-4.9 4.7-8.6 9.5-8.2 4.9 0.3 8.5 4.6 8.2 9.5l-5.9 80c-0.3 4.7-4.2 8.2-8.8 8.2z"/>
					</g>
				</g>
			</g>
			<g id="&lt;Group&gt;">
				<g id="&lt;Group&gt;">
					<g id="&lt;Group&gt;">
						<path id="&lt;Path&gt;" class="s3" d="m1093.1 454.4l-53.5-50.1"/>
					</g>
				</g>
				<g id="&lt;Group&gt;">
					<g id="&lt;Group&gt;">
						<path id="&lt;Path&gt;" class="s1" d="m1093.1 463.3c-2.2 0-4.3-0.8-6-2.4l-53.6-50.1c-3.6-3.4-3.7-9-0.4-12.6 3.4-3.5 9-3.7 12.5-0.4l53.6 50.1c3.5 3.4 3.7 9 0.4 12.6-1.8 1.8-4.1 2.8-6.5 2.8z"/>
					</g>
				</g>
			</g>
			<g id="&lt;Group&gt;">
				<g id="&lt;Group&gt;">
					<g id="&lt;Group&gt;">
						<path id="&lt;Path&gt;" class="s3" d="m1264.7 287.6l21.4 4.9c9.5-4.5 20.8-3.4 29.2 3.1l0.3 0.2c3.9 6.7 17.9 13.6 31.9 7.5q27.5 29.2 27.2 32.7l12.5 33.5c1.5 1.7 2.2 4 1.6 6.2-3.1 11.3 3.6 21.7-7.3 27.5l-8.7 4.5-41.4 7.6c-8.8 4.3-18.5 6.1-28.1 5.2l-7-0.7c-8.9-0.8-17.3-4.4-23.9-10.4l-0.2-0.2c-8.7-7.7-27.7 3.3-39.2 3.2l-55.6-1.2c-3.4 0.7-6.9 0-9.7-2.2-8.3-6.7-26.9-20.1-24.8-24.3l15.2-42.9c0.7-1.9 2.3-3.6 4.3-4 4.6-0.8 10.8-8.2 14.3-8.9 7.6-1.5 18.5-11.7 28.2-22.6 15-16.7 38-23.7 59.8-18.7z"/>
					</g>
				</g>
				<g id="&lt;Group&gt;">
					<g id="&lt;Group&gt;">
						<path id="&lt;Compound Path&gt;" fill-rule="evenodd" class="s1" d="m1308.1 429.6q-2.8 0-5.6-0.3l-7-0.6c-10.7-1-21-5.5-29-12.7-2.2-1.9-11.8 0.8-16.5 2.1-5.7 1.6-11.6 3.1-17.1 3.2l-54.8-1.2c-5.7 0.9-11.4-0.6-15.9-4.2-1.2-1-2.7-2.1-4.3-3.4-15.9-12.3-27.5-21.3-23.2-31.2l15.1-42.5c1.8-5 6-8.8 11-9.7 0.5-0.2 2.8-2.1 4.2-3.2 3.2-2.5 6.2-4.9 9.9-5.7 1.2-0.2 7.7-2.2 23.4-19.8 17-19 43.2-27.2 68.4-21.4l18.6 4.3c11.9-4.5 25.1-2.6 35.4 5.2 0.9 0.7 2 1.9 2.6 2.9 1.4 2.4 10.4 8.2 20.6 3.8 3.5-1.6 7.5-0.7 10.1 2 23.9 25.5 28.7 33 29.5 36.9l11.6 31.1c2.6 3.8 3.4 8.5 2.3 12.9-0.8 2.7-0.7 5.8-0.5 9 0.2 7 0.7 17.6-11.3 23.9l-8.7 4.6q-1.2 0.6-2.5 0.9l-40.3 7.3c-8.2 3.8-17 5.8-26 5.8zm-44.4-32c5.2 0 10.2 1.3 14.4 5 5.4 4.9 12.1 7.8 19 8.4l7 0.6c8 0.8 16.1-0.7 23.4-4.3q1.1-0.5 2.3-0.7l40.1-7.3 7.5-4c1.7-0.9 2-1 1.7-7.5-0.1-3.7-0.3-8.3 0.9-13.2q-0.7-1-1.1-2l-12.5-33.5q-0.1-0.4-0.3-0.8c-2.2-3.6-11.9-14.7-21.2-24.8-14.5 3.4-29.2-2.4-35.8-11.4-5.9-4-13-4.5-19.2-1.6-1.8 0.9-3.8 1.1-5.8 0.7l-21.4-4.9q0 0 0 0c-18.9-4.4-38.5 1.8-51.2 15.9-17.5 19.7-26.8 24-32.4 25.3-0.7 0.4-2.1 1.6-3.1 2.3-2.9 2.4-6.2 5-10 6.2l-13.7 38.6c3.5 3.8 12.4 10.7 16.5 13.9 1.6 1.3 3.2 2.5 4.5 3.6 0.6 0.4 1.4 0.6 2.1 0.4 0.7-0.1 1.4-0.2 2.2-0.2l55.6 1.3q0 0 0.1 0c2.8 0 7.5-1.3 12-2.6 5.7-1.6 12.2-3.4 18.4-3.4zm-97.2-52.9v0.1q0 0 0-0.1zm199.4-9.5zm0-0.1q0 0 0 0 0 0 0 0z"/>
					</g>
				</g>
			</g>
			<g id="&lt;Group&gt;">
				<g id="&lt;Group&gt;">
					<g id="&lt;Group&gt;">
						<path id="&lt;Path&gt;" class="s3" d="m945.1 309.1l19.4 2.4c8-4.9 18-5 26.1 0l0.3 0.2c4.1 5.5 17.1 10.3 29 3.6q27.1 23.3 27.1 26.4l14.2 28.5c1.5 1.4 2.4 3.4 2 5.4-1.7 10.3 5.3 18.9-3.9 25l-7.3 4.9-36 10.5c-7.3 4.6-15.7 7.1-24.4 7.2l-6.2 0.1c-8 0.1-15.7-2.3-22.2-7l-0.2-0.1c-8.4-6-24.2 5.5-34.4 6.5l-49.4 4.1c-2.9 1-6.1 0.6-8.7-1.1-8.1-5.1-25.8-15.3-24.3-19.2l9.5-39.4c0.4-1.8 1.6-3.4 3.4-3.9 3.9-1.2 8.8-8.3 11.8-9.2 6.7-2.1 15.4-12.2 22.9-22.7 11.7-16.2 31.4-24.6 51.3-22.2z"/>
					</g>
				</g>
				<g id="&lt;Group&gt;">
					<g id="&lt;Group&gt;">
						<path id="&lt;Compound Path&gt;" fill-rule="evenodd" class="s1" d="m875.9 436.2c-3.6 0-7.1-1-10.2-3-1.2-0.8-2.6-1.6-4.2-2.6-15.6-9.7-26.9-16.8-23.9-26.6l9.4-39c1.3-5 4.9-8.9 9.6-10.3 0.2-0.2 1.9-2 3-3 2.7-2.6 5.2-5.1 8.7-6.2 0.5-0.2 6-2.3 18.3-19.4 13.5-18.7 36.3-28.6 59.5-25.8l16.6 2c10.3-5 22.5-4.5 32.5 1.6 1 0.6 2.2 1.6 2.9 2.5 1.3 1.8 9.3 5.7 17.4 1.2 3.2-1.9 7.3-1.5 10.2 1 23.7 20.5 28.8 26.7 29.9 30.4l13 26.1c2.8 3.4 4.1 7.8 3.4 12-0.4 2.3 0 4.9 0.4 7.7 0.9 6 2.4 16.2-8.1 23.2l-7.3 4.9q-1.2 0.7-2.5 1.1l-34.8 10.2c-8.5 5.1-18.1 7.8-27.9 7.9l-6.3 0.1c-9.6 0.2-19.5-2.9-27.4-8.7-2.2-0.9-9.9 2.1-13.5 3.5-5 2-10.2 4-15.2 4.5l-48.6 4q-2.4 0.7-4.9 0.7zm-20.3-31c3.6 3.1 11.6 8 15.3 10.3 1.6 1 3.1 2 4.3 2.8 0.4 0.2 0.8 0.2 1.2 0.1q1-0.4 2.1-0.5l49.4-4.1c2.3-0.2 6.3-1.8 10.2-3.3 9.3-3.6 20.8-8.2 30.1-1.5 5 3.6 10.8 5.5 16.7 5.5q0.2 0 0.4 0l6.2-0.1c7-0.1 13.9-2.1 19.8-5.9q1.1-0.6 2.3-1l34.6-10.1 6.2-4.2c0.7-0.4 0.8-0.7 0.8-0.7 0.3-0.6-0.1-3.4-0.4-5.1-0.4-3.3-1-7.2-0.5-11.7q-0.6-0.7-1-1.5l-14.2-28.5q-0.2-0.3-0.3-0.6c-2.3-3-11.5-11.5-20.5-19.4-13.6 4.7-26.8-0.3-33.1-7.1-5.3-2.7-11.3-2.5-16.1 0.4-1.7 1.1-3.7 1.5-5.7 1.3l-19.4-2.4c-16.8-2-33.3 5.1-43 18.6-13.7 19-21.7 23.9-26.7 25.6-0.5 0.5-1.6 1.5-2.3 2.2-2.3 2.3-4.9 4.9-8.1 6.5zm182.6-63.4q0 0 0 0 0 0 0 0z"/>
					</g>
				</g>
			</g>
			<g id="&lt;Group&gt;">
				<g id="&lt;Group&gt;">
					<g id="&lt;Group&gt;">
						<path id="&lt;Path&gt;" class="s3" d="m1220.7 469.1l61.5-4c8-0.5 16 1 22.5 4.2l0.2 0.1c5.1 2.5 11.1 3.8 17.3 3.7h5c4.4 0 10.2-0.9 15.4-2.2 5.3-1.3 11-1.2 16 0.6l20.1 6.9c5.1 1.8 10.7 2.7 16.3 2.6l7.7-0.1c5.3 0 10.3 1.4 14 4l6 4.3c4.1 2.9 6.4 6.8 6.4 10.9l0.1 7.2-5 13.9c-1.9 5.1 0.1 10.5 5.2 14.4v0.1l0.2 17.9c0.1 5.3-1.7 8.2-6.4 12.5l-18.3 2.3c-0.1 0.1-0.2 0.2-0.4 0.3v0.1c0.4 4.3-6 7.4-11.6 5.7-5.7-1.8-11.1-3-15.1-0.1l-5.3 3.8-3.2 2.1c-6.1 7.6-20.3 9.5-34.4 7l-18.8 4c-3.1 0.7-6.3 0.6-9.2-0.3l-37.8-11c-1.9-0.6-4-0.9-6.1-1.1l-25.3-1.5c-6-0.3-11.7-1.9-16.3-4.5l-24.1-13.6-10.4-1.9c-4-0.8-6.7-3.3-6.8-6.2l-0.1-11.4c0-1.5-0.6-3-1.8-4.3l-11.8-13.3-8.4-3.4c-7.3-2.9-9.3-9.6-4.1-14.2 12.4-11.1 32.7-16.7 43.4-19 4.1-0.8 6.9-3.3 7.5-6.2q0-0.1 0-0.2c1.2-5.4 7.9-9.5 15.9-10.1z"/>
					</g>
				</g>
				<g id="&lt;Group&gt;">
					<g id="&lt;Group&gt;">
						<path id="&lt;Compound Path&gt;" fill-rule="evenodd" class="s1" d="m1312.1 600.6c-2.6 0-5.2-0.4-7.7-1.1l-37.7-11c-1.4-0.4-2.8-0.6-4.3-0.7l-25.2-1.5c-7.4-0.5-14.3-2.4-20.2-5.7l-22.8-12.8-8.9-1.7c-8.2-1.6-14-7.7-14-14.8l-0.1-10.4-10.1-11.3-6.4-2.5c-6.7-2.7-11.3-7.9-12.3-13.9-1-5.6 1-11.1 5.5-15.2 13.9-12.5 35.8-18.5 47.6-21.1q0.5-0.1 0.8-0.2c2.5-9.2 11.9-15.6 23.8-16.4l61.5-4c9.6-0.6 19.2 1.2 27.1 5.1 3.9 1.9 8.9 2.9 13.5 2.9l4.9-0.1c3.6 0 8.7-0.7 13.4-1.9 7-1.7 14.5-1.5 21 0.8l20.1 6.9c4.1 1.4 8.8 2.3 13.4 2.1h7.6c7.3 0 14 1.9 19.2 5.6l6 4.3c6.4 4.5 10.1 11.1 10.2 18l0.1 7.3q0 1.6-0.6 3.1l-5 13.8c-0.6 1.7 0.9 3.4 2.2 4.4 2.2 1.7 3.6 4.3 3.6 7l0.2 17.9c0.1 8.8-3.7 14.1-9.4 19.2-1.3 1.2-3 1.9-4.8 2.2l-13.2 1.6q-1.2 1.9-3.1 3.3c-4.6 3.8-11.6 5-17.7 3.1-5.5-1.7-7-1.5-7.4-1.3l-7.7 5.4c-7.8 8.6-22.6 12.1-40.1 9.3l-17.2 3.7c-1.9 0.4-3.8 0.6-5.8 0.6zm-123.1-51.9l9.9 1.9q1.4 0.3 2.7 1l24.1 13.5c3.5 2 7.9 3.2 12.5 3.5l25.3 1.5c2.8 0.1 5.5 0.6 8.1 1.4l37.8 11c1.5 0.4 3.2 0.5 4.8 0.2l18.9-4.1c1.1-0.2 2.2-0.3 3.4 0 13.1 2.3 23-0.2 25.9-3.9q0.9-1.1 2.1-1.8l3.2-2.1 4.9-3.6c8-5.8 17.7-2.8 22.9-1.2q0.3 0.1 0.6 0.1c0.5-1.5 1.3-2.9 2.5-4 0.1 0 0.5-0.4 0.5-0.4 1.3-1.2 3-1.9 4.7-2.1l15.3-2c1.7-1.7 1.7-2.5 1.6-3.9l-0.1-14.1c-5.7-6.2-7.5-14-4.8-21.4l4.5-12.4v-5.6c-0.1-1.2-1.1-2.6-2.8-3.8l-6-4.2c-2.1-1.5-5.4-2.5-8.7-2.4l-7.7 0.1c-6.7 0-13.3-1-19.3-3.1l-20.1-7c-3.2-1.1-7.2-1.2-11-0.3-6 1.5-12.5 2.4-17.4 2.5h-5q-0.2 0-0.4 0c-7.5 0-14.7-1.6-20.9-4.6-5.3-2.7-11.7-3.8-18.3-3.4l-61.5 4c-4.6 0.3-7.3 2.3-7.7 3.1q-0.1 0.2-0.1 0.4c-1.2 6.1-6.7 11.2-14.2 12.8-7.9 1.7-27.1 6.5-38.4 16.1q0.2 0.1 0.5 0.2l8.4 3.3c1.2 0.6 2.4 1.3 3.3 2.4l11.8 13.3c2.7 2.9 4.1 6.4 4.1 10.1zm7.1-71.1q0 0 0 0 0 0 0 0z"/>
					</g>
				</g>
			</g>
			<g id="&lt;Group&gt;">
				<g id="&lt;Group&gt;">
					<g id="&lt;Group&gt;">
						<path id="&lt;Path&gt;" class="s3" d="m1085 687.7l-144.7-126.1"/>
					</g>
				</g>
				<g id="&lt;Group&gt;">
					<g id="&lt;Group&gt;">
						<path id="&lt;Path&gt;" class="s1" d="m1084.9 696.6c-2 0-4.1-0.7-5.8-2.2l-144.7-126.1c-3.7-3.2-4-8.8-0.8-12.5 3.2-3.7 8.8-4.1 12.5-0.9l144.7 126.2c3.7 3.2 4.1 8.8 0.8 12.5-1.7 2-4.2 3-6.7 3z"/>
					</g>
				</g>
			</g>
			<g id="&lt;Group&gt;">
				<g id="&lt;Group&gt;">
					<g id="&lt;Group&gt;">
						<path id="&lt;Path&gt;" class="s3" d="m1012.2 622.1l-13.5-78.2"/>
					</g>
				</g>
				<g id="&lt;Group&gt;">
					<g id="&lt;Group&gt;">
						<path id="&lt;Path&gt;" class="s1" d="m1012.2 630.9c-4.2 0-8-3-8.7-7.3l-13.5-78.2c-0.9-4.8 2.4-9.4 7.2-10.2 4.8-0.8 9.4 2.4 10.2 7.2l13.6 78.2c0.8 4.8-2.4 9.4-7.3 10.2q-0.7 0.1-1.5 0.1z"/>
					</g>
				</g>
			</g>
			<g id="&lt;Group&gt;">
				<g id="&lt;Group&gt;">
					<g id="&lt;Group&gt;">
						<path id="&lt;Path&gt;" class="s3" d="m1105.8 148.9c9.2-1.8 18.8 0.2 26.6 5.4l5.9 4c7.2 4.8 15.8 6.9 24.4 5.9l0.7-0.1c8.9-1 17.8 18.3 24.3 24.5l0.1 0.1q9.5 1.7 17.9 4.2c6.6 2.1 6.9 9.8 11.4 15 4.9 5.6 19.1 29.3-3.3 32.7-14.1 2.2 2.1 18.6-9.8 20.7l-24 17.4-29.4 3.3c-6.5 2.7-22.5-2.4-29.4-3.3l-21.6 3.9-20.1-3.9c-7 0.9-23 6-29.5 3.3l-29.4-3.3-24-17.4c-11.9-2.1 4.4-18.5-9.8-20.7-22.4-3.4-8.2-27.1-3.3-32.7 4.6-5.2 4.9-12.9 11.5-15q8.3-2.5 17.9-4.2l0.1-0.1c6.5-6.2 15.3-25.5 24.2-24.5l0.8 0.1c8.5 1 17.1-1.1 24.3-5.9l6-4c7.8-5.2 17.3-7.2 26.5-5.4l4.8 0.9z"/>
					</g>
				</g>
				<g id="&lt;Group&gt;">
					<g id="&lt;Group&gt;">
						<path id="&lt;Compound Path&gt;" fill-rule="evenodd" class="s1" d="m1145.6 291.6c-5.3 0-11.6-1.2-18.6-2.7-2.1-0.5-4.1-0.9-5.7-1.2l-20.1 3.6q-1.6 0.3-3.3 0l-18.6-3.6c-1.6 0.3-3.6 0.7-5.6 1.2-10.5 2.2-19.1 3.8-25.7 1.8l-28.4-3.2c-1.5-0.2-3-0.7-4.2-1.6l-22.6-16.4c-3.8-1.2-6-3.4-7.3-5.2-3.4-4.9-2.4-10.5-1.8-14.3q0.1-0.4 0.2-0.9c-10.8-2.1-15.2-8.2-17-13.1-4.8-13.1 5.6-29 10-34 0.9-1 1.7-2.7 2.5-4.5 2.1-4.2 5.1-10.7 13-13 5.9-1.8 12.3-3.2 15.9-4 1.3-1.6 2.9-3.8 4.4-6 6.7-9.6 14.2-20.6 25.6-19.2l0.7 0.1c6.5 0.7 13-0.8 18.4-4.5l5.9-4c9.8-6.6 21.6-9 33.2-6.7l3.3 0.6 4.7-0.7c11.3-2.2 23 0.2 32.8 6.8l6 4c5.4 3.7 11.9 5.2 18.3 4.5l0.8-0.1c11.1-1.3 18.9 9.6 25.6 19.2 1.5 2.2 3 4.4 4.3 6 3.7 0.8 10 2.2 15.9 4 7.9 2.3 11 8.8 13 13 0.9 1.8 1.7 3.5 2.6 4.5 4.4 5 14.7 20.9 9.9 34-1.8 4.9-6.1 10.9-17 13.1q0.1 0.5 0.2 0.9c0.7 3.8 1.7 9.4-1.8 14.3-1.2 1.8-3.5 4-7.3 5.2l-22.5 16.4c-1.3 0.9-2.8 1.4-4.3 1.6l-28.4 3.2c-2.1 0.6-4.5 0.9-7 0.9zm-121.7-21.4l27.1 3q1.3 0.1 2.5 0.6c2.6 0.7 11.9-1.3 16.4-2.3 3.3-0.7 6.3-1.3 8.5-1.6q1.3-0.2 2.7 0.1l18.6 3.6 19.9-3.6q1.3-0.3 2.7-0.1c2.2 0.3 5.1 0.9 8.5 1.6 4.5 1 13.8 3 16.5 2.3 0.8-0.4 1.5-0.5 2.3-0.6l27.1-3 22.1-16.1q0.4-0.3 0.7-0.5 0-0.2-0.1-0.5c-0.6-3.9-1.7-9.9 2-15.1 2.4-3.3 6.1-5.4 11.1-6.2 2.5-0.3 4.3-1.1 4.5-1.9 1.2-3.1-2.8-11.9-6.6-16.2-2.5-2.9-4-6-5.2-8.5-0.6-1.3-1.6-3.4-2.1-3.8-7.7-2.3-16.8-4-16.9-4-1.7-0.3-3.3-1.1-4.5-2.3-2.9-2.7-5.5-6.5-8.3-10.4-2.5-3.7-7.2-10.3-9.6-11.7h-0.1c-10.7 1.2-21.4-1.4-30.3-7.3l-6-4.1c-5.9-3.9-13-5.3-19.9-4l-6.6 1q-1.5 0.2-3-0.1l-4.8-0.9c-7-1.3-14 0.1-19.9 4l-6 4.1c-8.9 5.9-19.6 8.5-30.3 7.3-2.5 1.4-7.1 8-9.7 11.7-2.8 3.9-5.4 7.7-8.1 10.3-1.3 1.2-3 2.1-4.6 2.4-0.1 0-9.2 1.7-16.9 4-0.6 0.4-1.5 2.4-2.2 3.8-1.2 2.5-2.7 5.6-5.2 8.5-3.8 4.3-7.7 13.1-6.6 16.2 0.3 0.8 2.1 1.6 4.6 1.9 4.9 0.8 8.6 2.9 11 6.2 3.7 5.2 2.7 11.2 2 15.1q0 0.3-0.1 0.5 0.4 0.2 0.7 0.5zm-37.8-20.7z"/>
					</g>
				</g>
			</g>
			<g id="&lt;Group&gt;">
				<g id="&lt;Group&gt;">
					<g id="&lt;Group&gt;">
						<g id="&lt;Group&gt;">
							<path id="&lt;Path&gt;" class="s3" d="m1134.2 883.9l119.3-121.4"/>
						</g>
					</g>
					<g id="&lt;Group&gt;">
						<g id="&lt;Group&gt;">
							<path id="&lt;Path&gt;" class="s1" d="m1134.2 892.8c-2.2 0-4.4-0.9-6.2-2.6-3.5-3.4-3.5-9-0.1-12.5l119.3-121.4c3.5-3.5 9.1-3.6 12.6-0.2 3.5 3.5 3.5 9.1 0.1 12.6l-119.3 121.4c-1.8 1.8-4.1 2.7-6.4 2.7z"/>
						</g>
					</g>
				</g>
				<g id="&lt;Group&gt;">
					<g id="&lt;Group&gt;">
						<g id="&lt;Group&gt;">
							<path id="&lt;Path&gt;" class="s3" d="m1257.3 708.3l16.2 2.9c7.1-3.8 15.6-3.3 22.1 1.3l0.3 0.2c3.2 4.9 13.9 9.6 24.3 4.5q21.7 21.1 21.6 23.7l10.6 24.8c1.1 1.2 1.8 3 1.4 4.6-2 8.6 3.5 16.3-4.5 21l-6.5 3.7-30.9 7.1c-6.4 3.6-13.7 5.2-21 4.9l-5.3-0.2c-6.7-0.3-13.1-2.8-18.3-7l-0.2-0.2c-6.8-5.5-20.7 3.5-29.4 3.8l-42 1c-2.5 0.7-5.2 0.2-7.3-1.3-6.5-4.8-21-14.3-19.6-17.5l10-32.8c0.5-1.5 1.6-2.8 3.1-3.2 3.4-0.8 7.9-6.5 10.5-7.2 5.7-1.4 13.5-9.5 20.5-18 10.6-13.1 27.7-19.1 44.4-16.1z"/>
						</g>
					</g>
					<g id="&lt;Group&gt;">
						<g id="&lt;Group&gt;">
							<path id="&lt;Compound Path&gt;" fill-rule="evenodd" class="s1" d="m1292.7 815.9q-1.1 0-2.2 0l-5.3-0.3c-8.5-0.4-16.9-3.6-23.5-9-1.5-0.4-7.2 1.5-10.3 2.5-4.4 1.5-9 3-13.4 3.1l-41.2 1c-4.8 1-9.7-0.1-13.6-3l-3.3-2.3c-12.8-9-22.9-16.2-19.4-25.3l9.9-32.4c1.3-4.4 4.7-7.9 8.9-9.1 0.7-0.4 1.9-1.5 2.7-2.2 2.4-2.1 4.9-4.3 8.2-5.1 0.2 0 4.6-1.3 15.8-15 12.6-15.5 32.9-22.9 52.8-19.3l13.5 2.5c9.4-3.8 20-2.6 28.4 3.2 0.9 0.7 2 1.7 2.6 2.7 1 1.3 6.8 4.3 12.9 1.3 3.4-1.6 7.5-1 10.1 1.6 19.5 18.9 23.5 24.5 24.2 27.9l9.6 22.4c2.3 3.3 3.2 7.3 2.3 11.2-0.4 1.7-0.2 3.8 0 6.1 0.5 5.1 1.3 14.7-8.7 20.5l-6.4 3.8q-1.2 0.6-2.5 1l-29.8 6.8c-6.9 3.6-14.5 5.4-22.3 5.4zm-31.3-27c4 0 7.8 1 11.3 3.8 3.9 3.2 8.5 5 13.3 5.2l5.3 0.3c5.7 0.2 11.3-1.1 16.4-3.8q1-0.6 2.2-0.9l29.6-6.8 5.3-3.1c0.2-0.4 0.1-2.4 0-3.7-0.3-2.7-0.6-6 0-9.6q-0.3-0.6-0.6-1.2l-10.6-24.8q0-0.1-0.1-0.3c-1.9-2.6-8.8-9.8-15.6-16.6-11.2 2.7-22.4-1.3-28.1-8.1-3.9-2.2-8.3-2.3-12.1-0.3-1.7 1-3.8 1.3-5.8 0.9l-16.2-2.9c-13.6-2.5-27.4 2.5-36 13-12.5 15.4-19.8 19.4-24.2 20.8-0.6 0.4-1.2 0.9-1.8 1.5-2 1.8-4.3 3.7-7 5l-8.3 27.3c3 2.7 8.9 6.8 11.7 8.8 1.3 0.9 2.5 1.8 3.5 2.5 0.7-0.2 1.2-0.4 1.9-0.4l42-1c1.8-0.1 5.3-1.2 8.4-2.2 4.8-1.6 10.2-3.4 15.5-3.4zm-81.5-47.9q0 0 0 0 0 0 0 0zm153-0.5q0 0 0 0 0 0 0 0z"/>
						</g>
					</g>
				</g>
			</g>
			<g id="&lt;Group&gt;">
				<g id="&lt;Group&gt;">
					<g id="&lt;Group&gt;">
						<g id="&lt;Group&gt;">
							<path id="&lt;Path&gt;" class="s3" d="m1080.1 829.2l-105.6-77.4"/>
						</g>
					</g>
					<g id="&lt;Group&gt;">
						<g id="&lt;Group&gt;">
							<path id="&lt;Path&gt;" class="s1" d="m1080 838.1c-1.8 0-3.6-0.6-5.2-1.7l-105.5-77.5c-4-2.9-4.8-8.4-1.9-12.4 2.9-3.9 8.4-4.8 12.4-1.9l105.5 77.5c3.9 2.9 4.8 8.4 1.9 12.4-1.7 2.4-4.4 3.6-7.2 3.6z"/>
						</g>
					</g>
				</g>
				<g id="&lt;Group&gt;">
					<g id="&lt;Group&gt;">
						<g id="&lt;Group&gt;">
							<path id="&lt;Path&gt;" class="s3" d="m998.1 665.3c7.2 8.9 15.4 17.4 21.4 18.9 2.7 0.6 7.4 6.7 10.9 7.5 1.6 0.4 2.8 1.7 3.3 3.3l10.4 34.3c1.5 3.4-13.6 13.3-20.4 18.3-2.3 1.6-5.1 2.1-7.7 1.4l-43.9-1.1c-9.1-0.3-23.7-9.7-30.7-3.9l-0.2 0.1c-5.5 4.5-12.2 7-19.2 7.4l-5.6 0.2c-7.6 0.4-15.2-1.4-21.9-5.1l-32.4-7.4-6.7-4c-8.4-4.9-2.7-12.9-4.7-21.8-0.4-1.8 0.2-3.6 1.4-4.9l11.1-26q-0.1-2.7 22.6-24.7c10.9 5.3 22.1 0.4 25.4-4.7l0.3-0.2c6.9-4.8 15.8-5.3 23.1-1.4l17-3.1c17.4-3.1 35.3 3.2 46.5 16.9z"/>
						</g>
					</g>
					<g id="&lt;Group&gt;">
						<g id="&lt;Group&gt;">
							<path id="&lt;Compound Path&gt;" fill-rule="evenodd" class="s1" d="m914.5 760.6c-8 0-16-1.9-23.1-5.6l-31.3-7.2q-1.3-0.3-2.5-1l-6.7-3.9c-10.2-6-9.4-15.4-8.9-21.1 0.3-2.3 0.4-4.6 0-6.5-0.9-3.9 0-8.1 2.5-11.4l10-23.6c0.8-3.5 5.1-9.4 25.2-28.9 2.7-2.6 6.7-3.3 10.1-1.6 6.7 3.3 12.9 0 14-1.6 0.6-0.8 1.5-1.8 2.3-2.4 9-6.3 20-7.4 29.7-3.5l14.3-2.6c20.7-3.8 41.7 3.9 54.9 20 11.8 14.5 16.5 15.8 16.7 15.9 3.3 0.8 5.9 3 8.4 5.2 0.8 0.8 2.2 2 2.9 2.4 4.3 1.2 7.8 4.7 9.1 9.2l10.4 33.9c3.5 9.3-7 16.7-20.1 26-1.3 0.9-2.5 1.7-3.5 2.5-4.1 2.9-9.1 4-14 3l-43-1c-4.6-0.2-9.4-1.7-14-3.2-3.3-1.1-9.4-3.1-11.3-2.6-6.7 5.6-15.4 8.9-24.2 9.3l-5.6 0.3q-1.1 0-2.3 0zm-49.1-29.8l31.1 7.2q1.2 0.2 2.2 0.8c5.3 2.9 11.4 4.3 17.3 4.1l5.6-0.3c5-0.2 10-2.1 14-5.3 8.4-6.9 19.2-3.4 27.8-0.6 3.3 1.1 7 2.3 9 2.4l43.8 1q1.1 0 2.1 0.3 1.8-1.2 3.8-2.6c3.1-2.2 9.3-6.6 12.5-9.4l-8.8-29c-2.9-1.3-5.2-3.3-7.4-5.2-0.7-0.6-1.3-1.2-1.9-1.7-4.6-1.4-12.2-5.5-25.3-21.6-9-11.1-23.6-16.4-38-13.7l-17 3c-2 0.4-4 0.1-5.8-0.9-4.1-2.2-9-2.1-13 0.3-5.9 7.2-17.7 11.4-29.3 8.4-7.3 7.2-14.6 14.9-16.6 17.6q0 0.2-0.1 0.4l-11.1 26q-0.3 0.6-0.7 1.2c0.7 3.9 0.4 7.3 0.1 10.2-0.1 1.3-0.3 3.2-0.2 4q0.1 0 0.4 0.2zm163-30.5q0 0 0 0 0 0 0 0zm-156.4-18.2q0 0 0 0 0 0 0 0zm0 0q0 0 0 0 0 0 0 0zm79.6-33.7h0.1z"/>
						</g>
					</g>
				</g>
			</g>
			<g id="&lt;Group&gt;">
				<g id="&lt;Group&gt;">
					<g id="&lt;Group&gt;">
						<path id="&lt;Path&gt;" class="s3" d="m832.1 485.2l25.4-11.2c1.7-0.7 3.7-0.8 5.5-0.3l17.1 5.2c4.6 1.4 9.6 1.4 14.1 0l16.8-5.1 31.8 4.6c2.2 0.3 4.2-0.9 4.4-2.7l1.1-7.3c0.2-1.6 1.4-2.9 3-3.6 1-0.4 2.2-0.5 3.4-0.4l25.7 3.7 43.4 12.4 31.6 24.8c4.2 3.3 7.1 7.8 8.4 13v0.1c2.3 9.7-6.1 18.6-17.8 18.6l-18.6 0.2-28.7 6.7-7.2 9.4-12.6 14.5c-4.4 5.1-12.4 7.1-19.8 5.1l-39.3-10.9q-21.7 3.6-30.3 4.7-3.7 0.4-7 1.8l-13.3 5.7c-4.5 2-9.8 2.6-15 1.8l-32.9-5.2q-2.9 1.2-0.5-10.6c0.5-0.8 0.7-1.8 0.6-2.7l-1.9-18.7c-0.2-2.4 1-4.7 3.2-6.2l14.2-9.4c3.6-2.4 5.2-6.5 3.9-10.4z"/>
					</g>
				</g>
				<g id="&lt;Group&gt;">
					<g id="&lt;Group&gt;">
						<path id="&lt;Compound Path&gt;" fill-rule="evenodd" class="s1" d="m858.7 585.2q-2.9 0-5.9-0.5l-31.7-4.9c-2.2 0-4.4-0.7-6.2-2.2-4-3.3-4.8-8.8-2.8-19.1q0.1-0.7 0.4-1.4l-1.8-17.4c-0.5-5.7 2.2-11.2 7.1-14.5l14.2-9.4-8.3-27.9c-1.4-4.3 0.7-9 4.8-10.8l25.4-11.2c3.7-1.6 7.8-1.8 11.7-0.6l17 5.1c3 0.9 6.2 0.9 9.1 0l16.8-5c1.2-0.4 2.5-0.5 3.8-0.3l26.9 3.8 0.3-1.8c0.7-4.7 3.9-8.7 8.6-10.5 2.4-1 5.2-1.3 7.8-0.9l25.8 3.7q0.5 0 1.1 0.2l43.5 12.3c1.1 0.4 2.1 0.9 3 1.6l31.6 24.8c5.7 4.5 9.8 10.9 11.5 17.9 1.6 6.9 0.1 13.9-4.3 19.5-5 6.4-13 10.2-22 10.2l-17.7 0.1-24.6 5.8-5.3 6.9-12.9 14.9c-6.7 7.7-18.1 10.8-28.9 7.8l-37.4-10.3c-5.5 0.9-21.5 3.4-28.7 4.4q-2.5 0.3-4.6 1.2l-13.3 5.7c-4.4 1.8-9.1 2.8-14 2.8zm-29.4-22.1l26.3 4.1c3.5 0.6 7.1 0.2 10.1-1.1l13.3-5.7c3-1.3 6.1-2.1 9.4-2.5 8.3-1.1 29.8-4.6 30-4.6q1.9-0.3 3.8 0.2l39.2 10.8c4.2 1.2 8.6 0.2 10.8-2.4l12.6-14.4 6.9-9c1.2-1.6 3-2.7 5-3.2l28.6-6.8q1-0.2 2-0.2l18.7-0.1c3.5 0 6.5-1.3 8.2-3.4q1.5-2 1-4.4c-0.8-3.2-2.7-6.1-5.3-8.1l-30.2-23.8-41.1-11.7-22.1-3.1-0.5 3.2c-0.5 3.5-2.5 6.6-5.6 8.5-2.6 1.6-5.7 2.2-8.8 1.8l-29.9-4.3-14.9 4.5c-6.2 1.9-13 1.8-19.3 0l-16.8-5.1-17.7 7.8 6.3 20.1c2.4 7.6-0.6 15.8-7.5 20.4l-13.3 8.8 1.7 17.2c0.2 2.2-0.1 4.4-0.9 6.4q0 0 0 0.1zm-16.7-4.8z"/>
					</g>
				</g>
			</g>
		</g>
	</g>
</svg>