<svg version="1.2" xmlns="http://www.w3.org/2000/svg" viewBox="0 0 1184 1203" width="200" height="203">
	<title>uploadDocuments</title>
	<style>
		.s0 { fill: #a4edf5 } 
		.s1 { fill: none;stroke: #0c6bc2;stroke-linecap: round;stroke-linejoin: round;stroke-width: 14.9 } 
		.s2 { fill: none;stroke: #0c6bc2;stroke-linecap: round;stroke-linejoin: round;stroke-width: 14.9;stroke-dasharray: 60,60 } 
		.s3 { fill: #caf4ff;stroke: #0c6bc2;stroke-linecap: round;stroke-linejoin: round;stroke-width: 14.9 } 
		.s4 { fill: #ffffff;stroke: #0c6bc2;stroke-linecap: round;stroke-linejoin: round;stroke-width: 14.9 } 
		.s5 { fill: #a4edf5 } 
		.s6 { fill: none;stroke: #0c6bc2;stroke-linejoin: round;stroke-width: 14.9 } 
	</style>
	<g id="&lt;Group&gt;">
		<g id="&lt;Group&gt;">
			<g id="&lt;Group&gt;">
				<g id="&lt;Group&gt;">
					<g id="&lt;Group&gt;">
						<circle id="&lt;Path&gt;" class="s0" cx="555.2" cy="601.7" r="447.2"/>
					</g>
				</g>
			</g>
		</g>
		
		<g id="&lt;Group&gt;">
			<g id="&lt;Group&gt;">
				<g id="&lt;Group&gt;">
					<g id="&lt;Group&gt;">
						<g id="&lt;Group&gt;">
							<path id="&lt;Compound Path&gt;" class="s3" d="m146.7 61.1h357.9v701h-492.8v-533.3z"/>
						</g>
						<path id="&lt;Path&gt;" class="s4" d="m88.7 296.8h299.4"/>
						<path id="&lt;Path&gt;" class="s4" d="m88.7 363.4h299.4"/>
						<path id="&lt;Path&gt;" class="s4" d="m88.7 429.9h299.4"/>
						<path id="&lt;Path&gt;" class="s4" d="m88.7 496.5h299.4"/>
						<path id="&lt;Path&gt;" class="s4" d="m88.7 563.1h299.4"/>
						<path id="&lt;Path&gt;" class="s4" d="m88.7 629.6h299.4"/>
					</g>
					<g id="&lt;Group&gt;">
						<g id="&lt;Group&gt;">
							<path id="&lt;Compound Path&gt;" class="s3" d="m221.5 112.9h357.9v701.1h-492.8v-533.4z"/>
						</g>
						<path id="&lt;Path&gt;" class="s4" d="m183.3 370.9h299.4"/>
						<path id="&lt;Path&gt;" class="s4" d="m183.3 437.4h299.4"/>
						<path id="&lt;Path&gt;" class="s4" d="m183.3 504h299.4"/>
						<path id="&lt;Path&gt;" class="s4" d="m183.3 570.6h299.4"/>
						<path id="&lt;Path&gt;" class="s4" d="m183.3 637.1h299.4"/>
						<path id="&lt;Path&gt;" class="s4" d="m183.3 703.7h299.4"/>
					</g>
					<g id="&lt;Group&gt;">
						<g id="&lt;Group&gt;">
							<path id="&lt;Compound Path&gt;" class="s4" d="m296.3 168.4h358v701.1h-492.8v-533.4h134.8z"/>
							<g id="&lt;Group&gt;">
								<path id="&lt;Path&gt;" class="s5" d="m296.3 168.4v167.7h-134.8l134.3-167.7z"/>
								<path id="&lt;Path&gt;" class="s6" d="m296.3 168.4v167.7h-134.8l134.3-167.7z"/>
							</g>
						</g>
						<path id="&lt;Path&gt;" class="s4" d="m258.2 426.4h299.3"/>
						<path id="&lt;Path&gt;" class="s4" d="m258.2 492.9h299.3"/>
						<path id="&lt;Path&gt;" class="s4" d="m258.2 559.5h299.3"/>
						<path id="&lt;Path&gt;" class="s4" d="m258.2 626.1h299.3"/>
						<path id="&lt;Path&gt;" class="s4" d="m258.2 692.6h299.3"/>
						<path id="&lt;Path&gt;" class="s4" d="m258.2 759.2h299.3"/>
					</g>
				</g>
			</g>
		</g>
		<path id="&lt;Path&gt;" class="s1" d="m787.2 912.1l170.3-331.9c13.3-25.9 42.3-35.9 84.3-14.4 42 21.6 44 50.3 31.9 74.8l-58.9 114.8-10 19.6-138.6 270.1c-19.9 38.7-59.2 58-97.8 38.1l-33.8-17.4c-38.6-19.8-53.9-67.3-34-105.9l258.9-504.6c19.8-38.7 67.3-53.9 105.9-34.1l70.1 36c38.6 19.8 53.9 67.2 34 105.9l-226.7 441.8"/>
	</g>
</svg>