<svg version="1.2" xmlns="http://www.w3.org/2000/svg" viewBox="0 0 1090 1086" width="200" height="199">
	<title>waste2-svg-svg</title>
	<style>
		.s0 { fill: none;stroke: #366088;stroke-linecap: round;stroke-linejoin: round;stroke-width: 11.3;stroke-dasharray: 57 } 
		.s1 { fill: #a4edf5 } 
		.s2 { fill: #ffffff;stroke: #366088;stroke-linecap: round;stroke-linejoin: round;stroke-width: 11.3 } 
		.s3 { fill: #d0fdff;stroke: #366088;stroke-linecap: round;stroke-linejoin: round;stroke-width: 11.3 } 
		.s4 { fill: none;stroke: #366088;stroke-linecap: round;stroke-linejoin: round;stroke-width: 11.3 } 
	</style>
	<g id="&lt;Group&gt;">
		<g id="&lt;Group&gt;">
			<path id="&lt;Path&gt;" class="s0" d="m1079.9 541.8c0 297-240.8 537.8-537.8 537.8q-141.3 0-207.6-40.6"/>
			<path id="&lt;Path&gt;" class="s0" d="m332.8 46.3c64.3-27.2 135.1-42.3 209.3-42.3 135.5 0 259.3 50.1 353.9 132.8"/>
			<path id="&lt;Path&gt;" class="s0" d="m214.5 968.3c-127.8-98.4-210.1-252.8-210.1-426.5 0-77.8 16.5-151.7 46.2-218.4"/>
			<circle id="&lt;Path&gt;" class="s1" cx="542.1" cy="541.8" r="394.8"/>
		</g>
		<g id="&lt;Group&gt;">
			<g id="&lt;Group&gt;">
				<g id="&lt;Group&gt;">
					<g id="&lt;Group&gt;">
						<g id="&lt;Group&gt;">
							<path id="&lt;Path&gt;" class="s2" d="m987.4 481.5l-63.5-109.9 60.5-12.2c3.4-0.6 6.4-2.5 8.6-5.2l34-42.1 48.3 83.7c4.1 7 6.8 14.7 7.8 22.8 1.6 13 0.2 31.2-15.3 45.1-16.1 14.4-36.9 16.5-48.7 17.7z"/>
							<path id="&lt;Path&gt;" class="s3" d="m1076.8 452.8l-79.2 121c-7.6 11.5-20.5 18.4-34.3 18.2l-53.9-0.7-1.4 43.3-57.1-98.6 57.2-105.8 0.1 49.9q99.1 2.4 110.9 1.3c11.8-1.2 32.6-3.3 48.7-17.7z"/>
						</g>
						<g id="&lt;Group&gt;">
							<path id="&lt;Path&gt;" class="s2" d="m848.5 224.2l-63.1 110.1-40.9-46.1c-2.3-2.6-5.4-4.3-8.9-4.9l-53.5-8.2 48.1-83.8c4-7.1 9.3-13.3 15.8-18.3 10.4-7.9 26.9-15.8 46.7-9.4 20.5 6.7 32.8 23.6 39.7 33.2z"/>
							<path id="&lt;Path&gt;" class="s3" d="m778.7 161.3l144.4 7.6c13.8 0.8 26.2 8.5 33 20.5l26.6 47 38-20.6-56.5 98.9-120.2 3.8 43.1-25.1q-47.7-86.9-54.7-96.6c-6.9-9.6-19.2-26.5-39.7-33.2z"/>
						</g>
						<g id="&lt;Group&gt;">
							<path id="&lt;Path&gt;" class="s2" d="m692.8 474.5l126.9-0.8-19.3 58.5c-1.1 3.3-1 6.9 0.3 10.1l19.8 50.4-96.7 0.6c-8.1 0.1-16.2-1.4-23.7-4.5-12-5-27.2-15.3-31.6-35.7-4.5-21.1 3.9-40.2 8.7-51z"/>
							<path id="&lt;Path&gt;" class="s3" d="m673.5 566.4l-66-128.7c-6.2-12.3-5.8-26.9 1.2-38.8l27.3-46.6-36.9-22.5 113.8-0.9 63.7 102-43.4-24.6q-51.1 84.9-56 95.8c-4.8 10.8-13.2 29.9-8.7 51z"/>
						</g>
					</g>
				</g>
			</g>
			<g id="&lt;Group&gt;">
				<path id="&lt;Path&gt;" class="s2" d="m474.2 997.3h-186.2c14.1 0 25.5-11.4 25.5-25.6v-241.7-89.3c0-4.3 3.5-7.8 7.8-7.8h291.6c4.3 0 7.8 3.5 7.8 7.8v210.2"/>
				<g id="&lt;Group&gt;">
					<path id="&lt;Path&gt;" class="s3" d="m817.7 888.2l-37.2 90.6c-4.6 11.2-15.6 18.5-27.7 18.5h-59c-12.2 0-23.1-7.3-27.7-18.5l-27.3-66.5q-5-11.9-10-23.8-11 0-22 0l-37.3 90.6c-4.6 11.2-15.5 18.5-27.6 18.5h-59.1c-12.1 0-23-7.3-27.6-18.5q-18.8-45.5-37.6-90.9 71.2 0.2 142.3 0.5-71.1-0.3-142.3-0.5c-18.6 0-31.3-18.9-24.2-36.1l34-82.6c7.4-18.1 25.1-30 44.7-30h115.3 60.5 115.3c19.6 0 37.3 11.9 44.8 30l33.9 82.6c7.1 17.2-5.6 36.1-24.2 36.1q-79.7 0-159.4 0"/>
				</g>
				<path id="&lt;Path&gt;" class="s2" d="m313.5 971.7c0 14.2-11.4 25.6-25.5 25.6-13.9 0-25.1-11.2-25.1-25v-234.5c0-4.3 3.5-7.8 7.8-7.8h42.8z"/>
			</g>
			<g id="&lt;Group&gt;">
				<g id="&lt;Group&gt;">
					<path id="&lt;Path&gt;" class="s3" d="m193.8 239.1c5.9-19.9 14.6-39 25.9-56.6l28.1-44.1c5.4-8.3 14.5-13.4 24.4-13.4h181.9c30.6 0 55.3 24.8 55.3 55.4v351.6h-304.9"/>
					<rect id="&lt;Path&gt;" class="s2" x="266" y="86.3" width="93.2" height="38.8" rx="8.3"></rect>
					<path id="&lt;Path&gt;" class="s4" d="m508.1 276.3h-288.7"/>
					<path id="&lt;Path&gt;" class="s4" d="m224 467.5h284.1"/>
					<rect id="&lt;Path&gt;" class="s2" x="371.3" y="163.5" width="98.6" height="51.7" rx="17.4"></rect>
				</g>
				<g id="&lt;Group&gt;">
					<g id="&lt;Group&gt;">
						<path id="&lt;Path&gt;" class="s3" d="m221.2 287.6c3 29.4 6.8 149.5 0 227.7 0 9.2-7.5 16.7-16.7 16.7h-111.4c-9.2 0-16.7-7.5-16.7-16.7v-30.3c0-7.5 2-15 6.4-21 5.1-7 6.3-14.9 2.6-26.9-4.2-13.3 2.8-22.7 5.5-26.7 5.7-8.5 10.6-17 12.5-27.3 3.5-20-6.8-35-17.2-50.9q-4.3-6.5-7.3-13.2c-1.7-4-2.5-8.3-2.5-12.6v-18.8c0-25.5 17.2-47.9 41.9-54.4 5-1.3 8.5-5.7 8.5-10.8v-17.8h44v17.8c0 5.1 3.5 9.5 8.5 10.8 24.7 6.5 38.9 25 41.9 54.4z"/>
					</g>
					<g id="&lt;Group&gt;">
						<rect id="&lt;Path&gt;" class="s2" x="115.4" y="162.5" width="66.7" height="42.1" rx="5.6"></rect>
					</g>
					<path id="&lt;Path&gt;" class="s2" d="m222.4 304.4c1.5 25 2.8 67.1 2.6 111.2-8.4-9.9-45.1-9.9-63.1 4.7-18 14.6-54.4 13.3-76.4 0 1.6-4.5 4-7.9 5.4-9.9 5.7-8.5 10.6-17 12.5-27.3 3.5-20-6.8-35-17.2-50.9q-4.3-6.5-7.3-13.2c-1.3-3.1-2.1-6.4-2.4-9.8 41.4 18.4 48.2-5.3 72.4-7.2 24.1-1.9 59.2 11.4 73.6 2.4"/>
				</g>
			</g>
		</g>
	</g>
</svg>