<svg version="1.2" xmlns="http://www.w3.org/2000/svg" viewBox="0 0 513 547" width="200" height="213">
	<title>year3-svg</title>
	<style>
		.s0 { fill: #a4edf5 } 
		.s1 { fill: none;stroke: #336088;stroke-linecap: round;stroke-linejoin: round;stroke-width: 4.5 } 
		.s2 { fill: none;stroke: #336088;stroke-linecap: round;stroke-linejoin: round;stroke-width: 4.5;stroke-dasharray: 27,27 } 
		.s3 { fill: none;stroke: #336088;stroke-linecap: round;stroke-linejoin: round;stroke-width: 4.5;stroke-dasharray: 34,34 } 
		.s4 { fill: #ffffff;stroke: #336088;stroke-linecap: round;stroke-linejoin: round;stroke-width: 4.5 } 
		.s5 { fill: #d0fdff;stroke: #336088;stroke-linecap: round;stroke-linejoin: round;stroke-width: 4.5 } 
		.s6 { fill: #c5fbfc;stroke: #336088;stroke-linecap: round;stroke-linejoin: round;stroke-width: 4.5 } 
	</style>
	<g id="&lt;Group&gt;">
		<g id="&lt;Group&gt;">
			<g id="&lt;Group&gt;">
				<g id="&lt;Group&gt;">
					<g id="&lt;Group&gt;">
						<g id="&lt;Group&gt;">
							<g id="&lt;Group&gt;">
								<g id="&lt;Group&gt;">
									<g id="&lt;Group&gt;">
										<g id="&lt;Group&gt;">
											<g id="&lt;Group&gt;">
												<path id="&lt;Path&gt;" class="s0" d="m60.3 255.4c11.4-110.2 110-190.3 220.2-178.9 110.2 11.4 190.3 110 178.9 220.2-11.4 110.2-110 190.3-220.2 178.9-110.2-11.4-190.3-110-178.9-220.2z"/>
											</g>
										</g>
									</g>
								</g>
							</g>
						</g>
					</g>
				</g>
			</g>
		</g>
		<g id="&lt;Group&gt;">
			<g id="&lt;Group&gt;">
				<path id="&lt;Path&gt;" class="s1" d="m487 146.1q-3.3-5.9-6.9-11.5"/>
				<path id="&lt;Path&gt;" class="s2" d="m466.4 115.2c-36-46.6-87.2-80.8-146.3-95.2"/>
				<path id="&lt;Path&gt;" class="s1" d="m308.5 17.5q-6.5-1.3-13.1-2.2"/>
			</g>
		</g>
		<g id="&lt;Group&gt;">
			<g id="&lt;Group&gt;">
				<path id="&lt;Path&gt;" class="s1" d="m105.8 489.7q5.4 4 11 7.6"/>
				<path id="&lt;Path&gt;" class="s2" d="m278.7 538.8q-9.4 0.7-18.9 0.7c-43.3 0-84.3-10.5-120.4-29.1"/>
				<path id="&lt;Path&gt;" class="s1" d="m291.7 537.6q4.5-0.8 13.2-2"/>
			</g>
		</g>
		<g id="&lt;Group&gt;">
			<g id="&lt;Group&gt;">
				<path id="&lt;Path&gt;" class="s1" d="m103.3 64.1q-5.4 4-10.5 8.3"/>
				<path id="&lt;Path&gt;" class="s3" d="m69.9 93.5c-25 26.1-44.8 57.2-57.5 91.8"/>
				<path id="&lt;Path&gt;" class="s1" d="m7.5 200.1q-1.9 6.4-3.5 12.9"/>
			</g>
		</g>
		<g id="&lt;Group&gt;">
			<g id="&lt;Group&gt;">
				<path id="&lt;Path&gt;" class="s4" d="m216.6 464.7h-180.1c-16.5 0-29.9-13-29.9-29.2v-167.2c0-16.1 13.4-29.2 29.9-29.2h180.1c16.5 0 29.9 13.1 29.9 29.2v167.2c0 16.2-13.4 29.2-29.9 29.2z"/>
				<g id="&lt;Group&gt;">
					<path id="&lt;Path&gt;" class="s5" d="m40.2 267c-4.4 0-8-3.5-8-7.8v-27.7c0-4.3 3.6-7.8 8-7.8 4.4 0 8 3.5 8 7.8v27.7c0 4.3-3.6 7.8-8 7.8z"/>
					<path id="&lt;Path&gt;" class="s5" d="m97.8 267c-4.4 0-8-3.5-8-7.8v-27.7c0-4.3 3.6-7.8 8-7.8 4.4 0 8 3.5 8 7.8v27.7c0 4.3-3.6 7.8-8 7.8z"/>
					<path id="&lt;Path&gt;" class="s5" d="m155.4 267c-4.5 0-8.1-3.5-8.1-7.8v-27.7c0-4.3 3.6-7.8 8.1-7.8 4.4 0 8 3.5 8 7.8v27.7c0 4.3-3.6 7.8-8 7.8z"/>
					<path id="&lt;Path&gt;" class="s5" d="m212.9 267c-4.4 0-8-3.5-8-7.8v-27.7c0-4.3 3.6-7.8 8-7.8 4.4 0 8 3.5 8 7.8v27.7c0 4.3-3.6 7.8-8 7.8z"/>
				</g>
				<path id="&lt;Path&gt;" class="s4" d="m7.4 285.4h238.1"/>
			</g>
			<g id="&lt;Group&gt;">
				<path id="&lt;Path&gt;" class="s5" d="m205.4 443.7h-159c-10.7 0-19.4-8.4-19.4-18.9v-103.5c0-10.5 8.7-19 19.4-19h159c10.7 0 19.5 8.5 19.5 19v103.5c0 10.5-8.8 18.9-19.5 18.9z"/>
				<path id="&lt;Path&gt;" class="s4" d="m27 396.6h197.9"/>
				<path id="&lt;Path&gt;" class="s4" d="m27 349.5h197.9"/>
				<path id="&lt;Path&gt;" class="s4" d="m175.4 302.3v141.4"/>
				<path id="&lt;Path&gt;" class="s4" d="m125.9 302.3v141.4"/>
				<path id="&lt;Path&gt;" class="s4" d="m76.5 302.3v141.4"/>
			</g>
			<path id="&lt;Path&gt;" class="s1" d="m59.7 362.4l-15.3 21.3-7.7-4"/>
			<path id="&lt;Path&gt;" class="s1" d="m114.9 362.4l-15.3 21.3-7.6-4"/>
			<path id="&lt;Path&gt;" class="s1" d="m163.4 362.4l-15.3 21.3-7.6-4"/>
			<path id="&lt;Path&gt;" class="s1" d="m212.9 362.4l-15.3 21.3-7.6-4"/>
			<path id="&lt;Path&gt;" class="s1" d="m114.9 408.1l-15.3 21.3-7.6-3.9"/>
			<path id="&lt;Path&gt;" class="s1" d="m64.3 408.1l-15.3 21.3-7.6-3.9"/>
			<path id="&lt;Path&gt;" class="s1" d="m163.4 408.1l-15.3 21.3-7.6-3.9"/>
			<path id="&lt;Path&gt;" class="s1" d="m212.9 408.1l-15.3 21.3-7.6-3.9"/>
		</g>
		<g id="&lt;Group&gt;">
			<g id="&lt;Group&gt;">
				<path id="&lt;Path&gt;" class="s4" d="m295.4 87.1c3.4 49.5-33.4 92.5-82.4 96-49 3.5-91.5-33.8-95-83.3-3.5-49.5 33.4-92.5 82.4-96 49-3.5 91.5 33.8 95 83.3z"/>
				<path id="&lt;Path&gt;" class="s5" d="m207.4 89c6.1 0.5 10.6 5.8 10.2 11.9-0.4 6-5.7 10.6-11.7 10.2-6-0.4-10.6-5.7-10.1-11.8 0.4-6.1 5.6-10.7 11.6-10.3z"/>
				<path id="&lt;Path&gt;" class="s4" d="m207.4 89v-67"/>
				<path id="&lt;Path&gt;" class="s4" d="m195.7 100.1h-43"/>
			</g>
		</g>
		<g id="&lt;Group&gt;">
			<g id="&lt;Group&gt;">
				<g id="&lt;Group&gt;">
					<path id="&lt;Path&gt;" class="s4" d="m506.2 195.6v284.7h-212.5v-284.7z"/>
					<path id="&lt;Path&gt;" class="s6" d="m293.7 480.3h212.5v22.3c0 8.3-3.5 11.8-7.9 11.8h-196.8c-4.3 0-7.8-3.5-7.8-11.8z"/>
					<path id="&lt;Path&gt;" class="s6" d="m506.2 195.6h-212.5v-18.2c0-0.3 3.5-3.8 7.8-3.8h196.8c4.4 0 7.9 3.5 7.9 3.8z"/>
				</g>
				<path id="&lt;Path&gt;" class="s4" d="m410 498.4h-18.1"/>
				<rect id="&lt;Path&gt;" class="s4" x="304.9" y="209.4" width="38.1" height="38.1" rx="12"></rect>
				<rect id="&lt;Path&gt;" class="s5" x="355.8" y="209.4" width="38.1" height="38.1" rx="12"></rect>
				<rect id="&lt;Path&gt;" class="s5" x="404.5" y="209.4" width="38.1" height="38.1" rx="12"></rect>
				<rect id="&lt;Path&gt;" class="s4" x="457.6" y="209.4" width="38.1" height="38.1" rx="12"></rect>
				<rect id="&lt;Path&gt;" class="s4" x="304.9" y="261.6" width="38.1" height="38.1" rx="12"></rect>
				<rect id="&lt;Path&gt;" class="s5" x="355.8" y="261.6" width="38.1" height="38.1" rx="12"></rect>
				<rect id="&lt;Path&gt;" class="s5" x="404.5" y="261.6" width="38.1" height="38.1" rx="12"></rect>
				<rect id="&lt;Path&gt;" class="s4" x="457.6" y="261.6" width="38.1" height="38.1" rx="12"></rect>
				<g id="&lt;Group&gt;">
					<g id="&lt;Group&gt;">
						<g id="&lt;Group&gt;">
							<path id="&lt;Path&gt;" class="s4" d="m361 437.3q-20.6-27.1-33.5-71.5c-3-6.6-0.2-14.5 6.4-17.6 6.5-3.1 14.3-0.3 17.3 6.4l16.4 35.8 0.1-93.5c0-7.3 5.9-13.3 13.1-13.3 7.2 0 13.1 6 13.1 13.3l-0.1 62.9v-6.6c0-7.4 5.9-13.3 13.1-13.3 7.2 0 13.1 5.9 13.1 13.2v2.7c0-7.3 5.8-13.3 13.1-13.3 7.2 0 13 5.9 13 13.3v2.6c0-7.3 5.9-13.2 13.1-13.3 7.2 0 13.1 6 13.1 13.3l-0.1 39.6c0 34.9-27.9 63.2-62.3 63.3-12.5 0-24.2-3.8-33.9-10.2-5.7-3.8-10.8-8.4-15-13.8z"/>
						</g>
						<path id="&lt;Path&gt;" class="s4" d="m420 355.5v4.5"/>
						<path id="&lt;Path&gt;" class="s4" d="m446.1 358.2v3.9"/>
					</g>
				</g>
			</g>
		</g>
	</g>
</svg>